G04*
G04 #@! TF.GenerationSoftware,Altium Limited,Altium Designer,18.1.9 (240)*
G04*
G04 Layer_Color=32768*
%FSLAX25Y25*%
%MOIN*%
G70*
G01*
G75*
%ADD11C,0.01181*%
%ADD69C,0.00100*%
G36*
X371048Y401305D02*
X368448D01*
Y401905D01*
X371048D01*
Y401305D01*
D02*
G37*
G36*
X362667Y401700D02*
X363750D01*
Y401100D01*
X362667D01*
Y399983D01*
X362067D01*
Y401100D01*
X361150D01*
Y401700D01*
X362067D01*
Y402583D01*
X362667D01*
Y401700D01*
D02*
G37*
G36*
X334254Y389274D02*
X333746D01*
Y391305D01*
X334254D01*
Y389274D01*
D02*
G37*
G36*
X408254Y388274D02*
X407746D01*
Y390305D01*
X408254D01*
Y388274D01*
D02*
G37*
G36*
X334254Y376662D02*
X335693D01*
Y376154D01*
X334254D01*
Y375392D01*
X333746D01*
Y376154D01*
X332307D01*
Y376662D01*
X333746D01*
Y377423D01*
X334254D01*
Y376662D01*
D02*
G37*
G36*
X408254Y375662D02*
X409693D01*
Y375154D01*
X408254D01*
Y374392D01*
X407746D01*
Y375154D01*
X406307D01*
Y375662D01*
X407746D01*
Y376423D01*
X408254D01*
Y375662D01*
D02*
G37*
G36*
X496494Y361246D02*
X494463D01*
Y361754D01*
X496494D01*
Y361246D01*
D02*
G37*
G36*
X481851Y361754D02*
X482612D01*
Y361246D01*
X481851D01*
Y359807D01*
X481343D01*
Y361246D01*
X480581D01*
Y361754D01*
X481343D01*
Y363193D01*
X481851D01*
Y361754D01*
D02*
G37*
G36*
X447401Y284448D02*
X446801D01*
Y287048D01*
X447401D01*
Y284448D01*
D02*
G37*
G36*
X521700Y284168D02*
X522583D01*
Y283568D01*
X521700D01*
Y282485D01*
X521100D01*
Y283568D01*
X519983D01*
Y284168D01*
X521100D01*
Y285085D01*
X521700D01*
Y284168D01*
D02*
G37*
G36*
X447606Y278667D02*
X448723D01*
Y278067D01*
X447606D01*
Y277150D01*
X447006D01*
Y278067D01*
X446123D01*
Y278667D01*
X447006D01*
Y279750D01*
X447606D01*
Y278667D01*
D02*
G37*
G36*
X521905Y275186D02*
X521305D01*
Y277786D01*
X521905D01*
Y275186D01*
D02*
G37*
D11*
X357364Y302000D02*
G03*
X357364Y302000I-591J0D01*
G01*
X357467Y331941D02*
G03*
X357467Y331941I-591J0D01*
G01*
X357967Y271500D02*
G03*
X357967Y271500I-591J0D01*
G01*
X430491Y282017D02*
G03*
X430491Y282017I-591J0D01*
G01*
D69*
X333559Y295000D02*
G03*
X333559Y295000I-500J0D01*
G01*
X336000Y263000D02*
G03*
X336000Y263000I-500J0D01*
G01*
X333559Y325000D02*
G03*
X333559Y325000I-500J0D01*
G01*
X403000Y335807D02*
G03*
X403000Y335807I-500J0D01*
G01*
X416059Y335824D02*
G03*
X416059Y335824I-500J0D01*
G01*
X400906Y271693D02*
G03*
X400906Y271693I-500J0D01*
G01*
X337559Y357000D02*
G03*
X337559Y357000I-500J0D01*
G01*
X428000Y373059D02*
G03*
X428000Y373059I-500J0D01*
G01*
X374372Y323469D02*
G03*
X374372Y323469I-500J0D01*
G01*
X333059Y294213D02*
Y295787D01*
X332271Y295000D02*
X333846D01*
X335500Y262212D02*
Y263787D01*
X334713Y263000D02*
X336287D01*
X333059Y324212D02*
Y325787D01*
X332271Y325000D02*
X333846D01*
X402500Y335020D02*
Y336595D01*
X401713Y335807D02*
X403287D01*
X415559Y335036D02*
Y336611D01*
X414771Y335824D02*
X416346D01*
X400406Y270905D02*
Y272480D01*
X399619Y271693D02*
X401194D01*
X337059Y356213D02*
Y357788D01*
X336272Y357000D02*
X337847D01*
X426712Y373059D02*
X428287D01*
X427500Y372272D02*
Y373847D01*
X373872Y322681D02*
Y324256D01*
X373085Y323469D02*
X374660D01*
M02*
