G04*
G04 #@! TF.GenerationSoftware,Altium Limited,Altium Designer,18.1.9 (240)*
G04*
G04 Layer_Color=2752767*
%FSLAX25Y25*%
%MOIN*%
G70*
G01*
G75*
%ADD70C,0.00200*%
%ADD71C,0.00267*%
D70*
X528700Y294700D02*
Y296300D01*
X530300D01*
Y294700D01*
X528700D01*
Y304700D02*
Y306300D01*
X530300D01*
Y304700D01*
X528700D01*
Y314700D02*
Y316300D01*
X530300D01*
Y314700D01*
X528700D01*
Y324700D02*
Y326300D01*
X530300D01*
Y324700D01*
X528700D01*
Y334700D02*
Y336300D01*
X530300D01*
Y334700D01*
X528700D01*
X498917Y261700D02*
Y263300D01*
X500517D01*
Y261700D01*
X498917D01*
X488917D02*
Y263300D01*
X490517D01*
Y261700D01*
X488917D01*
X478917D02*
Y263300D01*
X480517D01*
Y261700D01*
X478917D01*
X312700Y358700D02*
Y360300D01*
X314300D01*
Y358700D01*
X312700D01*
Y368700D02*
Y370300D01*
X314300D01*
Y368700D01*
X312700D01*
Y298200D02*
Y299800D01*
X314300D01*
Y298200D01*
X312700D01*
Y308200D02*
Y309800D01*
X314300D01*
Y308200D01*
X312700D01*
Y318200D02*
Y319800D01*
X314300D01*
Y318200D01*
X312700D01*
X408000Y397200D02*
X407200Y398800D01*
X408800D01*
X408000Y397200D01*
X334000Y397700D02*
X333200Y399300D01*
X334800D01*
X334000Y397700D01*
X504500Y360700D02*
X503700Y362300D01*
X505300D01*
X504500Y360700D01*
X535000Y389200D02*
X535400Y389600D01*
X535800D01*
X535400Y390000D01*
X535800Y390400D01*
X535400D01*
X535000Y390800D01*
X534600Y390400D01*
X534200D01*
X534600Y390000D01*
X534200Y389600D01*
X534600D01*
X535000Y389200D01*
X530000Y379200D02*
X530400Y379600D01*
X530800D01*
X530400Y380000D01*
X530800Y380400D01*
X530400D01*
X530000Y380800D01*
X529600Y380400D01*
X529200D01*
X529600Y380000D01*
X529200Y379600D01*
X529600D01*
X530000Y379200D01*
X535000Y369200D02*
X535400Y369600D01*
X535800D01*
X535400Y370000D01*
X535800Y370400D01*
X535400D01*
X535000Y370800D01*
X534600Y370400D01*
X534200D01*
X534600Y370000D01*
X534200Y369600D01*
X534600D01*
X535000Y369200D01*
X530000Y359200D02*
X530400Y359600D01*
X530800D01*
X530400Y360000D01*
X530800Y360400D01*
X530400D01*
X530000Y360800D01*
X529600Y360400D01*
X529200D01*
X529600Y360000D01*
X529200Y359600D01*
X529600D01*
X530000Y359200D01*
X535000Y349200D02*
X535400Y349600D01*
X535800D01*
X535400Y350000D01*
X535800Y350400D01*
X535400D01*
X535000Y350800D01*
X534600Y350400D01*
X534200D01*
X534600Y350000D01*
X534200Y349600D01*
X534600D01*
X535000Y349200D01*
Y329200D02*
X535400Y329600D01*
X535800D01*
X535400Y330000D01*
X535800Y330400D01*
X535400D01*
X535000Y330800D01*
X534600Y330400D01*
X534200D01*
X534600Y330000D01*
X534200Y329600D01*
X534600D01*
X535000Y329200D01*
Y309200D02*
X535400Y309600D01*
X535800D01*
X535400Y310000D01*
X535800Y310400D01*
X535400D01*
X535000Y310800D01*
X534600Y310400D01*
X534200D01*
X534600Y310000D01*
X534200Y309600D01*
X534600D01*
X535000Y309200D01*
Y289200D02*
X535400Y289600D01*
X535800D01*
X535400Y290000D01*
X535800Y290400D01*
X535400D01*
X535000Y290800D01*
X534600Y290400D01*
X534200D01*
X534600Y290000D01*
X534200Y289600D01*
X534600D01*
X535000Y289200D01*
X530000Y279200D02*
X530400Y279600D01*
X530800D01*
X530400Y280000D01*
X530800Y280400D01*
X530400D01*
X530000Y280800D01*
X529600Y280400D01*
X529200D01*
X529600Y280000D01*
X529200Y279600D01*
X529600D01*
X530000Y279200D01*
X535000Y269200D02*
X535400Y269600D01*
X535800D01*
X535400Y270000D01*
X535800Y270400D01*
X535400D01*
X535000Y270800D01*
X534600Y270400D01*
X534200D01*
X534600Y270000D01*
X534200Y269600D01*
X534600D01*
X535000Y269200D01*
X530000Y259200D02*
X530400Y259600D01*
X530800D01*
X530400Y260000D01*
X530800Y260400D01*
X530400D01*
X530000Y260800D01*
X529600Y260400D01*
X529200D01*
X529600Y260000D01*
X529200Y259600D01*
X529600D01*
X530000Y259200D01*
X525000Y389200D02*
X525400Y389600D01*
X525800D01*
X525400Y390000D01*
X525800Y390400D01*
X525400D01*
X525000Y390800D01*
X524600Y390400D01*
X524200D01*
X524600Y390000D01*
X524200Y389600D01*
X524600D01*
X525000Y389200D01*
X520000Y379200D02*
X520400Y379600D01*
X520800D01*
X520400Y380000D01*
X520800Y380400D01*
X520400D01*
X520000Y380800D01*
X519600Y380400D01*
X519200D01*
X519600Y380000D01*
X519200Y379600D01*
X519600D01*
X520000Y379200D01*
X525000Y369200D02*
X525400Y369600D01*
X525800D01*
X525400Y370000D01*
X525800Y370400D01*
X525400D01*
X525000Y370800D01*
X524600Y370400D01*
X524200D01*
X524600Y370000D01*
X524200Y369600D01*
X524600D01*
X525000Y369200D01*
X520000Y359200D02*
X520400Y359600D01*
X520800D01*
X520400Y360000D01*
X520800Y360400D01*
X520400D01*
X520000Y360800D01*
X519600Y360400D01*
X519200D01*
X519600Y360000D01*
X519200Y359600D01*
X519600D01*
X520000Y359200D01*
X525000Y349200D02*
X525400Y349600D01*
X525800D01*
X525400Y350000D01*
X525800Y350400D01*
X525400D01*
X525000Y350800D01*
X524600Y350400D01*
X524200D01*
X524600Y350000D01*
X524200Y349600D01*
X524600D01*
X525000Y349200D01*
X520000Y339200D02*
X520400Y339600D01*
X520800D01*
X520400Y340000D01*
X520800Y340400D01*
X520400D01*
X520000Y340800D01*
X519600Y340400D01*
X519200D01*
X519600Y340000D01*
X519200Y339600D01*
X519600D01*
X520000Y339200D01*
X525000Y289200D02*
X525400Y289600D01*
X525800D01*
X525400Y290000D01*
X525800Y290400D01*
X525400D01*
X525000Y290800D01*
X524600Y290400D01*
X524200D01*
X524600Y290000D01*
X524200Y289600D01*
X524600D01*
X525000Y289200D01*
X515000Y389200D02*
X515400Y389600D01*
X515800D01*
X515400Y390000D01*
X515800Y390400D01*
X515400D01*
X515000Y390800D01*
X514600Y390400D01*
X514200D01*
X514600Y390000D01*
X514200Y389600D01*
X514600D01*
X515000Y389200D01*
X510000Y379200D02*
X510400Y379600D01*
X510800D01*
X510400Y380000D01*
X510800Y380400D01*
X510400D01*
X510000Y380800D01*
X509600Y380400D01*
X509200D01*
X509600Y380000D01*
X509200Y379600D01*
X509600D01*
X510000Y379200D01*
X515000Y369200D02*
X515400Y369600D01*
X515800D01*
X515400Y370000D01*
X515800Y370400D01*
X515400D01*
X515000Y370800D01*
X514600Y370400D01*
X514200D01*
X514600Y370000D01*
X514200Y369600D01*
X514600D01*
X515000Y369200D01*
X510000Y359200D02*
X510400Y359600D01*
X510800D01*
X510400Y360000D01*
X510800Y360400D01*
X510400D01*
X510000Y360800D01*
X509600Y360400D01*
X509200D01*
X509600Y360000D01*
X509200Y359600D01*
X509600D01*
X510000Y359200D01*
X515000Y349200D02*
X515400Y349600D01*
X515800D01*
X515400Y350000D01*
X515800Y350400D01*
X515400D01*
X515000Y350800D01*
X514600Y350400D01*
X514200D01*
X514600Y350000D01*
X514200Y349600D01*
X514600D01*
X515000Y349200D01*
X510000Y339200D02*
X510400Y339600D01*
X510800D01*
X510400Y340000D01*
X510800Y340400D01*
X510400D01*
X510000Y340800D01*
X509600Y340400D01*
X509200D01*
X509600Y340000D01*
X509200Y339600D01*
X509600D01*
X510000Y339200D01*
Y279200D02*
X510400Y279600D01*
X510800D01*
X510400Y280000D01*
X510800Y280400D01*
X510400D01*
X510000Y280800D01*
X509600Y280400D01*
X509200D01*
X509600Y280000D01*
X509200Y279600D01*
X509600D01*
X510000Y279200D01*
X515000Y269200D02*
X515400Y269600D01*
X515800D01*
X515400Y270000D01*
X515800Y270400D01*
X515400D01*
X515000Y270800D01*
X514600Y270400D01*
X514200D01*
X514600Y270000D01*
X514200Y269600D01*
X514600D01*
X515000Y269200D01*
X510000Y259200D02*
X510400Y259600D01*
X510800D01*
X510400Y260000D01*
X510800Y260400D01*
X510400D01*
X510000Y260800D01*
X509600Y260400D01*
X509200D01*
X509600Y260000D01*
X509200Y259600D01*
X509600D01*
X510000Y259200D01*
X505000Y389200D02*
X505400Y389600D01*
X505800D01*
X505400Y390000D01*
X505800Y390400D01*
X505400D01*
X505000Y390800D01*
X504600Y390400D01*
X504200D01*
X504600Y390000D01*
X504200Y389600D01*
X504600D01*
X505000Y389200D01*
X500000Y379200D02*
X500400Y379600D01*
X500800D01*
X500400Y380000D01*
X500800Y380400D01*
X500400D01*
X500000Y380800D01*
X499600Y380400D01*
X499200D01*
X499600Y380000D01*
X499200Y379600D01*
X499600D01*
X500000Y379200D01*
X505000Y369200D02*
X505400Y369600D01*
X505800D01*
X505400Y370000D01*
X505800Y370400D01*
X505400D01*
X505000Y370800D01*
X504600Y370400D01*
X504200D01*
X504600Y370000D01*
X504200Y369600D01*
X504600D01*
X505000Y369200D01*
Y349200D02*
X505400Y349600D01*
X505800D01*
X505400Y350000D01*
X505800Y350400D01*
X505400D01*
X505000Y350800D01*
X504600Y350400D01*
X504200D01*
X504600Y350000D01*
X504200Y349600D01*
X504600D01*
X505000Y349200D01*
X500000Y339200D02*
X500400Y339600D01*
X500800D01*
X500400Y340000D01*
X500800Y340400D01*
X500400D01*
X500000Y340800D01*
X499600Y340400D01*
X499200D01*
X499600Y340000D01*
X499200Y339600D01*
X499600D01*
X500000Y339200D01*
X505000Y269200D02*
X505400Y269600D01*
X505800D01*
X505400Y270000D01*
X505800Y270400D01*
X505400D01*
X505000Y270800D01*
X504600Y270400D01*
X504200D01*
X504600Y270000D01*
X504200Y269600D01*
X504600D01*
X505000Y269200D01*
X495000Y389200D02*
X495400Y389600D01*
X495800D01*
X495400Y390000D01*
X495800Y390400D01*
X495400D01*
X495000Y390800D01*
X494600Y390400D01*
X494200D01*
X494600Y390000D01*
X494200Y389600D01*
X494600D01*
X495000Y389200D01*
X490000Y379200D02*
X490400Y379600D01*
X490800D01*
X490400Y380000D01*
X490800Y380400D01*
X490400D01*
X490000Y380800D01*
X489600Y380400D01*
X489200D01*
X489600Y380000D01*
X489200Y379600D01*
X489600D01*
X490000Y379200D01*
X495000Y369200D02*
X495400Y369600D01*
X495800D01*
X495400Y370000D01*
X495800Y370400D01*
X495400D01*
X495000Y370800D01*
X494600Y370400D01*
X494200D01*
X494600Y370000D01*
X494200Y369600D01*
X494600D01*
X495000Y369200D01*
Y349200D02*
X495400Y349600D01*
X495800D01*
X495400Y350000D01*
X495800Y350400D01*
X495400D01*
X495000Y350800D01*
X494600Y350400D01*
X494200D01*
X494600Y350000D01*
X494200Y349600D01*
X494600D01*
X495000Y349200D01*
X490000Y339200D02*
X490400Y339600D01*
X490800D01*
X490400Y340000D01*
X490800Y340400D01*
X490400D01*
X490000Y340800D01*
X489600Y340400D01*
X489200D01*
X489600Y340000D01*
X489200Y339600D01*
X489600D01*
X490000Y339200D01*
X495000Y309200D02*
X495400Y309600D01*
X495800D01*
X495400Y310000D01*
X495800Y310400D01*
X495400D01*
X495000Y310800D01*
X494600Y310400D01*
X494200D01*
X494600Y310000D01*
X494200Y309600D01*
X494600D01*
X495000Y309200D01*
Y269200D02*
X495400Y269600D01*
X495800D01*
X495400Y270000D01*
X495800Y270400D01*
X495400D01*
X495000Y270800D01*
X494600Y270400D01*
X494200D01*
X494600Y270000D01*
X494200Y269600D01*
X494600D01*
X495000Y269200D01*
X485000Y389200D02*
X485400Y389600D01*
X485800D01*
X485400Y390000D01*
X485800Y390400D01*
X485400D01*
X485000Y390800D01*
X484600Y390400D01*
X484200D01*
X484600Y390000D01*
X484200Y389600D01*
X484600D01*
X485000Y389200D01*
X480000Y379200D02*
X480400Y379600D01*
X480800D01*
X480400Y380000D01*
X480800Y380400D01*
X480400D01*
X480000Y380800D01*
X479600Y380400D01*
X479200D01*
X479600Y380000D01*
X479200Y379600D01*
X479600D01*
X480000Y379200D01*
X485000Y369200D02*
X485400Y369600D01*
X485800D01*
X485400Y370000D01*
X485800Y370400D01*
X485400D01*
X485000Y370800D01*
X484600Y370400D01*
X484200D01*
X484600Y370000D01*
X484200Y369600D01*
X484600D01*
X485000Y369200D01*
Y349200D02*
X485400Y349600D01*
X485800D01*
X485400Y350000D01*
X485800Y350400D01*
X485400D01*
X485000Y350800D01*
X484600Y350400D01*
X484200D01*
X484600Y350000D01*
X484200Y349600D01*
X484600D01*
X485000Y349200D01*
Y269200D02*
X485400Y269600D01*
X485800D01*
X485400Y270000D01*
X485800Y270400D01*
X485400D01*
X485000Y270800D01*
X484600Y270400D01*
X484200D01*
X484600Y270000D01*
X484200Y269600D01*
X484600D01*
X485000Y269200D01*
X475000Y389200D02*
X475400Y389600D01*
X475800D01*
X475400Y390000D01*
X475800Y390400D01*
X475400D01*
X475000Y390800D01*
X474600Y390400D01*
X474200D01*
X474600Y390000D01*
X474200Y389600D01*
X474600D01*
X475000Y389200D01*
Y369200D02*
X475400Y369600D01*
X475800D01*
X475400Y370000D01*
X475800Y370400D01*
X475400D01*
X475000Y370800D01*
X474600Y370400D01*
X474200D01*
X474600Y370000D01*
X474200Y369600D01*
X474600D01*
X475000Y369200D01*
Y269200D02*
X475400Y269600D01*
X475800D01*
X475400Y270000D01*
X475800Y270400D01*
X475400D01*
X475000Y270800D01*
X474600Y270400D01*
X474200D01*
X474600Y270000D01*
X474200Y269600D01*
X474600D01*
X475000Y269200D01*
X470000Y259200D02*
X470400Y259600D01*
X470800D01*
X470400Y260000D01*
X470800Y260400D01*
X470400D01*
X470000Y260800D01*
X469600Y260400D01*
X469200D01*
X469600Y260000D01*
X469200Y259600D01*
X469600D01*
X470000Y259200D01*
X465000Y389200D02*
X465400Y389600D01*
X465800D01*
X465400Y390000D01*
X465800Y390400D01*
X465400D01*
X465000Y390800D01*
X464600Y390400D01*
X464200D01*
X464600Y390000D01*
X464200Y389600D01*
X464600D01*
X465000Y389200D01*
X460000Y359200D02*
X460400Y359600D01*
X460800D01*
X460400Y360000D01*
X460800Y360400D01*
X460400D01*
X460000Y360800D01*
X459600Y360400D01*
X459200D01*
X459600Y360000D01*
X459200Y359600D01*
X459600D01*
X460000Y359200D01*
X465000Y329200D02*
X465400Y329600D01*
X465800D01*
X465400Y330000D01*
X465800Y330400D01*
X465400D01*
X465000Y330800D01*
X464600Y330400D01*
X464200D01*
X464600Y330000D01*
X464200Y329600D01*
X464600D01*
X465000Y329200D01*
Y269200D02*
X465400Y269600D01*
X465800D01*
X465400Y270000D01*
X465800Y270400D01*
X465400D01*
X465000Y270800D01*
X464600Y270400D01*
X464200D01*
X464600Y270000D01*
X464200Y269600D01*
X464600D01*
X465000Y269200D01*
X460000Y259200D02*
X460400Y259600D01*
X460800D01*
X460400Y260000D01*
X460800Y260400D01*
X460400D01*
X460000Y260800D01*
X459600Y260400D01*
X459200D01*
X459600Y260000D01*
X459200Y259600D01*
X459600D01*
X460000Y259200D01*
X455000Y389200D02*
X455400Y389600D01*
X455800D01*
X455400Y390000D01*
X455800Y390400D01*
X455400D01*
X455000Y390800D01*
X454600Y390400D01*
X454200D01*
X454600Y390000D01*
X454200Y389600D01*
X454600D01*
X455000Y389200D01*
Y369200D02*
X455400Y369600D01*
X455800D01*
X455400Y370000D01*
X455800Y370400D01*
X455400D01*
X455000Y370800D01*
X454600Y370400D01*
X454200D01*
X454600Y370000D01*
X454200Y369600D01*
X454600D01*
X455000Y369200D01*
X450000Y339200D02*
X450400Y339600D01*
X450800D01*
X450400Y340000D01*
X450800Y340400D01*
X450400D01*
X450000Y340800D01*
X449600Y340400D01*
X449200D01*
X449600Y340000D01*
X449200Y339600D01*
X449600D01*
X450000Y339200D01*
X455000Y269200D02*
X455400Y269600D01*
X455800D01*
X455400Y270000D01*
X455800Y270400D01*
X455400D01*
X455000Y270800D01*
X454600Y270400D01*
X454200D01*
X454600Y270000D01*
X454200Y269600D01*
X454600D01*
X455000Y269200D01*
X450000Y259200D02*
X450400Y259600D01*
X450800D01*
X450400Y260000D01*
X450800Y260400D01*
X450400D01*
X450000Y260800D01*
X449600Y260400D01*
X449200D01*
X449600Y260000D01*
X449200Y259600D01*
X449600D01*
X450000Y259200D01*
X440000Y279200D02*
X440400Y279600D01*
X440800D01*
X440400Y280000D01*
X440800Y280400D01*
X440400D01*
X440000Y280800D01*
X439600Y280400D01*
X439200D01*
X439600Y280000D01*
X439200Y279600D01*
X439600D01*
X440000Y279200D01*
X445000Y269200D02*
X445400Y269600D01*
X445800D01*
X445400Y270000D01*
X445800Y270400D01*
X445400D01*
X445000Y270800D01*
X444600Y270400D01*
X444200D01*
X444600Y270000D01*
X444200Y269600D01*
X444600D01*
X445000Y269200D01*
X440000Y259200D02*
X440400Y259600D01*
X440800D01*
X440400Y260000D01*
X440800Y260400D01*
X440400D01*
X440000Y260800D01*
X439600Y260400D01*
X439200D01*
X439600Y260000D01*
X439200Y259600D01*
X439600D01*
X440000Y259200D01*
X435000Y269200D02*
X435400Y269600D01*
X435800D01*
X435400Y270000D01*
X435800Y270400D01*
X435400D01*
X435000Y270800D01*
X434600Y270400D01*
X434200D01*
X434600Y270000D01*
X434200Y269600D01*
X434600D01*
X435000Y269200D01*
X430000Y259200D02*
X430400Y259600D01*
X430800D01*
X430400Y260000D01*
X430800Y260400D01*
X430400D01*
X430000Y260800D01*
X429600Y260400D01*
X429200D01*
X429600Y260000D01*
X429200Y259600D01*
X429600D01*
X430000Y259200D01*
X425000Y389200D02*
X425400Y389600D01*
X425800D01*
X425400Y390000D01*
X425800Y390400D01*
X425400D01*
X425000Y390800D01*
X424600Y390400D01*
X424200D01*
X424600Y390000D01*
X424200Y389600D01*
X424600D01*
X425000Y389200D01*
X420000Y379200D02*
X420400Y379600D01*
X420800D01*
X420400Y380000D01*
X420800Y380400D01*
X420400D01*
X420000Y380800D01*
X419600Y380400D01*
X419200D01*
X419600Y380000D01*
X419200Y379600D01*
X419600D01*
X420000Y379200D01*
X425000Y269200D02*
X425400Y269600D01*
X425800D01*
X425400Y270000D01*
X425800Y270400D01*
X425400D01*
X425000Y270800D01*
X424600Y270400D01*
X424200D01*
X424600Y270000D01*
X424200Y269600D01*
X424600D01*
X425000Y269200D01*
X420000Y259200D02*
X420400Y259600D01*
X420800D01*
X420400Y260000D01*
X420800Y260400D01*
X420400D01*
X420000Y260800D01*
X419600Y260400D01*
X419200D01*
X419600Y260000D01*
X419200Y259600D01*
X419600D01*
X420000Y259200D01*
X415000Y389200D02*
X415400Y389600D01*
X415800D01*
X415400Y390000D01*
X415800Y390400D01*
X415400D01*
X415000Y390800D01*
X414600Y390400D01*
X414200D01*
X414600Y390000D01*
X414200Y389600D01*
X414600D01*
X415000Y389200D01*
Y309200D02*
X415400Y309600D01*
X415800D01*
X415400Y310000D01*
X415800Y310400D01*
X415400D01*
X415000Y310800D01*
X414600Y310400D01*
X414200D01*
X414600Y310000D01*
X414200Y309600D01*
X414600D01*
X415000Y309200D01*
Y289200D02*
X415400Y289600D01*
X415800D01*
X415400Y290000D01*
X415800Y290400D01*
X415400D01*
X415000Y290800D01*
X414600Y290400D01*
X414200D01*
X414600Y290000D01*
X414200Y289600D01*
X414600D01*
X415000Y289200D01*
Y269200D02*
X415400Y269600D01*
X415800D01*
X415400Y270000D01*
X415800Y270400D01*
X415400D01*
X415000Y270800D01*
X414600Y270400D01*
X414200D01*
X414600Y270000D01*
X414200Y269600D01*
X414600D01*
X415000Y269200D01*
X400000Y299200D02*
X400400Y299600D01*
X400800D01*
X400400Y300000D01*
X400800Y300400D01*
X400400D01*
X400000Y300800D01*
X399600Y300400D01*
X399200D01*
X399600Y300000D01*
X399200Y299600D01*
X399600D01*
X400000Y299200D01*
X405000Y289200D02*
X405400Y289600D01*
X405800D01*
X405400Y290000D01*
X405800Y290400D01*
X405400D01*
X405000Y290800D01*
X404600Y290400D01*
X404200D01*
X404600Y290000D01*
X404200Y289600D01*
X404600D01*
X405000Y289200D01*
X395000Y389200D02*
X395400Y389600D01*
X395800D01*
X395400Y390000D01*
X395800Y390400D01*
X395400D01*
X395000Y390800D01*
X394600Y390400D01*
X394200D01*
X394600Y390000D01*
X394200Y389600D01*
X394600D01*
X395000Y389200D01*
Y329200D02*
X395400Y329600D01*
X395800D01*
X395400Y330000D01*
X395800Y330400D01*
X395400D01*
X395000Y330800D01*
X394600Y330400D01*
X394200D01*
X394600Y330000D01*
X394200Y329600D01*
X394600D01*
X395000Y329200D01*
X385000Y369200D02*
X385400Y369600D01*
X385800D01*
X385400Y370000D01*
X385800Y370400D01*
X385400D01*
X385000Y370800D01*
X384600Y370400D01*
X384200D01*
X384600Y370000D01*
X384200Y369600D01*
X384600D01*
X385000Y369200D01*
X380000Y279200D02*
X380400Y279600D01*
X380800D01*
X380400Y280000D01*
X380800Y280400D01*
X380400D01*
X380000Y280800D01*
X379600Y280400D01*
X379200D01*
X379600Y280000D01*
X379200Y279600D01*
X379600D01*
X380000Y279200D01*
Y259200D02*
X380400Y259600D01*
X380800D01*
X380400Y260000D01*
X380800Y260400D01*
X380400D01*
X380000Y260800D01*
X379600Y260400D01*
X379200D01*
X379600Y260000D01*
X379200Y259600D01*
X379600D01*
X380000Y259200D01*
X375000Y269200D02*
X375400Y269600D01*
X375800D01*
X375400Y270000D01*
X375800Y270400D01*
X375400D01*
X375000Y270800D01*
X374600Y270400D01*
X374200D01*
X374600Y270000D01*
X374200Y269600D01*
X374600D01*
X375000Y269200D01*
X370000Y259200D02*
X370400Y259600D01*
X370800D01*
X370400Y260000D01*
X370800Y260400D01*
X370400D01*
X370000Y260800D01*
X369600Y260400D01*
X369200D01*
X369600Y260000D01*
X369200Y259600D01*
X369600D01*
X370000Y259200D01*
X365000Y269200D02*
X365400Y269600D01*
X365800D01*
X365400Y270000D01*
X365800Y270400D01*
X365400D01*
X365000Y270800D01*
X364600Y270400D01*
X364200D01*
X364600Y270000D01*
X364200Y269600D01*
X364600D01*
X365000Y269200D01*
X360000Y259200D02*
X360400Y259600D01*
X360800D01*
X360400Y260000D01*
X360800Y260400D01*
X360400D01*
X360000Y260800D01*
X359600Y260400D01*
X359200D01*
X359600Y260000D01*
X359200Y259600D01*
X359600D01*
X360000Y259200D01*
X350000Y379200D02*
X350400Y379600D01*
X350800D01*
X350400Y380000D01*
X350800Y380400D01*
X350400D01*
X350000Y380800D01*
X349600Y380400D01*
X349200D01*
X349600Y380000D01*
X349200Y379600D01*
X349600D01*
X350000Y379200D01*
Y259200D02*
X350400Y259600D01*
X350800D01*
X350400Y260000D01*
X350800Y260400D01*
X350400D01*
X350000Y260800D01*
X349600Y260400D01*
X349200D01*
X349600Y260000D01*
X349200Y259600D01*
X349600D01*
X350000Y259200D01*
X345000Y389200D02*
X345400Y389600D01*
X345800D01*
X345400Y390000D01*
X345800Y390400D01*
X345400D01*
X345000Y390800D01*
X344600Y390400D01*
X344200D01*
X344600Y390000D01*
X344200Y389600D01*
X344600D01*
X345000Y389200D01*
X340000Y379200D02*
X340400Y379600D01*
X340800D01*
X340400Y380000D01*
X340800Y380400D01*
X340400D01*
X340000Y380800D01*
X339600Y380400D01*
X339200D01*
X339600Y380000D01*
X339200Y379600D01*
X339600D01*
X340000Y379200D01*
X330000D02*
X330400Y379600D01*
X330800D01*
X330400Y380000D01*
X330800Y380400D01*
X330400D01*
X330000Y380800D01*
X329600Y380400D01*
X329200D01*
X329600Y380000D01*
X329200Y379600D01*
X329600D01*
X330000Y379200D01*
X325000Y389200D02*
X325400Y389600D01*
X325800D01*
X325400Y390000D01*
X325800Y390400D01*
X325400D01*
X325000Y390800D01*
X324600Y390400D01*
X324200D01*
X324600Y390000D01*
X324200Y389600D01*
X324600D01*
X325000Y389200D01*
X320000Y379200D02*
X320400Y379600D01*
X320800D01*
X320400Y380000D01*
X320800Y380400D01*
X320400D01*
X320000Y380800D01*
X319600Y380400D01*
X319200D01*
X319600Y380000D01*
X319200Y379600D01*
X319600D01*
X320000Y379200D01*
Y259200D02*
X320400Y259600D01*
X320800D01*
X320400Y260000D01*
X320800Y260400D01*
X320400D01*
X320000Y260800D01*
X319600Y260400D01*
X319200D01*
X319600Y260000D01*
X319200Y259600D01*
X319600D01*
X320000Y259200D01*
X310000Y379200D02*
X310400Y379600D01*
X310800D01*
X310400Y380000D01*
X310800Y380400D01*
X310400D01*
X310000Y380800D01*
X309600Y380400D01*
X309200D01*
X309600Y380000D01*
X309200Y379600D01*
X309600D01*
X310000Y379200D01*
X315000Y349200D02*
X315400Y349600D01*
X315800D01*
X315400Y350000D01*
X315800Y350400D01*
X315400D01*
X315000Y350800D01*
X314600Y350400D01*
X314200D01*
X314600Y350000D01*
X314200Y349600D01*
X314600D01*
X315000Y349200D01*
X310000Y339200D02*
X310400Y339600D01*
X310800D01*
X310400Y340000D01*
X310800Y340400D01*
X310400D01*
X310000Y340800D01*
X309600Y340400D01*
X309200D01*
X309600Y340000D01*
X309200Y339600D01*
X309600D01*
X310000Y339200D01*
Y279200D02*
X310400Y279600D01*
X310800D01*
X310400Y280000D01*
X310800Y280400D01*
X310400D01*
X310000Y280800D01*
X309600Y280400D01*
X309200D01*
X309600Y280000D01*
X309200Y279600D01*
X309600D01*
X310000Y279200D01*
X315000Y269200D02*
X315400Y269600D01*
X315800D01*
X315400Y270000D01*
X315800Y270400D01*
X315400D01*
X315000Y270800D01*
X314600Y270400D01*
X314200D01*
X314600Y270000D01*
X314200Y269600D01*
X314600D01*
X315000Y269200D01*
X310000Y259200D02*
X310400Y259600D01*
X310800D01*
X310400Y260000D01*
X310800Y260400D01*
X310400D01*
X310000Y260800D01*
X309600Y260400D01*
X309200D01*
X309600Y260000D01*
X309200Y259600D01*
X309600D01*
X310000Y259200D01*
X376431Y330200D02*
X375631Y331800D01*
X377231D01*
X376431Y330200D01*
X380022Y367022D02*
X380422Y367822D01*
X380022Y368622D01*
X380822Y368222D01*
X381622Y368622D01*
X381222Y367822D01*
X381622Y367022D01*
X380822Y367422D01*
X380022Y367022D01*
X344200Y364200D02*
X344600Y365000D01*
X344200Y365800D01*
X345000Y365400D01*
X345800Y365800D01*
X345400Y365000D01*
X345800Y364200D01*
X345000Y364600D01*
X344200Y364200D01*
X339618Y360318D02*
X338818Y361918D01*
X340418D01*
X339618Y360318D01*
X376431Y337200D02*
X375631Y338800D01*
X377231D01*
X376431Y337200D01*
X335618Y320818D02*
X334818Y322418D01*
X336418D01*
X335618Y320818D01*
Y290318D02*
X334818Y291918D01*
X336418D01*
X335618Y290318D01*
X343100Y299921D02*
Y299521D01*
X343900D01*
Y299921D01*
X344300D01*
Y300721D01*
X343900D01*
Y301121D01*
X343100D01*
Y300721D01*
X342700D01*
Y299921D01*
X343100D01*
Y311617D02*
Y311217D01*
X343900D01*
Y311617D01*
X344300D01*
Y312417D01*
X343900D01*
Y312817D01*
X343100D01*
Y312417D01*
X342700D01*
Y311617D01*
X343100D01*
Y329100D02*
Y328700D01*
X343900D01*
Y329100D01*
X344300D01*
Y329900D01*
X343900D01*
Y330300D01*
X343100D01*
Y329900D01*
X342700D01*
Y329100D01*
X343100D01*
Y341541D02*
Y341141D01*
X343900D01*
Y341541D01*
X344300D01*
Y342341D01*
X343900D01*
Y342741D01*
X343100D01*
Y342341D01*
X342700D01*
Y341541D01*
X343100D01*
X516546Y261154D02*
X515746Y262754D01*
X517346D01*
X516546Y261154D01*
X450610Y387810D02*
X449810Y389410D01*
X451410D01*
X450610Y387810D01*
X475989Y282189D02*
X475189Y283789D01*
X476789D01*
X475989Y282189D01*
X499000Y296700D02*
X498200Y298300D01*
X499800D01*
X499000Y296700D01*
X344500Y262200D02*
X343700Y263800D01*
X345300D01*
X344500Y262200D01*
X487000Y308200D02*
X486200Y309800D01*
X487800D01*
X487000Y308200D01*
X505930Y331189D02*
X505130Y332789D01*
X506730D01*
X505930Y331189D01*
X514206Y288200D02*
X513406Y289800D01*
X515006D01*
X514206Y288200D01*
X457195Y307395D02*
X456395Y308995D01*
X457995D01*
X457195Y307395D01*
X478275Y326700D02*
X477475Y328300D01*
X479075D01*
X478275Y326700D01*
X382500Y326217D02*
X381700Y327817D01*
X383300D01*
X382500Y326217D01*
X427500Y380200D02*
X426700Y381800D01*
X428300D01*
X427500Y380200D01*
X468706Y328200D02*
X467906Y329800D01*
X469506D01*
X468706Y328200D01*
X366532Y322668D02*
X365732Y324268D01*
X367332D01*
X366532Y322668D01*
X324100Y352600D02*
Y352200D01*
X324900D01*
Y352600D01*
X325300D01*
Y353400D01*
X324900D01*
Y353800D01*
X324100D01*
Y353400D01*
X323700D01*
Y352600D01*
X324100D01*
Y336541D02*
Y336141D01*
X324900D01*
Y336541D01*
X325300D01*
Y337341D01*
X324900D01*
Y337741D01*
X324100D01*
Y337341D01*
X323700D01*
Y336541D01*
X324100D01*
Y306600D02*
Y306200D01*
X324900D01*
Y306600D01*
X325300D01*
Y307400D01*
X324900D01*
Y307800D01*
X324100D01*
Y307400D01*
X323700D01*
Y306600D01*
X324100D01*
Y276100D02*
Y275700D01*
X324900D01*
Y276100D01*
X325300D01*
Y276900D01*
X324900D01*
Y277300D01*
X324100D01*
Y276900D01*
X323700D01*
Y276100D01*
X324100D01*
Y291100D02*
Y290700D01*
X324900D01*
Y291100D01*
X325300D01*
Y291900D01*
X324900D01*
Y292300D01*
X324100D01*
Y291900D01*
X323700D01*
Y291100D01*
X324100D01*
Y320600D02*
Y320200D01*
X324900D01*
Y320600D01*
X325300D01*
Y321400D01*
X324900D01*
Y321800D01*
X324100D01*
Y321400D01*
X323700D01*
Y320600D01*
X324100D01*
X363000Y272700D02*
X362200Y274300D01*
X363800D01*
X363000Y272700D01*
Y279700D02*
X362200Y281300D01*
X363800D01*
X363000Y279700D01*
X469206Y347700D02*
X468406Y349300D01*
X470006D01*
X469206Y347700D01*
X462000D02*
X461200Y349300D01*
X462800D01*
X462000Y347700D01*
X486000Y281700D02*
X485200Y283300D01*
X486800D01*
X486000Y281700D01*
X491000Y287200D02*
X490200Y288800D01*
X491800D01*
X491000Y287200D01*
X473836Y310200D02*
X473036Y311800D01*
X474636D01*
X473836Y310200D01*
X474000Y317238D02*
X473200Y318838D01*
X474800D01*
X474000Y317238D01*
X414000Y364700D02*
X413200Y366300D01*
X414800D01*
X414000Y364700D01*
X409000Y337700D02*
X408200Y339300D01*
X409800D01*
X409000Y337700D01*
X408309Y349200D02*
X407509Y350800D01*
X409109D01*
X408309Y349200D01*
X363625Y309825D02*
X362825Y311425D01*
X364425D01*
X363625Y309825D01*
X363750Y303467D02*
X362950Y305067D01*
X364550D01*
X363750Y303467D01*
D71*
X362300Y384500D02*
G03*
X362300Y384500I-800J0D01*
G01*
X382300D02*
G03*
X382300Y384500I-800J0D01*
G01*
X372300D02*
G03*
X372300Y384500I-800J0D01*
G01*
M02*
