G04*
G04 #@! TF.GenerationSoftware,Altium Limited,Altium Designer,18.1.9 (240)*
G04*
G04 Layer_Color=128*
%FSLAX25Y25*%
%MOIN*%
G70*
G01*
G75*
%ADD70C,0.00200*%
D70*
X527728Y295500D02*
X531272D01*
X529500Y293728D02*
Y297272D01*
X527728Y305500D02*
X531272D01*
X529500Y303728D02*
Y307272D01*
X527728Y315500D02*
X531272D01*
X529500Y313728D02*
Y317272D01*
X527728Y325500D02*
X531272D01*
X529500Y323728D02*
Y327272D01*
X527728Y335500D02*
X531272D01*
X529500Y333728D02*
Y337272D01*
X358744Y384500D02*
X364256D01*
X361500Y381744D02*
Y387256D01*
X378744Y384500D02*
X384256D01*
X381500Y381744D02*
Y387256D01*
X368744Y384500D02*
X374256D01*
X371500Y381744D02*
Y387256D01*
X497945Y262500D02*
X501488D01*
X499717Y260728D02*
Y264272D01*
X487945Y262500D02*
X491489D01*
X489717Y260728D02*
Y264272D01*
X477945Y262500D02*
X481489D01*
X479717Y260728D02*
Y264272D01*
X311728Y359500D02*
X315272D01*
X313500Y357728D02*
Y361272D01*
X311728Y369500D02*
X315272D01*
X313500Y367728D02*
Y371272D01*
X311728Y299000D02*
X315272D01*
X313500Y297228D02*
Y300772D01*
X311728Y309000D02*
X315272D01*
X313500Y307228D02*
Y310772D01*
X311728Y319000D02*
X315272D01*
X313500Y317228D02*
Y320772D01*
X407250Y398000D02*
X408750D01*
X408000Y397250D02*
Y398750D01*
X333250Y398500D02*
X334750D01*
X334000Y397750D02*
Y399250D01*
X503750Y361500D02*
X505250D01*
X504500Y360750D02*
Y362250D01*
X534400Y390000D02*
X535600D01*
X535000Y389400D02*
Y390600D01*
X529400Y380000D02*
X530600D01*
X530000Y379400D02*
Y380600D01*
X534400Y370000D02*
X535600D01*
X535000Y369400D02*
Y370600D01*
X529400Y360000D02*
X530600D01*
X530000Y359400D02*
Y360600D01*
X534400Y350000D02*
X535600D01*
X535000Y349400D02*
Y350600D01*
X534400Y330000D02*
X535600D01*
X535000Y329400D02*
Y330600D01*
X534400Y310000D02*
X535600D01*
X535000Y309400D02*
Y310600D01*
X534400Y290000D02*
X535600D01*
X535000Y289400D02*
Y290600D01*
X529400Y280000D02*
X530600D01*
X530000Y279400D02*
Y280600D01*
X534400Y270000D02*
X535600D01*
X535000Y269400D02*
Y270600D01*
X529400Y260000D02*
X530600D01*
X530000Y259400D02*
Y260600D01*
X524400Y390000D02*
X525600D01*
X525000Y389400D02*
Y390600D01*
X519400Y380000D02*
X520600D01*
X520000Y379400D02*
Y380600D01*
X524400Y370000D02*
X525600D01*
X525000Y369400D02*
Y370600D01*
X519400Y360000D02*
X520600D01*
X520000Y359400D02*
Y360600D01*
X524400Y350000D02*
X525600D01*
X525000Y349400D02*
Y350600D01*
X519400Y340000D02*
X520600D01*
X520000Y339400D02*
Y340600D01*
X524400Y290000D02*
X525600D01*
X525000Y289400D02*
Y290600D01*
X514400Y390000D02*
X515600D01*
X515000Y389400D02*
Y390600D01*
X509400Y380000D02*
X510600D01*
X510000Y379400D02*
Y380600D01*
X514400Y370000D02*
X515600D01*
X515000Y369400D02*
Y370600D01*
X509400Y360000D02*
X510600D01*
X510000Y359400D02*
Y360600D01*
X514400Y350000D02*
X515600D01*
X515000Y349400D02*
Y350600D01*
X509400Y340000D02*
X510600D01*
X510000Y339400D02*
Y340600D01*
X509400Y280000D02*
X510600D01*
X510000Y279400D02*
Y280600D01*
X514400Y270000D02*
X515600D01*
X515000Y269400D02*
Y270600D01*
X509400Y260000D02*
X510600D01*
X510000Y259400D02*
Y260600D01*
X504400Y390000D02*
X505600D01*
X505000Y389400D02*
Y390600D01*
X499400Y380000D02*
X500600D01*
X500000Y379400D02*
Y380600D01*
X504400Y370000D02*
X505600D01*
X505000Y369400D02*
Y370600D01*
X504400Y350000D02*
X505600D01*
X505000Y349400D02*
Y350600D01*
X499400Y340000D02*
X500600D01*
X500000Y339400D02*
Y340600D01*
X504400Y270000D02*
X505600D01*
X505000Y269400D02*
Y270600D01*
X494400Y390000D02*
X495600D01*
X495000Y389400D02*
Y390600D01*
X489400Y380000D02*
X490600D01*
X490000Y379400D02*
Y380600D01*
X494400Y370000D02*
X495600D01*
X495000Y369400D02*
Y370600D01*
X494400Y350000D02*
X495600D01*
X495000Y349400D02*
Y350600D01*
X489400Y340000D02*
X490600D01*
X490000Y339400D02*
Y340600D01*
X494400Y310000D02*
X495600D01*
X495000Y309400D02*
Y310600D01*
X494400Y270000D02*
X495600D01*
X495000Y269400D02*
Y270600D01*
X484400Y390000D02*
X485600D01*
X485000Y389400D02*
Y390600D01*
X479400Y380000D02*
X480600D01*
X480000Y379400D02*
Y380600D01*
X484400Y370000D02*
X485600D01*
X485000Y369400D02*
Y370600D01*
X484400Y350000D02*
X485600D01*
X485000Y349400D02*
Y350600D01*
X484400Y270000D02*
X485600D01*
X485000Y269400D02*
Y270600D01*
X474400Y390000D02*
X475600D01*
X475000Y389400D02*
Y390600D01*
X474400Y370000D02*
X475600D01*
X475000Y369400D02*
Y370600D01*
X474400Y270000D02*
X475600D01*
X475000Y269400D02*
Y270600D01*
X469400Y260000D02*
X470600D01*
X470000Y259400D02*
Y260600D01*
X464400Y390000D02*
X465600D01*
X465000Y389400D02*
Y390600D01*
X459400Y360000D02*
X460600D01*
X460000Y359400D02*
Y360600D01*
X464400Y330000D02*
X465600D01*
X465000Y329400D02*
Y330600D01*
X464400Y270000D02*
X465600D01*
X465000Y269400D02*
Y270600D01*
X459400Y260000D02*
X460600D01*
X460000Y259400D02*
Y260600D01*
X454400Y390000D02*
X455600D01*
X455000Y389400D02*
Y390600D01*
X454400Y370000D02*
X455600D01*
X455000Y369400D02*
Y370600D01*
X449400Y340000D02*
X450600D01*
X450000Y339400D02*
Y340600D01*
X454400Y270000D02*
X455600D01*
X455000Y269400D02*
Y270600D01*
X449400Y260000D02*
X450600D01*
X450000Y259400D02*
Y260600D01*
X439400Y280000D02*
X440600D01*
X440000Y279400D02*
Y280600D01*
X444400Y270000D02*
X445600D01*
X445000Y269400D02*
Y270600D01*
X439400Y260000D02*
X440600D01*
X440000Y259400D02*
Y260600D01*
X434400Y270000D02*
X435600D01*
X435000Y269400D02*
Y270600D01*
X429400Y260000D02*
X430600D01*
X430000Y259400D02*
Y260600D01*
X424400Y390000D02*
X425600D01*
X425000Y389400D02*
Y390600D01*
X419400Y380000D02*
X420600D01*
X420000Y379400D02*
Y380600D01*
X424400Y270000D02*
X425600D01*
X425000Y269400D02*
Y270600D01*
X419400Y260000D02*
X420600D01*
X420000Y259400D02*
Y260600D01*
X414400Y390000D02*
X415600D01*
X415000Y389400D02*
Y390600D01*
X414400Y310000D02*
X415600D01*
X415000Y309400D02*
Y310600D01*
X414400Y290000D02*
X415600D01*
X415000Y289400D02*
Y290600D01*
X414400Y270000D02*
X415600D01*
X415000Y269400D02*
Y270600D01*
X399400Y300000D02*
X400600D01*
X400000Y299400D02*
Y300600D01*
X404400Y290000D02*
X405600D01*
X405000Y289400D02*
Y290600D01*
X394400Y390000D02*
X395600D01*
X395000Y389400D02*
Y390600D01*
X394400Y330000D02*
X395600D01*
X395000Y329400D02*
Y330600D01*
X384400Y370000D02*
X385600D01*
X385000Y369400D02*
Y370600D01*
X379400Y280000D02*
X380600D01*
X380000Y279400D02*
Y280600D01*
X379400Y260000D02*
X380600D01*
X380000Y259400D02*
Y260600D01*
X374400Y270000D02*
X375600D01*
X375000Y269400D02*
Y270600D01*
X369400Y260000D02*
X370600D01*
X370000Y259400D02*
Y260600D01*
X364400Y270000D02*
X365600D01*
X365000Y269400D02*
Y270600D01*
X359400Y260000D02*
X360600D01*
X360000Y259400D02*
Y260600D01*
X349400Y380000D02*
X350600D01*
X350000Y379400D02*
Y380600D01*
X349400Y260000D02*
X350600D01*
X350000Y259400D02*
Y260600D01*
X344400Y390000D02*
X345600D01*
X345000Y389400D02*
Y390600D01*
X339400Y380000D02*
X340600D01*
X340000Y379400D02*
Y380600D01*
X329400Y380000D02*
X330600D01*
X330000Y379400D02*
Y380600D01*
X324400Y390000D02*
X325600D01*
X325000Y389400D02*
Y390600D01*
X319400Y380000D02*
X320600D01*
X320000Y379400D02*
Y380600D01*
X319400Y260000D02*
X320600D01*
X320000Y259400D02*
Y260600D01*
X309400Y380000D02*
X310600D01*
X310000Y379400D02*
Y380600D01*
X314400Y350000D02*
X315600D01*
X315000Y349400D02*
Y350600D01*
X309400Y340000D02*
X310600D01*
X310000Y339400D02*
Y340600D01*
X309400Y280000D02*
X310600D01*
X310000Y279400D02*
Y280600D01*
X314400Y270000D02*
X315600D01*
X315000Y269400D02*
Y270600D01*
X309400Y260000D02*
X310600D01*
X310000Y259400D02*
Y260600D01*
X375681Y331000D02*
X377181D01*
X376431Y330250D02*
Y331750D01*
X379822Y367822D02*
X381822D01*
X380822Y366822D02*
Y368822D01*
X344000Y365000D02*
X346000D01*
X345000Y364000D02*
Y366000D01*
X338868Y361118D02*
X340368D01*
X339618Y360368D02*
Y361868D01*
X375681Y338000D02*
X377181D01*
X376431Y337250D02*
Y338750D01*
X334868Y321618D02*
X336368D01*
X335618Y320868D02*
Y322368D01*
X334868Y291118D02*
X336368D01*
X335618Y290368D02*
Y291868D01*
X341500Y300321D02*
X345500D01*
X343500Y298321D02*
Y302321D01*
X341500Y312017D02*
X345500D01*
X343500Y310017D02*
Y314017D01*
X341500Y329500D02*
X345500D01*
X343500Y327500D02*
Y331500D01*
X341500Y341941D02*
X345500D01*
X343500Y339941D02*
Y343941D01*
X515797Y261953D02*
X517297D01*
X516546Y261204D02*
Y262703D01*
X449860Y388610D02*
X451360D01*
X450610Y387860D02*
Y389360D01*
X475239Y282989D02*
X476739D01*
X475989Y282239D02*
Y283739D01*
X498250Y297500D02*
X499750D01*
X499000Y296750D02*
Y298250D01*
X343750Y263000D02*
X345250D01*
X344500Y262250D02*
Y263750D01*
X486250Y309000D02*
X487750D01*
X487000Y308250D02*
Y309750D01*
X505180Y331989D02*
X506680D01*
X505930Y331239D02*
Y332739D01*
X513456Y289000D02*
X514956D01*
X514206Y288250D02*
Y289750D01*
X456445Y308195D02*
X457945D01*
X457195Y307445D02*
Y308945D01*
X477525Y327500D02*
X479025D01*
X478275Y326750D02*
Y328250D01*
X381750Y327017D02*
X383250D01*
X382500Y326267D02*
Y327767D01*
X426750Y381000D02*
X428250D01*
X427500Y380250D02*
Y381750D01*
X467956Y329000D02*
X469456D01*
X468706Y328250D02*
Y329750D01*
X365782Y323468D02*
X367282D01*
X366532Y322718D02*
Y324218D01*
X322500Y353000D02*
X326500D01*
X324500Y351000D02*
Y355000D01*
X322500Y336941D02*
X326500D01*
X324500Y334941D02*
Y338941D01*
X322500Y307000D02*
X326500D01*
X324500Y305000D02*
Y309000D01*
X322500Y276500D02*
X326500D01*
X324500Y274500D02*
Y278500D01*
X322500Y291500D02*
X326500D01*
X324500Y289500D02*
Y293500D01*
X322500Y321000D02*
X326500D01*
X324500Y319000D02*
Y323000D01*
X362250Y273500D02*
X363750D01*
X363000Y272750D02*
Y274250D01*
X362250Y280500D02*
X363750D01*
X363000Y279750D02*
Y281250D01*
X468456Y348500D02*
X469956D01*
X469206Y347750D02*
Y349250D01*
X461250Y348500D02*
X462750D01*
X462000Y347750D02*
Y349250D01*
X485250Y282500D02*
X486750D01*
X486000Y281750D02*
Y283250D01*
X490250Y288000D02*
X491750D01*
X491000Y287250D02*
Y288750D01*
X473086Y311000D02*
X474586D01*
X473836Y310250D02*
Y311750D01*
X473250Y318038D02*
X474750D01*
X474000Y317288D02*
Y318788D01*
X413250Y365500D02*
X414750D01*
X414000Y364750D02*
Y366250D01*
X408250Y338500D02*
X409750D01*
X409000Y337750D02*
Y339250D01*
X407559Y350000D02*
X409059D01*
X408309Y349250D02*
Y350750D01*
X362875Y310625D02*
X364375D01*
X363625Y309875D02*
Y311375D01*
X363000Y304267D02*
X364500D01*
X363750Y303517D02*
Y305017D01*
M02*
