G04*
G04 #@! TF.GenerationSoftware,Altium Limited,Altium Designer,18.1.9 (240)*
G04*
G04 Layer_Color=8421504*
%FSLAX25Y25*%
%MOIN*%
G70*
G01*
G75*
%ADD17R,0.04331X0.11024*%
%ADD18R,0.11024X0.04331*%
%ADD19R,0.06697X0.04754*%
%ADD20O,0.08014X0.02260*%
%ADD21R,0.07874X0.04724*%
%ADD22R,0.09055X0.14961*%
%ADD23R,0.03000X0.03000*%
%ADD24R,0.03175X0.03402*%
%ADD25R,0.03150X0.03150*%
%ADD26R,0.06693X0.04331*%
%ADD27R,0.05118X0.01181*%
%ADD28R,0.03402X0.03175*%
%ADD29R,0.03543X0.03150*%
%ADD30R,0.03150X0.03150*%
%ADD31R,0.03150X0.03543*%
%ADD32R,0.03000X0.03000*%
%ADD33O,0.09291X0.02343*%
G36*
X378367Y318592D02*
Y315442D01*
X378170Y315245D01*
X375021D01*
X374824Y315442D01*
Y316395D01*
X376280D01*
Y317694D01*
X374824D01*
Y318592D01*
X375021Y318789D01*
X378170D01*
X378367Y318592D01*
D02*
G37*
G36*
X372068D02*
Y317694D01*
X370572D01*
Y316395D01*
X372068D01*
Y315442D01*
X371871Y315245D01*
X368761D01*
X368564Y315442D01*
Y318592D01*
X368761Y318789D01*
X371871D01*
X372068Y318592D01*
D02*
G37*
G36*
X378367Y308592D02*
Y305442D01*
X378170Y305245D01*
X375021D01*
X374824Y305442D01*
Y306395D01*
X376280D01*
Y307694D01*
X374824D01*
Y308592D01*
X375021Y308789D01*
X378170D01*
X378367Y308592D01*
D02*
G37*
G36*
X372068D02*
Y307694D01*
X370572D01*
Y306395D01*
X372068D01*
Y305442D01*
X371871Y305245D01*
X368761D01*
X368564Y305442D01*
Y308592D01*
X368761Y308789D01*
X371871D01*
X372068Y308592D01*
D02*
G37*
G36*
X378367Y298592D02*
Y295442D01*
X378170Y295245D01*
X375021D01*
X374824Y295442D01*
Y296395D01*
X376280D01*
Y297694D01*
X374824D01*
Y298592D01*
X375021Y298789D01*
X378170D01*
X378367Y298592D01*
D02*
G37*
G36*
X372068D02*
Y297694D01*
X370572D01*
Y296395D01*
X372068D01*
Y295442D01*
X371871Y295245D01*
X368761D01*
X368564Y295442D01*
Y298592D01*
X368761Y298789D01*
X371871D01*
X372068Y298592D01*
D02*
G37*
G36*
X378367Y288592D02*
Y285442D01*
X378170Y285245D01*
X375021D01*
X374824Y285442D01*
Y286395D01*
X376280D01*
Y287694D01*
X374824D01*
Y288592D01*
X375021Y288789D01*
X378170D01*
X378367Y288592D01*
D02*
G37*
G36*
X372068D02*
Y287694D01*
X370572D01*
Y286395D01*
X372068D01*
Y285442D01*
X371871Y285245D01*
X368761D01*
X368564Y285442D01*
Y288592D01*
X368761Y288789D01*
X371871D01*
X372068Y288592D01*
D02*
G37*
G36*
X404902Y259882D02*
Y256732D01*
X404705Y256535D01*
X401555D01*
X401358Y256732D01*
Y257685D01*
X402815D01*
Y258984D01*
X401358D01*
Y259882D01*
X401555Y260079D01*
X404705D01*
X404902Y259882D01*
D02*
G37*
G36*
X398602D02*
Y258984D01*
X397106D01*
Y257685D01*
X398602D01*
Y256732D01*
X398406Y256535D01*
X395295D01*
X395098Y256732D01*
Y259882D01*
X395295Y260079D01*
X398406D01*
X398602Y259882D01*
D02*
G37*
G36*
X354436Y403075D02*
Y399925D01*
X354239Y399728D01*
X351090D01*
X350893Y399925D01*
Y400878D01*
X352349D01*
Y402177D01*
X350893D01*
Y403075D01*
X351090Y403272D01*
X354239D01*
X354436Y403075D01*
D02*
G37*
G36*
X348137D02*
Y402177D01*
X346641D01*
Y400878D01*
X348137D01*
Y399925D01*
X347940Y399728D01*
X344830D01*
X344633Y399925D01*
Y403075D01*
X344830Y403272D01*
X347940D01*
X348137Y403075D01*
D02*
G37*
G36*
X355848Y369805D02*
Y365839D01*
X355455Y365445D01*
X354032D01*
X353639Y365839D01*
Y366668D01*
X353245Y367061D01*
X351755D01*
X351361Y366668D01*
Y365839D01*
X350968Y365445D01*
X349545D01*
X349152Y365839D01*
Y369805D01*
X349545Y370199D01*
X355455D01*
X355848Y369805D01*
D02*
G37*
G36*
X377348Y369805D02*
Y365839D01*
X376955Y365445D01*
X375532D01*
X375138Y365839D01*
Y366668D01*
X374745Y367061D01*
X373255D01*
X372862Y366668D01*
Y365839D01*
X372468Y365445D01*
X371045D01*
X370652Y365839D01*
Y369805D01*
X371045Y370199D01*
X376955D01*
X377348Y369805D01*
D02*
G37*
G36*
X366848D02*
Y365839D01*
X366455Y365445D01*
X365032D01*
X364638Y365839D01*
Y366668D01*
X364245Y367061D01*
X362755D01*
X362362Y366668D01*
Y365839D01*
X361968Y365445D01*
X360545D01*
X360152Y365839D01*
Y369805D01*
X360545Y370199D01*
X366455D01*
X366848Y369805D01*
D02*
G37*
G36*
X355848Y358161D02*
Y354195D01*
X355455Y353801D01*
X349545D01*
X349152Y354195D01*
Y358161D01*
X349545Y358555D01*
X350968D01*
X351361Y358161D01*
Y357332D01*
X351755Y356939D01*
X353245D01*
X353639Y357332D01*
Y358161D01*
X354032Y358555D01*
X355455D01*
X355848Y358161D01*
D02*
G37*
G36*
X377348Y358161D02*
Y354195D01*
X376955Y353801D01*
X371045D01*
X370652Y354195D01*
Y358161D01*
X371045Y358555D01*
X372468D01*
X372862Y358161D01*
Y357332D01*
X373255Y356939D01*
X374745D01*
X375138Y357332D01*
Y358161D01*
X375532Y358555D01*
X376955D01*
X377348Y358161D01*
D02*
G37*
G36*
X366848D02*
Y354195D01*
X366455Y353801D01*
X360545D01*
X360152Y354195D01*
Y358161D01*
X360545Y358555D01*
X361968D01*
X362362Y358161D01*
Y357332D01*
X362755Y356939D01*
X364245D01*
X364638Y357332D01*
Y358161D01*
X365032Y358555D01*
X366455D01*
X366848Y358161D01*
D02*
G37*
G36*
X406367Y351575D02*
Y348425D01*
X406170Y348228D01*
X403021D01*
X402824Y348425D01*
Y349378D01*
X404281D01*
Y350677D01*
X402824D01*
Y351575D01*
X403021Y351772D01*
X406170D01*
X406367Y351575D01*
D02*
G37*
G36*
X400068D02*
Y350677D01*
X398572D01*
Y349378D01*
X400068D01*
Y348425D01*
X399871Y348228D01*
X396761D01*
X396564Y348425D01*
Y351575D01*
X396761Y351772D01*
X399871D01*
X400068Y351575D01*
D02*
G37*
G36*
X420054D02*
Y348425D01*
X419857Y348228D01*
X416708D01*
X416511Y348425D01*
Y349378D01*
X417968D01*
Y350677D01*
X416511D01*
Y351575D01*
X416708Y351772D01*
X419857D01*
X420054Y351575D01*
D02*
G37*
G36*
X413755D02*
Y350677D01*
X412259D01*
Y349378D01*
X413755D01*
Y348425D01*
X413558Y348228D01*
X410448D01*
X410251Y348425D01*
Y351575D01*
X410448Y351772D01*
X413558D01*
X413755Y351575D01*
D02*
G37*
G36*
X486142Y342134D02*
Y338984D01*
X485945Y338787D01*
X482835D01*
X482638Y338984D01*
Y339881D01*
X484134D01*
Y341181D01*
X482638D01*
Y342134D01*
X482835Y342330D01*
X485945D01*
X486142Y342134D01*
D02*
G37*
G36*
X479882D02*
Y341181D01*
X478425D01*
Y339881D01*
X479882D01*
Y338984D01*
X479685Y338787D01*
X476536D01*
X476339Y338984D01*
Y342134D01*
X476536Y342330D01*
X479685D01*
X479882Y342134D01*
D02*
G37*
G36*
X461977Y341670D02*
Y338560D01*
X461781Y338363D01*
X460883D01*
Y339859D01*
X459584D01*
Y338363D01*
X458631D01*
X458434Y338560D01*
Y341670D01*
X458631Y341867D01*
X461781D01*
X461977Y341670D01*
D02*
G37*
G36*
Y335410D02*
Y332261D01*
X461781Y332064D01*
X458631D01*
X458434Y332261D01*
Y335410D01*
X458631Y335607D01*
X459584D01*
Y334151D01*
X460883D01*
Y335607D01*
X461781D01*
X461977Y335410D01*
D02*
G37*
G36*
X486142Y333633D02*
Y330484D01*
X485945Y330287D01*
X482795D01*
X482599Y330484D01*
Y331437D01*
X484055D01*
Y332736D01*
X482599D01*
Y333633D01*
X482795Y333830D01*
X485945D01*
X486142Y333633D01*
D02*
G37*
G36*
X479843D02*
Y332736D01*
X478347D01*
Y331437D01*
X479843D01*
Y330484D01*
X479646Y330287D01*
X476536D01*
X476339Y330484D01*
Y333633D01*
X476536Y333830D01*
X479646D01*
X479843Y333633D01*
D02*
G37*
G36*
X439272Y329687D02*
Y326538D01*
X439075Y326341D01*
X438122D01*
Y327798D01*
X436823D01*
Y326341D01*
X435925D01*
X435728Y326538D01*
Y329687D01*
X435925Y329884D01*
X439075D01*
X439272Y329687D01*
D02*
G37*
G36*
Y323388D02*
Y320278D01*
X439075Y320081D01*
X435925D01*
X435728Y320278D01*
Y323388D01*
X435925Y323585D01*
X436823D01*
Y322089D01*
X438122D01*
Y323585D01*
X439075D01*
X439272Y323388D01*
D02*
G37*
G36*
X462142Y320124D02*
Y316974D01*
X461945Y316777D01*
X458835D01*
X458638Y316974D01*
Y317871D01*
X460134D01*
Y319171D01*
X458638D01*
Y320124D01*
X458835Y320320D01*
X461945D01*
X462142Y320124D01*
D02*
G37*
G36*
X455882D02*
Y319171D01*
X454425D01*
Y317871D01*
X455882D01*
Y316974D01*
X455685Y316777D01*
X452535D01*
X452339Y316974D01*
Y320124D01*
X452535Y320320D01*
X455685D01*
X455882Y320124D01*
D02*
G37*
G36*
X444648Y313575D02*
Y310425D01*
X444451Y310228D01*
X441301D01*
X441104Y310425D01*
Y311378D01*
X442561D01*
Y312677D01*
X441104D01*
Y313575D01*
X441301Y313772D01*
X444451D01*
X444648Y313575D01*
D02*
G37*
G36*
X438348D02*
Y312677D01*
X436852D01*
Y311378D01*
X438348D01*
Y310425D01*
X438152Y310228D01*
X435041D01*
X434844Y310425D01*
Y313575D01*
X435041Y313772D01*
X438152D01*
X438348Y313575D01*
D02*
G37*
G36*
X464642Y290075D02*
Y286925D01*
X464445Y286728D01*
X461296D01*
X461099Y286925D01*
Y287878D01*
X462555D01*
Y289177D01*
X461099D01*
Y290075D01*
X461296Y290272D01*
X464445D01*
X464642Y290075D01*
D02*
G37*
G36*
X458343D02*
Y289177D01*
X456847D01*
Y287878D01*
X458343D01*
Y286925D01*
X458146Y286728D01*
X455036D01*
X454839Y286925D01*
Y290075D01*
X455036Y290272D01*
X458146D01*
X458343Y290075D01*
D02*
G37*
G36*
X464642Y280575D02*
Y277425D01*
X464445Y277228D01*
X461296D01*
X461099Y277425D01*
Y278378D01*
X462555D01*
Y279677D01*
X461099D01*
Y280575D01*
X461296Y280772D01*
X464445D01*
X464642Y280575D01*
D02*
G37*
G36*
X458343D02*
Y279677D01*
X456847D01*
Y278378D01*
X458343D01*
Y277425D01*
X458146Y277228D01*
X455036D01*
X454839Y277425D01*
Y280575D01*
X455036Y280772D01*
X458146D01*
X458343Y280575D01*
D02*
G37*
G36*
X523272Y269624D02*
Y266474D01*
X523075Y266277D01*
X522122D01*
Y267734D01*
X520823D01*
Y266277D01*
X519925D01*
X519728Y266474D01*
Y269624D01*
X519925Y269821D01*
X523075D01*
X523272Y269624D01*
D02*
G37*
G36*
Y263325D02*
Y260214D01*
X523075Y260017D01*
X519925D01*
X519728Y260214D01*
Y263325D01*
X519925Y263521D01*
X520823D01*
Y262025D01*
X522122D01*
Y263521D01*
X523075D01*
X523272Y263325D01*
D02*
G37*
D17*
X334000Y376774D02*
D03*
Y389848D02*
D03*
X408000Y375774D02*
D03*
Y388848D02*
D03*
D18*
X481963Y361500D02*
D03*
X495037D02*
D03*
D19*
X363500Y356178D02*
D03*
Y367822D02*
D03*
X374000Y356178D02*
D03*
Y367822D02*
D03*
X352500Y356178D02*
D03*
Y367822D02*
D03*
D20*
X354293Y302000D02*
D03*
Y307000D02*
D03*
Y312000D02*
D03*
Y317000D02*
D03*
X332500Y302000D02*
D03*
Y307000D02*
D03*
Y312000D02*
D03*
Y317000D02*
D03*
X354397Y331941D02*
D03*
Y336941D02*
D03*
Y341941D02*
D03*
Y346941D02*
D03*
X332603Y331941D02*
D03*
Y336941D02*
D03*
Y341941D02*
D03*
Y346941D02*
D03*
X333103Y286500D02*
D03*
Y281500D02*
D03*
Y276500D02*
D03*
Y271500D02*
D03*
X354897Y286500D02*
D03*
Y281500D02*
D03*
Y276500D02*
D03*
Y271500D02*
D03*
D21*
X441000Y388555D02*
D03*
Y370445D02*
D03*
Y379500D02*
D03*
D22*
X466000D02*
D03*
D23*
X335618Y295000D02*
D03*
X330500D02*
D03*
X338059Y263000D02*
D03*
X332941D02*
D03*
X335618Y325000D02*
D03*
X330500D02*
D03*
X399941Y335807D02*
D03*
X405059D02*
D03*
X418118Y335824D02*
D03*
X413000D02*
D03*
X402965Y271693D02*
D03*
X397847D02*
D03*
X334500Y357000D02*
D03*
X339618D02*
D03*
X371313Y323468D02*
D03*
X376431D02*
D03*
D24*
X352500Y401500D02*
D03*
X346569D02*
D03*
X398500Y350000D02*
D03*
X404431D02*
D03*
X412187D02*
D03*
X418118D02*
D03*
X484206Y340559D02*
D03*
X478275D02*
D03*
X478275Y332059D02*
D03*
X484206D02*
D03*
X460206Y318549D02*
D03*
X454275D02*
D03*
X456775Y279000D02*
D03*
X462706D02*
D03*
X436781Y312000D02*
D03*
X442711D02*
D03*
X370500Y317017D02*
D03*
X376431D02*
D03*
X370500Y307017D02*
D03*
X376431D02*
D03*
X370500Y297017D02*
D03*
X376431D02*
D03*
X370500Y287017D02*
D03*
X376431D02*
D03*
X397035Y258307D02*
D03*
X402965D02*
D03*
X456775Y288500D02*
D03*
X462706D02*
D03*
D25*
X369700Y401500D02*
D03*
X363000D02*
D03*
D26*
X426622Y335824D02*
D03*
Y349210D02*
D03*
X389000Y335807D02*
D03*
Y349193D02*
D03*
X389378Y271693D02*
D03*
Y258307D02*
D03*
D27*
X504544Y323943D02*
D03*
Y321975D02*
D03*
Y320006D02*
D03*
Y318038D02*
D03*
Y316069D02*
D03*
Y314101D02*
D03*
Y312132D02*
D03*
Y310164D02*
D03*
Y308195D02*
D03*
Y306227D02*
D03*
Y304258D02*
D03*
Y302290D02*
D03*
Y300321D02*
D03*
Y298353D02*
D03*
X504549Y296389D02*
D03*
X504542Y294408D02*
D03*
Y292446D02*
D03*
X504545Y290474D02*
D03*
X504542Y288509D02*
D03*
X481706Y288506D02*
D03*
Y290475D02*
D03*
Y292443D02*
D03*
Y294412D02*
D03*
Y296380D02*
D03*
Y298349D02*
D03*
Y300317D02*
D03*
Y302286D02*
D03*
Y304254D02*
D03*
Y306223D02*
D03*
Y308191D02*
D03*
Y310160D02*
D03*
Y312128D02*
D03*
Y314097D02*
D03*
Y316065D02*
D03*
X481708Y318034D02*
D03*
X481706Y320000D02*
D03*
Y321971D02*
D03*
X481716Y323949D02*
D03*
D28*
X460206Y339931D02*
D03*
Y334000D02*
D03*
X521500Y261953D02*
D03*
Y267884D02*
D03*
X437500Y322017D02*
D03*
Y327948D02*
D03*
D29*
X468706Y334420D02*
D03*
Y339931D02*
D03*
Y323949D02*
D03*
Y318438D02*
D03*
X471206Y288500D02*
D03*
Y282989D02*
D03*
X514206Y300321D02*
D03*
Y294810D02*
D03*
X513500Y326478D02*
D03*
Y331989D02*
D03*
D30*
X521500Y276535D02*
D03*
Y283235D02*
D03*
X447206Y285700D02*
D03*
Y279000D02*
D03*
D31*
X463695Y308195D02*
D03*
X469206D02*
D03*
X499717Y331989D02*
D03*
X494206D02*
D03*
D32*
X427500Y370500D02*
D03*
Y375618D02*
D03*
D33*
X426622Y282017D02*
D03*
Y287017D02*
D03*
Y292017D02*
D03*
Y297017D02*
D03*
Y302017D02*
D03*
Y307017D02*
D03*
Y312017D02*
D03*
Y317017D02*
D03*
Y322017D02*
D03*
Y327017D02*
D03*
X389378Y282017D02*
D03*
Y287017D02*
D03*
Y292017D02*
D03*
Y297017D02*
D03*
Y302017D02*
D03*
Y307017D02*
D03*
Y312017D02*
D03*
Y317017D02*
D03*
Y322017D02*
D03*
Y327017D02*
D03*
M02*
