M48
;Layer_Color=9474304
;FILE_FORMAT=2:5
INCH,LZ
;TYPE=PLATED
T1F00S00C0.01200
T2F00S00C0.01500
T3F00S00C0.02000
T4F00S00C0.03543
T5F00S00C0.04000
T6F00S00C0.05512
%
T01
X047Y026
X0475Y027
X0485
X0495
X0505
X0515
X051Y028
X053
X0535Y029
X0525
X0535Y031
Y027
X053Y026
X051
X0495Y031
X0465Y027
X0455
X0445
X0435
X0425
X0415
X042Y026
X043
X044
X045
X046
X044Y028
X0415Y029
X0405
X04Y03
X0415Y031
X038Y028
X0375Y027
X0365
X037Y026
X038
X036
X035
X032
X0315Y027
X031Y028
Y026
Y034
Y038
X032
X033
X034
X035
X0345Y039
X0325
X0315Y035
X0385Y037
X0395Y039
X0415
X0425
X042Y038
X0455Y039
X0465
X0455Y037
X046Y036
X045Y034
X0465Y033
X0395
X049Y034
X05
X051
X052
X0525Y035
X0535
X053Y036
X052
X051
X0515Y037
X0525
X0535
X053Y038
X052
X051
X05
X049
X048
X0485Y039
X0495
X0505
X0515
X0525
X0535
X0505Y037
X0495
X0485
X0475
Y039
X0485Y035
X0495
X0505
X0515
X0535Y033
T02
X0475989Y0282989
X0486Y02825
X0491Y0288
X0499Y02975
X0487Y0309
X0473836Y0311
X0514206Y0289
X0516546Y0261953
X0457195Y0308195
X0363625Y0310625
X036375Y0304267
X0363Y02805
Y02735
X03445Y0263
X0335618Y0291118
Y0321618
X0366532Y0323468
X0376431Y0331
Y0338
X03825Y0327017
X0409Y03385
X0408309Y035
X0414Y03655
X04275Y0381
X045061Y038861
X0462Y03485
X0468706Y0329
X0408Y0398
X0334Y03985
X0339618Y0361118
X0469206Y03485
X0478275Y03275
X0474Y0318038
X050593Y0331989
X05045Y03615
T03
X0345Y0365
X0380822Y0367822
T04
X0479717Y02625
X0489717
X0499717
X05295Y02955
Y03055
X03135Y0309
Y0299
Y0319
Y03595
Y03695
X05295Y03355
Y03255
Y03155
T05
X03245Y02765
Y02915
Y0307
X03435Y0312017
Y0300321
Y03295
Y0341941
X03245Y0336941
Y0321
Y0353
T06
X03615Y03845
X03715
X03815
M30
