G04*
G04 #@! TF.GenerationSoftware,Altium Limited,Altium Designer,18.1.9 (240)*
G04*
G04 Layer_Physical_Order=1*
G04 Layer_Color=255*
%FSLAX25Y25*%
%MOIN*%
G70*
G01*
G75*
%ADD12C,0.01000*%
%ADD17R,0.04331X0.11024*%
%ADD18R,0.11024X0.04331*%
%ADD19R,0.06697X0.04754*%
%ADD20O,0.08014X0.02260*%
%ADD21R,0.07874X0.04724*%
%ADD22R,0.09055X0.14961*%
%ADD23R,0.03000X0.03000*%
%ADD24R,0.03175X0.03402*%
%ADD25R,0.03150X0.03150*%
%ADD26R,0.06693X0.04331*%
%ADD27R,0.05118X0.01181*%
%ADD28R,0.03402X0.03175*%
%ADD29R,0.03543X0.03150*%
%ADD30R,0.03150X0.03150*%
%ADD31R,0.03150X0.03543*%
%ADD32R,0.03000X0.03000*%
%ADD33O,0.09291X0.02343*%
%ADD56C,0.01500*%
%ADD57C,0.04000*%
%ADD58C,0.03000*%
%ADD59C,0.02000*%
%ADD60C,0.05906*%
%ADD61R,0.05906X0.05906*%
%ADD62R,0.07874X0.09843*%
%ADD63O,0.07874X0.09843*%
%ADD64R,0.05906X0.05906*%
%ADD65C,0.02000*%
%ADD66C,0.02400*%
%ADD67C,0.03000*%
%ADD68C,0.05000*%
G36*
X543500Y407500D02*
Y248000D01*
X304500D01*
X304500Y407500D01*
X543500D01*
X543500Y407500D01*
D02*
G37*
%LPC*%
G36*
X372275Y404075D02*
X370200D01*
Y402000D01*
X372275D01*
Y404075D01*
D02*
G37*
G36*
X369200D02*
X367125D01*
Y402000D01*
X369200D01*
Y404075D01*
D02*
G37*
G36*
X408500Y399940D02*
Y398500D01*
X409940D01*
X409884Y398780D01*
X409442Y399442D01*
X408780Y399884D01*
X408500Y399940D01*
D02*
G37*
G36*
X407500D02*
X407220Y399884D01*
X406558Y399442D01*
X406116Y398780D01*
X406060Y398500D01*
X407500D01*
Y399940D01*
D02*
G37*
G36*
X535500Y392144D02*
Y390500D01*
X537144D01*
X537072Y390858D01*
X536586Y391586D01*
X535858Y392072D01*
X535500Y392144D01*
D02*
G37*
G36*
X534500D02*
X534142Y392072D01*
X533414Y391586D01*
X532928Y390858D01*
X532856Y390500D01*
X534500D01*
Y392144D01*
D02*
G37*
G36*
X525500D02*
Y390500D01*
X527144D01*
X527072Y390858D01*
X526586Y391586D01*
X525858Y392072D01*
X525500Y392144D01*
D02*
G37*
G36*
X524500D02*
X524142Y392072D01*
X523414Y391586D01*
X522928Y390858D01*
X522856Y390500D01*
X524500D01*
Y392144D01*
D02*
G37*
G36*
X515500D02*
Y390500D01*
X517144D01*
X517072Y390858D01*
X516586Y391586D01*
X515858Y392072D01*
X515500Y392144D01*
D02*
G37*
G36*
X514500D02*
X514142Y392072D01*
X513414Y391586D01*
X512928Y390858D01*
X512856Y390500D01*
X514500D01*
Y392144D01*
D02*
G37*
G36*
X505500D02*
Y390500D01*
X507144D01*
X507072Y390858D01*
X506586Y391586D01*
X505858Y392072D01*
X505500Y392144D01*
D02*
G37*
G36*
X504500D02*
X504142Y392072D01*
X503414Y391586D01*
X502928Y390858D01*
X502856Y390500D01*
X504500D01*
Y392144D01*
D02*
G37*
G36*
X495500D02*
Y390500D01*
X497144D01*
X497072Y390858D01*
X496586Y391586D01*
X495858Y392072D01*
X495500Y392144D01*
D02*
G37*
G36*
X494500D02*
X494142Y392072D01*
X493414Y391586D01*
X492928Y390858D01*
X492856Y390500D01*
X494500D01*
Y392144D01*
D02*
G37*
G36*
X485500D02*
Y390500D01*
X487144D01*
X487072Y390858D01*
X486586Y391586D01*
X485858Y392072D01*
X485500Y392144D01*
D02*
G37*
G36*
X484500D02*
X484142Y392072D01*
X483414Y391586D01*
X482928Y390858D01*
X482856Y390500D01*
X484500D01*
Y392144D01*
D02*
G37*
G36*
X475500D02*
Y390500D01*
X477144D01*
X477072Y390858D01*
X476586Y391586D01*
X475858Y392072D01*
X475500Y392144D01*
D02*
G37*
G36*
X474500D02*
X474142Y392072D01*
X473414Y391586D01*
X472928Y390858D01*
X472856Y390500D01*
X474500D01*
Y392144D01*
D02*
G37*
G36*
X465500D02*
Y390500D01*
X467144D01*
X467072Y390858D01*
X466586Y391586D01*
X465858Y392072D01*
X465500Y392144D01*
D02*
G37*
G36*
X464500D02*
X464142Y392072D01*
X463414Y391586D01*
X462928Y390858D01*
X462856Y390500D01*
X464500D01*
Y392144D01*
D02*
G37*
G36*
X455500D02*
Y390500D01*
X457144D01*
X457072Y390858D01*
X456586Y391586D01*
X455858Y392072D01*
X455500Y392144D01*
D02*
G37*
G36*
X425500D02*
Y390500D01*
X427144D01*
X427072Y390858D01*
X426586Y391586D01*
X425858Y392072D01*
X425500Y392144D01*
D02*
G37*
G36*
X424500D02*
X424142Y392072D01*
X423414Y391586D01*
X422928Y390858D01*
X422856Y390500D01*
X424500D01*
Y392144D01*
D02*
G37*
G36*
X415500D02*
Y390500D01*
X417144D01*
X417072Y390858D01*
X416586Y391586D01*
X415858Y392072D01*
X415500Y392144D01*
D02*
G37*
G36*
X414500D02*
X414142Y392072D01*
X413414Y391586D01*
X412928Y390858D01*
X412856Y390500D01*
X414500D01*
Y392144D01*
D02*
G37*
G36*
X395500D02*
Y390500D01*
X397144D01*
X397072Y390858D01*
X396586Y391586D01*
X395858Y392072D01*
X395500Y392144D01*
D02*
G37*
G36*
X394500D02*
X394142Y392072D01*
X393414Y391586D01*
X392928Y390858D01*
X392856Y390500D01*
X394500D01*
Y392144D01*
D02*
G37*
G36*
X345500D02*
Y390500D01*
X347144D01*
X347072Y390858D01*
X346586Y391586D01*
X345858Y392072D01*
X345500Y392144D01*
D02*
G37*
G36*
X344500D02*
X344142Y392072D01*
X343414Y391586D01*
X342928Y390858D01*
X342856Y390500D01*
X344500D01*
Y392144D01*
D02*
G37*
G36*
X325500D02*
Y390500D01*
X327144D01*
X327072Y390858D01*
X326586Y391586D01*
X325858Y392072D01*
X325500Y392144D01*
D02*
G37*
G36*
X324500D02*
X324142Y392072D01*
X323414Y391586D01*
X322928Y390858D01*
X322856Y390500D01*
X324500D01*
Y392144D01*
D02*
G37*
G36*
X336039Y398000D02*
X331961D01*
Y396360D01*
X330835D01*
Y390348D01*
X334000D01*
X337165D01*
Y396360D01*
X336039D01*
Y398000D01*
D02*
G37*
G36*
X454500Y392144D02*
X454142Y392072D01*
X453414Y391586D01*
X452928Y390858D01*
X452757Y390000D01*
X452786Y389854D01*
X452315Y389659D01*
X452052Y390052D01*
X451391Y390494D01*
X451110Y390550D01*
Y388610D01*
Y386670D01*
X451391Y386726D01*
X452052Y387168D01*
X452494Y387830D01*
X452649Y388610D01*
X452636Y388678D01*
X453107Y388873D01*
X453414Y388414D01*
X454142Y387928D01*
X454500Y387856D01*
Y390000D01*
Y392144D01*
D02*
G37*
G36*
X410039Y397500D02*
X405961D01*
Y395360D01*
X404835D01*
Y389348D01*
X408000D01*
X411165D01*
Y395360D01*
X410039D01*
Y397500D01*
D02*
G37*
G36*
X440500Y391917D02*
X436063D01*
Y389055D01*
X440500D01*
Y391917D01*
D02*
G37*
G36*
X537144Y389500D02*
X535500D01*
Y387856D01*
X535858Y387928D01*
X536586Y388414D01*
X537072Y389142D01*
X537144Y389500D01*
D02*
G37*
G36*
X534500D02*
X532856D01*
X532928Y389142D01*
X533414Y388414D01*
X534142Y387928D01*
X534500Y387856D01*
Y389500D01*
D02*
G37*
G36*
X527144D02*
X525500D01*
Y387856D01*
X525858Y387928D01*
X526586Y388414D01*
X527072Y389142D01*
X527144Y389500D01*
D02*
G37*
G36*
X524500D02*
X522856D01*
X522928Y389142D01*
X523414Y388414D01*
X524142Y387928D01*
X524500Y387856D01*
Y389500D01*
D02*
G37*
G36*
X517144D02*
X515500D01*
Y387856D01*
X515858Y387928D01*
X516586Y388414D01*
X517072Y389142D01*
X517144Y389500D01*
D02*
G37*
G36*
X514500D02*
X512856D01*
X512928Y389142D01*
X513414Y388414D01*
X514142Y387928D01*
X514500Y387856D01*
Y389500D01*
D02*
G37*
G36*
X507144D02*
X505500D01*
Y387856D01*
X505858Y387928D01*
X506586Y388414D01*
X507072Y389142D01*
X507144Y389500D01*
D02*
G37*
G36*
X504500D02*
X502856D01*
X502928Y389142D01*
X503414Y388414D01*
X504142Y387928D01*
X504500Y387856D01*
Y389500D01*
D02*
G37*
G36*
X497144D02*
X495500D01*
Y387856D01*
X495858Y387928D01*
X496586Y388414D01*
X497072Y389142D01*
X497144Y389500D01*
D02*
G37*
G36*
X494500D02*
X492856D01*
X492928Y389142D01*
X493414Y388414D01*
X494142Y387928D01*
X494500Y387856D01*
Y389500D01*
D02*
G37*
G36*
X487144D02*
X485500D01*
Y387856D01*
X485858Y387928D01*
X486586Y388414D01*
X487072Y389142D01*
X487144Y389500D01*
D02*
G37*
G36*
X484500D02*
X482856D01*
X482928Y389142D01*
X483414Y388414D01*
X484142Y387928D01*
X484500Y387856D01*
Y389500D01*
D02*
G37*
G36*
X477144D02*
X475500D01*
Y387856D01*
X475858Y387928D01*
X476586Y388414D01*
X477072Y389142D01*
X477144Y389500D01*
D02*
G37*
G36*
X474500D02*
X472856D01*
X472928Y389142D01*
X473414Y388414D01*
X474142Y387928D01*
X474500Y387856D01*
Y389500D01*
D02*
G37*
G36*
X457144D02*
X455500D01*
Y387856D01*
X455858Y387928D01*
X456586Y388414D01*
X457072Y389142D01*
X457144Y389500D01*
D02*
G37*
G36*
X427144D02*
X425500D01*
Y387856D01*
X425858Y387928D01*
X426586Y388414D01*
X427072Y389142D01*
X427144Y389500D01*
D02*
G37*
G36*
X424500D02*
X422856D01*
X422928Y389142D01*
X423414Y388414D01*
X424142Y387928D01*
X424500Y387856D01*
Y389500D01*
D02*
G37*
G36*
X417144D02*
X415500D01*
Y387856D01*
X415858Y387928D01*
X416586Y388414D01*
X417072Y389142D01*
X417144Y389500D01*
D02*
G37*
G36*
X414500D02*
X412856D01*
X412928Y389142D01*
X413414Y388414D01*
X414142Y387928D01*
X414500Y387856D01*
Y389500D01*
D02*
G37*
G36*
X397144D02*
X395500D01*
Y387856D01*
X395858Y387928D01*
X396586Y388414D01*
X397072Y389142D01*
X397144Y389500D01*
D02*
G37*
G36*
X394500D02*
X392856D01*
X392928Y389142D01*
X393414Y388414D01*
X394142Y387928D01*
X394500Y387856D01*
Y389500D01*
D02*
G37*
G36*
X347144D02*
X345500D01*
Y387856D01*
X345858Y387928D01*
X346586Y388414D01*
X347072Y389142D01*
X347144Y389500D01*
D02*
G37*
G36*
X344500D02*
X342856D01*
X342928Y389142D01*
X343414Y388414D01*
X344142Y387928D01*
X344500Y387856D01*
Y389500D01*
D02*
G37*
G36*
X327144D02*
X325500D01*
Y387856D01*
X325858Y387928D01*
X326586Y388414D01*
X327072Y389142D01*
X327144Y389500D01*
D02*
G37*
G36*
X324500D02*
X322856D01*
X322928Y389142D01*
X323414Y388414D01*
X324142Y387928D01*
X324500Y387856D01*
Y389500D01*
D02*
G37*
G36*
X445937Y391917D02*
X441500D01*
Y388555D01*
Y385193D01*
X445937D01*
Y386571D01*
X450110D01*
Y388610D01*
Y390649D01*
X445937D01*
Y391917D01*
D02*
G37*
G36*
X440500Y388055D02*
X436063D01*
Y385193D01*
X440500D01*
Y388055D01*
D02*
G37*
G36*
X355588Y404701D02*
X343481D01*
Y403539D01*
X321000D01*
X320220Y403384D01*
X319558Y402942D01*
X312058Y395442D01*
X311616Y394780D01*
X311461Y394000D01*
Y382200D01*
X311020Y381964D01*
X310858Y382072D01*
X310500Y382144D01*
Y380000D01*
Y377856D01*
X310858Y377928D01*
X311020Y378035D01*
X311461Y377800D01*
Y373953D01*
X309047D01*
Y365047D01*
X317953D01*
Y365970D01*
X320970D01*
Y357000D01*
Y354930D01*
X320603Y354044D01*
X320465Y353000D01*
X320603Y351956D01*
X321006Y350983D01*
X321647Y350147D01*
X322483Y349506D01*
X323456Y349103D01*
X324500Y348966D01*
X324677Y348989D01*
X324910Y348515D01*
X320198Y343802D01*
X318198Y341802D01*
X317645Y340975D01*
X317451Y340000D01*
Y334556D01*
X311698Y328802D01*
X311145Y327976D01*
X310951Y327000D01*
Y322657D01*
X310324Y322176D01*
X309611Y321246D01*
X309162Y320162D01*
X309009Y319000D01*
X309162Y317838D01*
X309611Y316754D01*
X310324Y315824D01*
X311254Y315110D01*
X312338Y314662D01*
X313500Y314509D01*
X314662Y314662D01*
X315746Y315110D01*
X316676Y315824D01*
X317389Y316754D01*
X317838Y317838D01*
X317991Y319000D01*
X317838Y320162D01*
X317389Y321246D01*
X316676Y322176D01*
X316049Y322657D01*
Y325944D01*
X320508Y330403D01*
X320970Y330212D01*
Y325000D01*
Y322930D01*
X320603Y322044D01*
X320465Y321000D01*
X320603Y319956D01*
X321006Y318983D01*
X321647Y318147D01*
X322483Y317506D01*
X323327Y317156D01*
X323519Y316641D01*
X320681Y313802D01*
X318427Y311549D01*
X317157D01*
X316676Y312176D01*
X315746Y312890D01*
X314662Y313338D01*
X313500Y313491D01*
X312338Y313338D01*
X311254Y312890D01*
X310324Y312176D01*
X309611Y311246D01*
X309162Y310162D01*
X309009Y309000D01*
X309162Y307838D01*
X309611Y306754D01*
X310324Y305824D01*
X311254Y305111D01*
X312338Y304662D01*
X313500Y304509D01*
X314662Y304662D01*
X315746Y305111D01*
X316676Y305824D01*
X317157Y306451D01*
X319483D01*
X320019Y306558D01*
X320575Y306167D01*
X320603Y305956D01*
X320970Y305070D01*
Y302000D01*
Y295000D01*
Y293430D01*
X320603Y292544D01*
X320465Y291500D01*
X320603Y290456D01*
X320845Y289871D01*
X320560Y289315D01*
X320336Y289269D01*
X316049Y293556D01*
Y294547D01*
X317953D01*
Y303453D01*
X309047D01*
Y294547D01*
X310951D01*
Y292500D01*
X311145Y291525D01*
X311698Y290698D01*
X317698Y284698D01*
X322168Y280227D01*
X322136Y279728D01*
X321647Y279353D01*
X321006Y278517D01*
X320603Y277544D01*
X320465Y276500D01*
X320603Y275456D01*
X321006Y274483D01*
X321574Y273743D01*
X321577Y273717D01*
X321880Y272987D01*
X322360Y272360D01*
X325360Y269360D01*
X325987Y268880D01*
X326717Y268577D01*
X327500Y268474D01*
X330902D01*
Y266000D01*
X329941D01*
Y260000D01*
X335941D01*
Y260500D01*
X337559D01*
Y263000D01*
Y265500D01*
X335941D01*
Y266000D01*
X334980D01*
Y268847D01*
X335980D01*
X336667Y268938D01*
X337307Y269203D01*
X337856Y269624D01*
X338278Y270174D01*
X338543Y270813D01*
X338633Y271500D01*
X338543Y272186D01*
X338278Y272826D01*
X337856Y273376D01*
X337421Y273709D01*
X337377Y273901D01*
Y274099D01*
X337421Y274291D01*
X337856Y274624D01*
X338278Y275174D01*
X338543Y275814D01*
X338554Y275900D01*
X339027Y276061D01*
X345391Y269698D01*
X346218Y269145D01*
X347193Y268951D01*
X351301D01*
X351333Y268938D01*
X352020Y268847D01*
X357774D01*
X358460Y268938D01*
X359100Y269203D01*
X359104Y269206D01*
X361000D01*
X361878Y269380D01*
X362313Y269671D01*
X362868Y269441D01*
X362928Y269142D01*
X363414Y268414D01*
X364142Y267928D01*
X364500Y267856D01*
Y270000D01*
X365000D01*
Y270500D01*
X367144D01*
X367072Y270858D01*
X366586Y271586D01*
X365858Y272072D01*
X365514Y272141D01*
X365355Y272525D01*
X365549Y273500D01*
X365393Y274284D01*
X365878Y274380D01*
X366622Y274878D01*
X372122Y280378D01*
X372620Y281122D01*
X372794Y282000D01*
Y283816D01*
X379519D01*
Y284723D01*
X384221D01*
X384387Y284233D01*
X384381Y284215D01*
X383998Y283922D01*
X383570Y283364D01*
X383301Y282714D01*
X383209Y282017D01*
X383301Y281320D01*
X383570Y280670D01*
X383998Y280112D01*
X384556Y279684D01*
X385206Y279415D01*
X385904Y279323D01*
X387084D01*
Y275358D01*
X384531D01*
Y268027D01*
X394224D01*
Y269399D01*
X394847D01*
Y268693D01*
X405966D01*
Y274693D01*
X405260D01*
Y285000D01*
X405085Y285878D01*
X404588Y286622D01*
X403364Y287846D01*
X403683Y288234D01*
X404142Y287928D01*
X404500Y287856D01*
Y289500D01*
X402856D01*
X402928Y289142D01*
X403234Y288683D01*
X402846Y288364D01*
X397571Y293639D01*
X396827Y294137D01*
X395949Y294311D01*
X394535D01*
X394369Y294801D01*
X394375Y294819D01*
X394758Y295112D01*
X395186Y295670D01*
X395455Y296320D01*
X395547Y297017D01*
X395455Y297714D01*
X395186Y298364D01*
X394758Y298922D01*
X394375Y299215D01*
X394369Y299233D01*
X394535Y299723D01*
X396986D01*
X397781Y299881D01*
X397928Y299142D01*
X398414Y298414D01*
X399142Y297928D01*
X399500Y297856D01*
Y300000D01*
X400000D01*
Y300500D01*
X402144D01*
X402072Y300858D01*
X401586Y301586D01*
X400939Y302019D01*
X400773Y302560D01*
X406206Y307993D01*
X406706Y307786D01*
Y292107D01*
X406206Y291840D01*
X405858Y292072D01*
X405500Y292144D01*
Y290000D01*
Y287856D01*
X405858Y287928D01*
X406206Y288160D01*
X406706Y287893D01*
Y262257D01*
X405957Y261508D01*
X394224D01*
Y261972D01*
X384531D01*
Y254642D01*
X394224D01*
Y255106D01*
X406053D01*
Y256023D01*
X406878Y256187D01*
X407622Y256685D01*
X410622Y259685D01*
X411119Y260429D01*
X411294Y261307D01*
Y317254D01*
X411794Y317462D01*
X413861Y315395D01*
X414605Y314898D01*
X415483Y314723D01*
X421465D01*
X421631Y314233D01*
X421625Y314215D01*
X421242Y313922D01*
X420814Y313364D01*
X420545Y312714D01*
X420453Y312017D01*
X420545Y311320D01*
X420814Y310670D01*
X421242Y310112D01*
X421625Y309819D01*
X421661Y309723D01*
Y309311D01*
X421625Y309215D01*
X421242Y308922D01*
X420814Y308364D01*
X420545Y307714D01*
X420453Y307017D01*
X420545Y306320D01*
X420814Y305670D01*
X421242Y305112D01*
X421625Y304819D01*
X421661Y304723D01*
Y304311D01*
X421625Y304215D01*
X421242Y303922D01*
X420814Y303364D01*
X420545Y302714D01*
X420453Y302017D01*
X420545Y301320D01*
X420814Y300670D01*
X421242Y300112D01*
X421625Y299819D01*
X421661Y299723D01*
Y299311D01*
X421625Y299215D01*
X421242Y298922D01*
X420814Y298364D01*
X420545Y297714D01*
X420453Y297017D01*
X420545Y296320D01*
X420814Y295670D01*
X421242Y295112D01*
X421625Y294819D01*
X421661Y294723D01*
Y294311D01*
X421625Y294215D01*
X421242Y293922D01*
X420814Y293364D01*
X420545Y292714D01*
X420453Y292017D01*
X420545Y291320D01*
X420814Y290670D01*
X421242Y290112D01*
X421625Y289819D01*
X421661Y289723D01*
Y289311D01*
X421625Y289215D01*
X421242Y288922D01*
X420814Y288364D01*
X420545Y287714D01*
X420453Y287017D01*
X420545Y286320D01*
X420814Y285670D01*
X421242Y285112D01*
X421625Y284819D01*
X421661Y284723D01*
Y284311D01*
X421625Y284215D01*
X421242Y283922D01*
X420814Y283364D01*
X420545Y282714D01*
X420453Y282017D01*
X420545Y281320D01*
X420814Y280670D01*
X421242Y280112D01*
X421801Y279684D01*
X422450Y279415D01*
X423148Y279323D01*
X430096D01*
X430794Y279415D01*
X431444Y279684D01*
X431827Y279978D01*
X435517D01*
X436297Y280133D01*
X436959Y280575D01*
X437452Y281069D01*
X437901Y280862D01*
X437922Y280831D01*
X437856Y280500D01*
X439500D01*
Y282144D01*
X439169Y282078D01*
X439138Y282099D01*
X438932Y282548D01*
X443669Y287285D01*
X444131Y287094D01*
Y282625D01*
X450281D01*
Y288775D01*
X450281Y288775D01*
X450281D01*
X450541Y289157D01*
X451788Y290404D01*
X453687D01*
Y285299D01*
X454736D01*
Y285225D01*
X454891Y284445D01*
X455333Y283783D01*
X456415Y282701D01*
X456214Y282201D01*
X453687D01*
Y281039D01*
X450281D01*
Y282075D01*
X444131D01*
Y275925D01*
X450281D01*
Y276961D01*
X453687D01*
Y275799D01*
X465793D01*
Y276961D01*
X482500D01*
X483280Y277116D01*
X483942Y277558D01*
X486418Y280034D01*
X486975Y280145D01*
X487237Y280320D01*
X487678Y280084D01*
Y270378D01*
X487178Y270329D01*
X487072Y270858D01*
X486586Y271586D01*
X485858Y272072D01*
X485500Y272144D01*
Y270000D01*
Y267856D01*
X485858Y267928D01*
X486586Y268414D01*
X487072Y269142D01*
X487178Y269671D01*
X487678Y269622D01*
Y266475D01*
X487471Y266389D01*
X486541Y265676D01*
X485827Y264746D01*
X485379Y263662D01*
X485226Y262500D01*
X485379Y261338D01*
X485827Y260254D01*
X486541Y259324D01*
X487471Y258611D01*
X488554Y258162D01*
X489717Y258009D01*
X490879Y258162D01*
X491962Y258611D01*
X492893Y259324D01*
X493606Y260254D01*
X494055Y261338D01*
X494208Y262500D01*
X494055Y263662D01*
X493606Y264746D01*
X492893Y265676D01*
X491962Y266389D01*
X491756Y266475D01*
Y283800D01*
X491756Y283800D01*
X491601Y284581D01*
X491318Y285004D01*
X491520Y285549D01*
X491529Y285556D01*
X491975Y285645D01*
X492802Y286198D01*
X493355Y287024D01*
X493501Y287757D01*
X493661Y287997D01*
X493816Y288777D01*
Y300647D01*
X494278Y300838D01*
X496237Y298879D01*
X496899Y298437D01*
X497065Y298404D01*
X497116Y298280D01*
X497060Y298000D01*
X499000D01*
Y297500D01*
X499500D01*
Y295560D01*
X499780Y295616D01*
X499983Y295751D01*
X500483Y295484D01*
Y290443D01*
X500229Y290393D01*
X499567Y289951D01*
X498275Y288659D01*
X497833Y287997D01*
X497678Y287217D01*
Y270378D01*
X497178Y270329D01*
X497072Y270858D01*
X496586Y271586D01*
X495858Y272072D01*
X495500Y272144D01*
Y270000D01*
Y267856D01*
X495858Y267928D01*
X496586Y268414D01*
X497072Y269142D01*
X497178Y269671D01*
X497678Y269622D01*
Y266953D01*
X495264D01*
Y258047D01*
X504170D01*
Y266953D01*
X501756D01*
Y286372D01*
X501802Y286419D01*
X508601D01*
Y288384D01*
X508604D01*
Y292565D01*
X508601D01*
Y294299D01*
X508608D01*
Y298282D01*
X510934D01*
Y297246D01*
X511434D01*
Y295310D01*
X514206D01*
X516978D01*
Y297246D01*
X517478D01*
Y303396D01*
X510934D01*
Y302360D01*
X508603D01*
Y304188D01*
X517928D01*
X519461Y302655D01*
Y286309D01*
X518425D01*
Y280160D01*
X524575D01*
Y286309D01*
X523539D01*
Y287800D01*
X523980Y288035D01*
X524142Y287928D01*
X524500Y287856D01*
Y290000D01*
Y292144D01*
X524142Y292072D01*
X523980Y291965D01*
X523539Y292200D01*
Y303500D01*
X523384Y304280D01*
X522942Y304942D01*
X520259Y307625D01*
X520282Y307809D01*
X520433Y308125D01*
X523991D01*
X525247Y306869D01*
X525162Y306662D01*
X525009Y305500D01*
X525162Y304338D01*
X525610Y303254D01*
X526324Y302324D01*
X527254Y301610D01*
X528338Y301162D01*
X529500Y301009D01*
X530662Y301162D01*
X531746Y301610D01*
X532676Y302324D01*
X533390Y303254D01*
X533838Y304338D01*
X533991Y305500D01*
X533838Y306662D01*
X533390Y307746D01*
X533258Y307916D01*
X533605Y308286D01*
X534142Y307928D01*
X534500Y307856D01*
Y309500D01*
X532856D01*
X532928Y309142D01*
X532967Y309082D01*
X532597Y308736D01*
X531746Y309389D01*
X530662Y309838D01*
X529500Y309991D01*
X528338Y309838D01*
X528131Y309753D01*
X526602Y311282D01*
X526773Y311818D01*
X526947Y311847D01*
X527254Y311611D01*
X528338Y311162D01*
X529500Y311009D01*
X530662Y311162D01*
X531746Y311611D01*
X532676Y312324D01*
X533390Y313254D01*
X533838Y314338D01*
X533991Y315500D01*
X533838Y316662D01*
X533390Y317746D01*
X532676Y318676D01*
X531746Y319390D01*
X530662Y319838D01*
X529500Y319991D01*
X528338Y319838D01*
X527254Y319390D01*
X526324Y318676D01*
X525610Y317746D01*
X525162Y316662D01*
X525093Y316140D01*
X523677D01*
X523486Y316602D01*
X528131Y321247D01*
X528338Y321162D01*
X529500Y321009D01*
X530662Y321162D01*
X531746Y321610D01*
X532676Y322324D01*
X533390Y323254D01*
X533838Y324338D01*
X533991Y325500D01*
X533838Y326662D01*
X533390Y327746D01*
X533258Y327917D01*
X533605Y328286D01*
X534142Y327928D01*
X534500Y327856D01*
Y330000D01*
Y332144D01*
X534453Y332134D01*
X533953Y332502D01*
Y339953D01*
X525047D01*
Y331431D01*
X517272Y323656D01*
X516772Y323863D01*
Y329553D01*
X516272D01*
Y331489D01*
X513500D01*
Y331989D01*
X513000D01*
Y334564D01*
X510728D01*
Y334028D01*
X506430D01*
Y331989D01*
Y329950D01*
X509980D01*
X510228Y329553D01*
Y323403D01*
X510812D01*
X511019Y322903D01*
X510161Y322045D01*
X508603D01*
Y326033D01*
X500485D01*
Y322045D01*
X498006D01*
X497226Y321890D01*
X496564Y321448D01*
X495189Y320073D01*
X488631D01*
X488480Y320389D01*
X488457Y320573D01*
X490442Y322558D01*
X490884Y323220D01*
X491039Y324000D01*
Y328255D01*
X491131Y328717D01*
X497281D01*
Y329217D01*
X499217D01*
Y331989D01*
Y334761D01*
X497281D01*
Y335261D01*
X491131D01*
Y334098D01*
X487293D01*
Y335260D01*
X486245D01*
Y337358D01*
X487293D01*
Y339768D01*
X487793Y339817D01*
X487815Y339707D01*
X487928Y339142D01*
X488414Y338414D01*
X489142Y337928D01*
X489500Y337856D01*
Y340000D01*
Y342144D01*
X489142Y342072D01*
X488414Y341586D01*
X487928Y340858D01*
X487815Y340293D01*
X487793Y340183D01*
X487293Y340232D01*
Y343759D01*
X480314D01*
Y345725D01*
X480159Y346506D01*
X479717Y347167D01*
X476942Y349942D01*
X476280Y350384D01*
X475500Y350539D01*
X470654D01*
X470181Y350855D01*
X469206Y351049D01*
X468230Y350855D01*
X468180Y350821D01*
X467739Y351057D01*
Y359461D01*
X474951D01*
Y357835D01*
X488975D01*
Y358334D01*
X494537D01*
Y361500D01*
Y364665D01*
X488975D01*
Y365165D01*
X474951D01*
Y363539D01*
X467739D01*
Y370520D01*
X472027D01*
Y388480D01*
X467161D01*
X466925Y388921D01*
X467072Y389142D01*
X467144Y389500D01*
X462856D01*
X462928Y389142D01*
X463075Y388921D01*
X462839Y388480D01*
X459972D01*
Y381594D01*
X446437D01*
Y383362D01*
X435563D01*
Y375638D01*
X446437D01*
Y377516D01*
X459972D01*
Y370520D01*
X463661D01*
Y361500D01*
Y350927D01*
X463220Y350692D01*
X462976Y350855D01*
X462000Y351049D01*
X461025Y350855D01*
X460552Y350539D01*
X458845D01*
X443339Y366045D01*
Y366583D01*
X446437D01*
Y374307D01*
X435563D01*
Y372539D01*
X430500D01*
Y373500D01*
X430000D01*
Y375118D01*
X427500D01*
X425000D01*
Y373500D01*
X424500D01*
Y372794D01*
X414000D01*
X413122Y372620D01*
X412378Y372122D01*
X412165Y371804D01*
X411665Y371956D01*
Y382786D01*
X411165D01*
Y388348D01*
X408000D01*
X404835D01*
Y382786D01*
X404335D01*
Y368762D01*
X405706D01*
Y367794D01*
X401950D01*
X386896Y382848D01*
X386984Y383516D01*
Y385484D01*
X386797Y386904D01*
X386249Y388226D01*
X385378Y389362D01*
X384242Y390233D01*
X382919Y390781D01*
X381500Y390968D01*
X380081Y390781D01*
X378758Y390233D01*
X377622Y389362D01*
X376751Y388226D01*
X376479Y387571D01*
X375979Y387571D01*
X375813Y387974D01*
X375021Y389005D01*
X373990Y389797D01*
X372789Y390294D01*
X371739Y390432D01*
Y398925D01*
X372275D01*
Y401000D01*
X369700D01*
X367125D01*
Y398925D01*
X367661D01*
Y388717D01*
X367437Y388520D01*
X366937Y388746D01*
Y390921D01*
X356063D01*
Y382307D01*
X352223Y378468D01*
X351835Y378786D01*
X352072Y379142D01*
X352144Y379500D01*
X350500D01*
Y377856D01*
X350858Y377928D01*
X351214Y378165D01*
X351532Y377777D01*
X350050Y376294D01*
X347000D01*
X346122Y376119D01*
X345378Y375622D01*
X341550Y371794D01*
X337666D01*
Y378634D01*
X338165Y378786D01*
X338414Y378414D01*
X339142Y377928D01*
X339500Y377856D01*
Y380000D01*
Y382144D01*
X339142Y382072D01*
X338414Y381586D01*
X338165Y381214D01*
X337666Y381366D01*
Y383786D01*
X337165D01*
Y389348D01*
X334000D01*
X330835D01*
Y383786D01*
X330335D01*
Y382518D01*
X330000Y382243D01*
X329142Y382072D01*
X328414Y381586D01*
X327928Y380858D01*
X327856Y380500D01*
X330000D01*
Y379500D01*
X327856D01*
X327928Y379142D01*
X328414Y378414D01*
X329142Y377928D01*
X330000Y377757D01*
X330335Y377482D01*
Y373030D01*
X317953D01*
Y373953D01*
X315539D01*
Y393155D01*
X321845Y399461D01*
X331681D01*
X332024Y399000D01*
X335977D01*
X336319Y399461D01*
X343481D01*
Y398299D01*
X355588D01*
Y399461D01*
X359925D01*
Y398425D01*
X366075D01*
Y404575D01*
X359925D01*
Y403539D01*
X355588D01*
Y404701D01*
D02*
G37*
G36*
X428000Y382940D02*
Y381500D01*
X429440D01*
X429384Y381780D01*
X428942Y382442D01*
X428280Y382884D01*
X428000Y382940D01*
D02*
G37*
G36*
X427000D02*
X426720Y382884D01*
X426058Y382442D01*
X425616Y381780D01*
X425560Y381500D01*
X427000D01*
Y382940D01*
D02*
G37*
G36*
X530500Y382144D02*
Y380500D01*
X532144D01*
X532072Y380858D01*
X531586Y381586D01*
X530858Y382072D01*
X530500Y382144D01*
D02*
G37*
G36*
X529500D02*
X529142Y382072D01*
X528414Y381586D01*
X527928Y380858D01*
X527856Y380500D01*
X529500D01*
Y382144D01*
D02*
G37*
G36*
X520500D02*
Y380500D01*
X522144D01*
X522072Y380858D01*
X521586Y381586D01*
X520858Y382072D01*
X520500Y382144D01*
D02*
G37*
G36*
X519500D02*
X519142Y382072D01*
X518414Y381586D01*
X517928Y380858D01*
X517856Y380500D01*
X519500D01*
Y382144D01*
D02*
G37*
G36*
X510500D02*
Y380500D01*
X512144D01*
X512072Y380858D01*
X511586Y381586D01*
X510858Y382072D01*
X510500Y382144D01*
D02*
G37*
G36*
X509500D02*
X509142Y382072D01*
X508414Y381586D01*
X507928Y380858D01*
X507856Y380500D01*
X509500D01*
Y382144D01*
D02*
G37*
G36*
X500500D02*
Y380500D01*
X502144D01*
X502072Y380858D01*
X501586Y381586D01*
X500858Y382072D01*
X500500Y382144D01*
D02*
G37*
G36*
X499500D02*
X499142Y382072D01*
X498414Y381586D01*
X497928Y380858D01*
X497856Y380500D01*
X499500D01*
Y382144D01*
D02*
G37*
G36*
X490500D02*
Y380500D01*
X492144D01*
X492072Y380858D01*
X491586Y381586D01*
X490858Y382072D01*
X490500Y382144D01*
D02*
G37*
G36*
X489500D02*
X489142Y382072D01*
X488414Y381586D01*
X487928Y380858D01*
X487856Y380500D01*
X489500D01*
Y382144D01*
D02*
G37*
G36*
X480500D02*
Y380500D01*
X482144D01*
X482072Y380858D01*
X481586Y381586D01*
X480858Y382072D01*
X480500Y382144D01*
D02*
G37*
G36*
X479500D02*
X479142Y382072D01*
X478414Y381586D01*
X477928Y380858D01*
X477856Y380500D01*
X479500D01*
Y382144D01*
D02*
G37*
G36*
X420500D02*
Y380500D01*
X422144D01*
X422072Y380858D01*
X421586Y381586D01*
X420858Y382072D01*
X420500Y382144D01*
D02*
G37*
G36*
X419500D02*
X419142Y382072D01*
X418414Y381586D01*
X417928Y380858D01*
X417856Y380500D01*
X419500D01*
Y382144D01*
D02*
G37*
G36*
X350500D02*
Y380500D01*
X352144D01*
X352072Y380858D01*
X351586Y381586D01*
X350858Y382072D01*
X350500Y382144D01*
D02*
G37*
G36*
X349500D02*
X349142Y382072D01*
X348414Y381586D01*
X347928Y380858D01*
X347856Y380500D01*
X349500D01*
Y382144D01*
D02*
G37*
G36*
X340500D02*
Y380500D01*
X342144D01*
X342072Y380858D01*
X341586Y381586D01*
X340858Y382072D01*
X340500Y382144D01*
D02*
G37*
G36*
X320500D02*
Y380500D01*
X322144D01*
X322072Y380858D01*
X321586Y381586D01*
X320858Y382072D01*
X320500Y382144D01*
D02*
G37*
G36*
X319500D02*
X319142Y382072D01*
X318414Y381586D01*
X317928Y380858D01*
X317856Y380500D01*
X319500D01*
Y382144D01*
D02*
G37*
G36*
X309500D02*
X309142Y382072D01*
X308414Y381586D01*
X307928Y380858D01*
X307856Y380500D01*
X309500D01*
Y382144D01*
D02*
G37*
G36*
X532144Y379500D02*
X530500D01*
Y377856D01*
X530858Y377928D01*
X531586Y378414D01*
X532072Y379142D01*
X532144Y379500D01*
D02*
G37*
G36*
X529500D02*
X527856D01*
X527928Y379142D01*
X528414Y378414D01*
X529142Y377928D01*
X529500Y377856D01*
Y379500D01*
D02*
G37*
G36*
X522144D02*
X520500D01*
Y377856D01*
X520858Y377928D01*
X521586Y378414D01*
X522072Y379142D01*
X522144Y379500D01*
D02*
G37*
G36*
X519500D02*
X517856D01*
X517928Y379142D01*
X518414Y378414D01*
X519142Y377928D01*
X519500Y377856D01*
Y379500D01*
D02*
G37*
G36*
X512144D02*
X510500D01*
Y377856D01*
X510858Y377928D01*
X511586Y378414D01*
X512072Y379142D01*
X512144Y379500D01*
D02*
G37*
G36*
X509500D02*
X507856D01*
X507928Y379142D01*
X508414Y378414D01*
X509142Y377928D01*
X509500Y377856D01*
Y379500D01*
D02*
G37*
G36*
X502144D02*
X500500D01*
Y377856D01*
X500858Y377928D01*
X501586Y378414D01*
X502072Y379142D01*
X502144Y379500D01*
D02*
G37*
G36*
X499500D02*
X497856D01*
X497928Y379142D01*
X498414Y378414D01*
X499142Y377928D01*
X499500Y377856D01*
Y379500D01*
D02*
G37*
G36*
X492144D02*
X490500D01*
Y377856D01*
X490858Y377928D01*
X491586Y378414D01*
X492072Y379142D01*
X492144Y379500D01*
D02*
G37*
G36*
X489500D02*
X487856D01*
X487928Y379142D01*
X488414Y378414D01*
X489142Y377928D01*
X489500Y377856D01*
Y379500D01*
D02*
G37*
G36*
X482144D02*
X480500D01*
Y377856D01*
X480858Y377928D01*
X481586Y378414D01*
X482072Y379142D01*
X482144Y379500D01*
D02*
G37*
G36*
X479500D02*
X477856D01*
X477928Y379142D01*
X478414Y378414D01*
X479142Y377928D01*
X479500Y377856D01*
Y379500D01*
D02*
G37*
G36*
X422144D02*
X420500D01*
Y377856D01*
X420858Y377928D01*
X421586Y378414D01*
X422072Y379142D01*
X422144Y379500D01*
D02*
G37*
G36*
X419500D02*
X417856D01*
X417928Y379142D01*
X418414Y378414D01*
X419142Y377928D01*
X419500Y377856D01*
Y379500D01*
D02*
G37*
G36*
X349500D02*
X347856D01*
X347928Y379142D01*
X348414Y378414D01*
X349142Y377928D01*
X349500Y377856D01*
Y379500D01*
D02*
G37*
G36*
X342144D02*
X340500D01*
Y377856D01*
X340858Y377928D01*
X341586Y378414D01*
X342072Y379142D01*
X342144Y379500D01*
D02*
G37*
G36*
X322144D02*
X320500D01*
Y377856D01*
X320858Y377928D01*
X321586Y378414D01*
X322072Y379142D01*
X322144Y379500D01*
D02*
G37*
G36*
X319500D02*
X317856D01*
X317928Y379142D01*
X318414Y378414D01*
X319142Y377928D01*
X319500Y377856D01*
Y379500D01*
D02*
G37*
G36*
X309500D02*
X307856D01*
X307928Y379142D01*
X308414Y378414D01*
X309142Y377928D01*
X309500Y377856D01*
Y379500D01*
D02*
G37*
G36*
X429539Y380500D02*
X425461D01*
Y378118D01*
X425000D01*
Y376118D01*
X427500D01*
X430000D01*
Y378118D01*
X429539D01*
Y380500D01*
D02*
G37*
G36*
X535500Y372144D02*
Y370500D01*
X537144D01*
X537072Y370858D01*
X536586Y371586D01*
X535858Y372072D01*
X535500Y372144D01*
D02*
G37*
G36*
X534500D02*
X534142Y372072D01*
X533414Y371586D01*
X532928Y370858D01*
X532856Y370500D01*
X534500D01*
Y372144D01*
D02*
G37*
G36*
X525500D02*
Y370500D01*
X527144D01*
X527072Y370858D01*
X526586Y371586D01*
X525858Y372072D01*
X525500Y372144D01*
D02*
G37*
G36*
X524500D02*
X524142Y372072D01*
X523414Y371586D01*
X522928Y370858D01*
X522856Y370500D01*
X524500D01*
Y372144D01*
D02*
G37*
G36*
X515500D02*
Y370500D01*
X517144D01*
X517072Y370858D01*
X516586Y371586D01*
X515858Y372072D01*
X515500Y372144D01*
D02*
G37*
G36*
X514500D02*
X514142Y372072D01*
X513414Y371586D01*
X512928Y370858D01*
X512856Y370500D01*
X514500D01*
Y372144D01*
D02*
G37*
G36*
X505500D02*
Y370500D01*
X507144D01*
X507072Y370858D01*
X506586Y371586D01*
X505858Y372072D01*
X505500Y372144D01*
D02*
G37*
G36*
X504500D02*
X504142Y372072D01*
X503414Y371586D01*
X502928Y370858D01*
X502856Y370500D01*
X504500D01*
Y372144D01*
D02*
G37*
G36*
X495500D02*
Y370500D01*
X497144D01*
X497072Y370858D01*
X496586Y371586D01*
X495858Y372072D01*
X495500Y372144D01*
D02*
G37*
G36*
X494500D02*
X494142Y372072D01*
X493414Y371586D01*
X492928Y370858D01*
X492856Y370500D01*
X494500D01*
Y372144D01*
D02*
G37*
G36*
X485500D02*
Y370500D01*
X487144D01*
X487072Y370858D01*
X486586Y371586D01*
X485858Y372072D01*
X485500Y372144D01*
D02*
G37*
G36*
X484500D02*
X484142Y372072D01*
X483414Y371586D01*
X482928Y370858D01*
X482856Y370500D01*
X484500D01*
Y372144D01*
D02*
G37*
G36*
X475500D02*
Y370500D01*
X477144D01*
X477072Y370858D01*
X476586Y371586D01*
X475858Y372072D01*
X475500Y372144D01*
D02*
G37*
G36*
X474500D02*
X474142Y372072D01*
X473414Y371586D01*
X472928Y370858D01*
X472856Y370500D01*
X474500D01*
Y372144D01*
D02*
G37*
G36*
X455500D02*
Y370500D01*
X457144D01*
X457072Y370858D01*
X456586Y371586D01*
X455858Y372072D01*
X455500Y372144D01*
D02*
G37*
G36*
X454500D02*
X454142Y372072D01*
X453414Y371586D01*
X452928Y370858D01*
X452856Y370500D01*
X454500D01*
Y372144D01*
D02*
G37*
G36*
X537144Y369500D02*
X535500D01*
Y367856D01*
X535858Y367928D01*
X536586Y368414D01*
X537072Y369142D01*
X537144Y369500D01*
D02*
G37*
G36*
X534500D02*
X532856D01*
X532928Y369142D01*
X533414Y368414D01*
X534142Y367928D01*
X534500Y367856D01*
Y369500D01*
D02*
G37*
G36*
X527144D02*
X525500D01*
Y367856D01*
X525858Y367928D01*
X526586Y368414D01*
X527072Y369142D01*
X527144Y369500D01*
D02*
G37*
G36*
X524500D02*
X522856D01*
X522928Y369142D01*
X523414Y368414D01*
X524142Y367928D01*
X524500Y367856D01*
Y369500D01*
D02*
G37*
G36*
X517144D02*
X515500D01*
Y367856D01*
X515858Y367928D01*
X516586Y368414D01*
X517072Y369142D01*
X517144Y369500D01*
D02*
G37*
G36*
X514500D02*
X512856D01*
X512928Y369142D01*
X513414Y368414D01*
X514142Y367928D01*
X514500Y367856D01*
Y369500D01*
D02*
G37*
G36*
X507144D02*
X505500D01*
Y367856D01*
X505858Y367928D01*
X506586Y368414D01*
X507072Y369142D01*
X507144Y369500D01*
D02*
G37*
G36*
X504500D02*
X502856D01*
X502928Y369142D01*
X503414Y368414D01*
X504142Y367928D01*
X504500Y367856D01*
Y369500D01*
D02*
G37*
G36*
X497144D02*
X495500D01*
Y367856D01*
X495858Y367928D01*
X496586Y368414D01*
X497072Y369142D01*
X497144Y369500D01*
D02*
G37*
G36*
X494500D02*
X492856D01*
X492928Y369142D01*
X493414Y368414D01*
X494142Y367928D01*
X494500Y367856D01*
Y369500D01*
D02*
G37*
G36*
X487144D02*
X485500D01*
Y367856D01*
X485858Y367928D01*
X486586Y368414D01*
X487072Y369142D01*
X487144Y369500D01*
D02*
G37*
G36*
X484500D02*
X482856D01*
X482928Y369142D01*
X483414Y368414D01*
X484142Y367928D01*
X484500Y367856D01*
Y369500D01*
D02*
G37*
G36*
X477144D02*
X475500D01*
Y367856D01*
X475858Y367928D01*
X476586Y368414D01*
X477072Y369142D01*
X477144Y369500D01*
D02*
G37*
G36*
X474500D02*
X472856D01*
X472928Y369142D01*
X473414Y368414D01*
X474142Y367928D01*
X474500Y367856D01*
Y369500D01*
D02*
G37*
G36*
X457144D02*
X455500D01*
Y367856D01*
X455858Y367928D01*
X456586Y368414D01*
X457072Y369142D01*
X457144Y369500D01*
D02*
G37*
G36*
X454500D02*
X452856D01*
X452928Y369142D01*
X453414Y368414D01*
X454142Y367928D01*
X454500Y367856D01*
Y369500D01*
D02*
G37*
G36*
X505000Y363440D02*
Y362000D01*
X506440D01*
X506384Y362280D01*
X505942Y362942D01*
X505280Y363384D01*
X505000Y363440D01*
D02*
G37*
G36*
X530500Y362144D02*
Y360500D01*
X532144D01*
X532072Y360858D01*
X531586Y361586D01*
X530858Y362072D01*
X530500Y362144D01*
D02*
G37*
G36*
X529500D02*
X529142Y362072D01*
X528414Y361586D01*
X527928Y360858D01*
X527856Y360500D01*
X529500D01*
Y362144D01*
D02*
G37*
G36*
X520500D02*
Y360500D01*
X522144D01*
X522072Y360858D01*
X521586Y361586D01*
X520858Y362072D01*
X520500Y362144D01*
D02*
G37*
G36*
X519500D02*
X519142Y362072D01*
X518414Y361586D01*
X517928Y360858D01*
X517856Y360500D01*
X519500D01*
Y362144D01*
D02*
G37*
G36*
X510500D02*
Y360500D01*
X512144D01*
X512072Y360858D01*
X511586Y361586D01*
X510858Y362072D01*
X510500Y362144D01*
D02*
G37*
G36*
X509500D02*
X509142Y362072D01*
X508414Y361586D01*
X507928Y360858D01*
X507856Y360500D01*
X509500D01*
Y362144D01*
D02*
G37*
G36*
X460500D02*
Y360500D01*
X462144D01*
X462072Y360858D01*
X461586Y361586D01*
X460858Y362072D01*
X460500Y362144D01*
D02*
G37*
G36*
X459500D02*
X459142Y362072D01*
X458414Y361586D01*
X457928Y360858D01*
X457856Y360500D01*
X459500D01*
Y362144D01*
D02*
G37*
G36*
X314000Y363421D02*
Y360000D01*
X317421D01*
X317351Y360532D01*
X316953Y361493D01*
X316319Y362319D01*
X315493Y362953D01*
X314532Y363351D01*
X314000Y363421D01*
D02*
G37*
G36*
X313000D02*
X312468Y363351D01*
X311507Y362953D01*
X310681Y362319D01*
X310047Y361493D01*
X309649Y360532D01*
X309579Y360000D01*
X313000D01*
Y363421D01*
D02*
G37*
G36*
X506440Y361000D02*
X505000D01*
Y359560D01*
X505280Y359616D01*
X505942Y360058D01*
X505942Y360058D01*
X506384Y360720D01*
X506440Y361000D01*
D02*
G37*
G36*
X501549Y364665D02*
X495537D01*
Y361500D01*
Y358334D01*
X501549D01*
Y359461D01*
X504000D01*
Y361500D01*
Y363539D01*
X501549D01*
Y364665D01*
D02*
G37*
G36*
X532144Y359500D02*
X530500D01*
Y357856D01*
X530858Y357928D01*
X531586Y358414D01*
X532072Y359142D01*
X532144Y359500D01*
D02*
G37*
G36*
X529500D02*
X527856D01*
X527928Y359142D01*
X528414Y358414D01*
X529142Y357928D01*
X529500Y357856D01*
Y359500D01*
D02*
G37*
G36*
X522144D02*
X520500D01*
Y357856D01*
X520858Y357928D01*
X521586Y358414D01*
X522072Y359142D01*
X522144Y359500D01*
D02*
G37*
G36*
X519500D02*
X517856D01*
X517928Y359142D01*
X518414Y358414D01*
X519142Y357928D01*
X519500Y357856D01*
Y359500D01*
D02*
G37*
G36*
X512144D02*
X510500D01*
Y357856D01*
X510858Y357928D01*
X511586Y358414D01*
X512072Y359142D01*
X512144Y359500D01*
D02*
G37*
G36*
X509500D02*
X507856D01*
X507928Y359142D01*
X508414Y358414D01*
X509142Y357928D01*
X509500Y357856D01*
Y359500D01*
D02*
G37*
G36*
X462144D02*
X460500D01*
Y357856D01*
X460858Y357928D01*
X461586Y358414D01*
X462072Y359142D01*
X462144Y359500D01*
D02*
G37*
G36*
X459500D02*
X457856D01*
X457928Y359142D01*
X458414Y358414D01*
X459142Y357928D01*
X459500Y357856D01*
Y359500D01*
D02*
G37*
G36*
X317421Y359000D02*
X314000D01*
Y355579D01*
X314532Y355649D01*
X315493Y356047D01*
X316319Y356681D01*
X316953Y357507D01*
X317351Y358468D01*
X317421Y359000D01*
D02*
G37*
G36*
X313000D02*
X309579D01*
X309649Y358468D01*
X310047Y357507D01*
X310681Y356681D01*
X311507Y356047D01*
X312468Y355649D01*
X313000Y355579D01*
Y359000D01*
D02*
G37*
G36*
X535500Y352144D02*
Y350500D01*
X537144D01*
X537072Y350858D01*
X536586Y351586D01*
X535858Y352072D01*
X535500Y352144D01*
D02*
G37*
G36*
X534500D02*
X534142Y352072D01*
X533414Y351586D01*
X532928Y350858D01*
X532856Y350500D01*
X534500D01*
Y352144D01*
D02*
G37*
G36*
X525500D02*
Y350500D01*
X527144D01*
X527072Y350858D01*
X526586Y351586D01*
X525858Y352072D01*
X525500Y352144D01*
D02*
G37*
G36*
X524500D02*
X524142Y352072D01*
X523414Y351586D01*
X522928Y350858D01*
X522856Y350500D01*
X524500D01*
Y352144D01*
D02*
G37*
G36*
X515500D02*
Y350500D01*
X517144D01*
X517072Y350858D01*
X516586Y351586D01*
X515858Y352072D01*
X515500Y352144D01*
D02*
G37*
G36*
X514500D02*
X514142Y352072D01*
X513414Y351586D01*
X512928Y350858D01*
X512856Y350500D01*
X514500D01*
Y352144D01*
D02*
G37*
G36*
X505500D02*
Y350500D01*
X507144D01*
X507072Y350858D01*
X506586Y351586D01*
X505858Y352072D01*
X505500Y352144D01*
D02*
G37*
G36*
X504500D02*
X504142Y352072D01*
X503414Y351586D01*
X502928Y350858D01*
X502856Y350500D01*
X504500D01*
Y352144D01*
D02*
G37*
G36*
X495500D02*
Y350500D01*
X497144D01*
X497072Y350858D01*
X496586Y351586D01*
X495858Y352072D01*
X495500Y352144D01*
D02*
G37*
G36*
X494500D02*
X494142Y352072D01*
X493414Y351586D01*
X492928Y350858D01*
X492856Y350500D01*
X494500D01*
Y352144D01*
D02*
G37*
G36*
X485500D02*
Y350500D01*
X487144D01*
X487072Y350858D01*
X486586Y351586D01*
X485858Y352072D01*
X485500Y352144D01*
D02*
G37*
G36*
X484500D02*
X484142Y352072D01*
X483414Y351586D01*
X482928Y350858D01*
X482856Y350500D01*
X484500D01*
Y352144D01*
D02*
G37*
G36*
X315500D02*
Y350500D01*
X317144D01*
X317072Y350858D01*
X316586Y351586D01*
X315858Y352072D01*
X315500Y352144D01*
D02*
G37*
G36*
X314500D02*
X314142Y352072D01*
X313414Y351586D01*
X312928Y350858D01*
X312856Y350500D01*
X314500D01*
Y352144D01*
D02*
G37*
G36*
X537144Y349500D02*
X535500D01*
Y347856D01*
X535858Y347928D01*
X536586Y348414D01*
X537072Y349142D01*
X537144Y349500D01*
D02*
G37*
G36*
X534500D02*
X532856D01*
X532928Y349142D01*
X533414Y348414D01*
X534142Y347928D01*
X534500Y347856D01*
Y349500D01*
D02*
G37*
G36*
X527144D02*
X525500D01*
Y347856D01*
X525858Y347928D01*
X526586Y348414D01*
X527072Y349142D01*
X527144Y349500D01*
D02*
G37*
G36*
X524500D02*
X522856D01*
X522928Y349142D01*
X523414Y348414D01*
X524142Y347928D01*
X524500Y347856D01*
Y349500D01*
D02*
G37*
G36*
X517144D02*
X515500D01*
Y347856D01*
X515858Y347928D01*
X516586Y348414D01*
X517072Y349142D01*
X517144Y349500D01*
D02*
G37*
G36*
X514500D02*
X512856D01*
X512928Y349142D01*
X513414Y348414D01*
X514142Y347928D01*
X514500Y347856D01*
Y349500D01*
D02*
G37*
G36*
X507144D02*
X505500D01*
Y347856D01*
X505858Y347928D01*
X506586Y348414D01*
X507072Y349142D01*
X507144Y349500D01*
D02*
G37*
G36*
X504500D02*
X502856D01*
X502928Y349142D01*
X503414Y348414D01*
X504142Y347928D01*
X504500Y347856D01*
Y349500D01*
D02*
G37*
G36*
X497144D02*
X495500D01*
Y347856D01*
X495858Y347928D01*
X496586Y348414D01*
X497072Y349142D01*
X497144Y349500D01*
D02*
G37*
G36*
X494500D02*
X492856D01*
X492928Y349142D01*
X493414Y348414D01*
X494142Y347928D01*
X494500Y347856D01*
Y349500D01*
D02*
G37*
G36*
X487144D02*
X485500D01*
Y347856D01*
X485858Y347928D01*
X486586Y348414D01*
X487072Y349142D01*
X487144Y349500D01*
D02*
G37*
G36*
X484500D02*
X482856D01*
X482928Y349142D01*
X483414Y348414D01*
X484142Y347928D01*
X484500Y347856D01*
Y349500D01*
D02*
G37*
G36*
X317144D02*
X315500D01*
Y347856D01*
X315858Y347928D01*
X316586Y348414D01*
X317072Y349142D01*
X317144Y349500D01*
D02*
G37*
G36*
X314500D02*
X312856D01*
X312928Y349142D01*
X313414Y348414D01*
X314142Y347928D01*
X314500Y347856D01*
Y349500D01*
D02*
G37*
G36*
X520500Y342144D02*
Y340500D01*
X522144D01*
X522072Y340858D01*
X521586Y341586D01*
X520858Y342072D01*
X520500Y342144D01*
D02*
G37*
G36*
X519500D02*
X519142Y342072D01*
X518414Y341586D01*
X517928Y340858D01*
X517856Y340500D01*
X519500D01*
Y342144D01*
D02*
G37*
G36*
X510500D02*
Y340500D01*
X512144D01*
X512072Y340858D01*
X511586Y341586D01*
X510858Y342072D01*
X510500Y342144D01*
D02*
G37*
G36*
X509500D02*
X509142Y342072D01*
X508414Y341586D01*
X507928Y340858D01*
X507856Y340500D01*
X509500D01*
Y342144D01*
D02*
G37*
G36*
X500500D02*
Y340500D01*
X502144D01*
X502072Y340858D01*
X501586Y341586D01*
X500858Y342072D01*
X500500Y342144D01*
D02*
G37*
G36*
X499500D02*
X499142Y342072D01*
X498414Y341586D01*
X497928Y340858D01*
X497856Y340500D01*
X499500D01*
Y342144D01*
D02*
G37*
G36*
X490500D02*
Y340500D01*
X492144D01*
X492072Y340858D01*
X491586Y341586D01*
X490858Y342072D01*
X490500Y342144D01*
D02*
G37*
G36*
X310500D02*
Y340500D01*
X312144D01*
X312072Y340858D01*
X311586Y341586D01*
X310858Y342072D01*
X310500Y342144D01*
D02*
G37*
G36*
X309500D02*
X309142Y342072D01*
X308414Y341586D01*
X307928Y340858D01*
X307856Y340500D01*
X309500D01*
Y342144D01*
D02*
G37*
G36*
X522144Y339500D02*
X520500D01*
Y337856D01*
X520858Y337928D01*
X521586Y338414D01*
X522072Y339142D01*
X522144Y339500D01*
D02*
G37*
G36*
X519500D02*
X517856D01*
X517928Y339142D01*
X518414Y338414D01*
X519142Y337928D01*
X519500Y337856D01*
Y339500D01*
D02*
G37*
G36*
X512144D02*
X510500D01*
Y337856D01*
X510858Y337928D01*
X511586Y338414D01*
X512072Y339142D01*
X512144Y339500D01*
D02*
G37*
G36*
X509500D02*
X507856D01*
X507928Y339142D01*
X508414Y338414D01*
X509142Y337928D01*
X509500Y337856D01*
Y339500D01*
D02*
G37*
G36*
X502144D02*
X500500D01*
Y337856D01*
X500858Y337928D01*
X501586Y338414D01*
X502072Y339142D01*
X502144Y339500D01*
D02*
G37*
G36*
X499500D02*
X497856D01*
X497928Y339142D01*
X498414Y338414D01*
X499142Y337928D01*
X499500Y337856D01*
Y339500D01*
D02*
G37*
G36*
X492144D02*
X490500D01*
Y337856D01*
X490858Y337928D01*
X491586Y338414D01*
X492072Y339142D01*
X492144Y339500D01*
D02*
G37*
G36*
X312144D02*
X310500D01*
Y337856D01*
X310858Y337928D01*
X311586Y338414D01*
X312072Y339142D01*
X312144Y339500D01*
D02*
G37*
G36*
X309500D02*
X307856D01*
X307928Y339142D01*
X308414Y338414D01*
X309142Y337928D01*
X309500Y337856D01*
Y339500D01*
D02*
G37*
G36*
X516272Y334564D02*
X514000D01*
Y332489D01*
X516272D01*
Y334564D01*
D02*
G37*
G36*
X535500Y332144D02*
Y330500D01*
X537144D01*
X537072Y330858D01*
X536586Y331586D01*
X535858Y332072D01*
X535500Y332144D01*
D02*
G37*
G36*
X502292Y334761D02*
X500217D01*
Y331989D01*
Y329217D01*
X502292D01*
Y329950D01*
X505430D01*
Y331989D01*
Y334028D01*
X502292D01*
Y334761D01*
D02*
G37*
G36*
X537144Y329500D02*
X535500D01*
Y327856D01*
X535858Y327928D01*
X536586Y328414D01*
X537072Y329142D01*
X537144Y329500D01*
D02*
G37*
G36*
X535500Y312144D02*
Y310500D01*
X537144D01*
X537072Y310858D01*
X536586Y311586D01*
X535858Y312072D01*
X535500Y312144D01*
D02*
G37*
G36*
X534500D02*
X534142Y312072D01*
X533414Y311586D01*
X532928Y310858D01*
X532856Y310500D01*
X534500D01*
Y312144D01*
D02*
G37*
G36*
X415500D02*
Y310500D01*
X417144D01*
X417072Y310858D01*
X416586Y311586D01*
X415858Y312072D01*
X415500Y312144D01*
D02*
G37*
G36*
X414500D02*
X414142Y312072D01*
X413414Y311586D01*
X412928Y310858D01*
X412856Y310500D01*
X414500D01*
Y312144D01*
D02*
G37*
G36*
X537144Y309500D02*
X535500D01*
Y307856D01*
X535858Y307928D01*
X536586Y308414D01*
X537072Y309142D01*
X537144Y309500D01*
D02*
G37*
G36*
X417144D02*
X415500D01*
Y307856D01*
X415858Y307928D01*
X416586Y308414D01*
X417072Y309142D01*
X417144Y309500D01*
D02*
G37*
G36*
X414500D02*
X412856D01*
X412928Y309142D01*
X413414Y308414D01*
X414142Y307928D01*
X414500Y307856D01*
Y309500D01*
D02*
G37*
G36*
X402144Y299500D02*
X400500D01*
Y297856D01*
X400858Y297928D01*
X401586Y298414D01*
X402072Y299142D01*
X402144Y299500D01*
D02*
G37*
G36*
X530000Y299421D02*
Y296000D01*
X533421D01*
X533351Y296532D01*
X532953Y297493D01*
X532319Y298319D01*
X531493Y298953D01*
X530532Y299351D01*
X530000Y299421D01*
D02*
G37*
G36*
X529000D02*
X528468Y299351D01*
X527507Y298953D01*
X526681Y298319D01*
X526047Y297493D01*
X525649Y296532D01*
X525579Y296000D01*
X529000D01*
Y299421D01*
D02*
G37*
G36*
X498500Y297000D02*
X497060D01*
X497116Y296720D01*
X497558Y296058D01*
X498220Y295616D01*
X498500Y295560D01*
Y297000D01*
D02*
G37*
G36*
X533421Y295000D02*
X530000D01*
Y291579D01*
X530532Y291649D01*
X531493Y292047D01*
X532319Y292681D01*
X532953Y293507D01*
X533351Y294468D01*
X533421Y295000D01*
D02*
G37*
G36*
X529000D02*
X525579D01*
X525649Y294468D01*
X526047Y293507D01*
X526681Y292681D01*
X527507Y292047D01*
X528468Y291649D01*
X529000Y291579D01*
Y295000D01*
D02*
G37*
G36*
X535500Y292144D02*
Y290500D01*
X537144D01*
X537072Y290858D01*
X536586Y291586D01*
X535858Y292072D01*
X535500Y292144D01*
D02*
G37*
G36*
X534500D02*
X534142Y292072D01*
X533414Y291586D01*
X532928Y290858D01*
X532856Y290500D01*
X534500D01*
Y292144D01*
D02*
G37*
G36*
X525500D02*
Y290500D01*
X527144D01*
X527072Y290858D01*
X526586Y291586D01*
X525858Y292072D01*
X525500Y292144D01*
D02*
G37*
G36*
X415500D02*
Y290500D01*
X417144D01*
X417072Y290858D01*
X416586Y291586D01*
X415858Y292072D01*
X415500Y292144D01*
D02*
G37*
G36*
X414500D02*
X414142Y292072D01*
X413414Y291586D01*
X412928Y290858D01*
X412856Y290500D01*
X414500D01*
Y292144D01*
D02*
G37*
G36*
X404500D02*
X404142Y292072D01*
X403414Y291586D01*
X402928Y290858D01*
X402856Y290500D01*
X404500D01*
Y292144D01*
D02*
G37*
G36*
X516978Y294310D02*
X514206D01*
X511434D01*
Y292235D01*
X512167D01*
Y289500D01*
X516245D01*
Y292235D01*
X516978D01*
Y294310D01*
D02*
G37*
G36*
X537144Y289500D02*
X535500D01*
Y287856D01*
X535858Y287928D01*
X536586Y288414D01*
X537072Y289142D01*
X537144Y289500D01*
D02*
G37*
G36*
X534500D02*
X532856D01*
X532928Y289142D01*
X533414Y288414D01*
X534142Y287928D01*
X534500Y287856D01*
Y289500D01*
D02*
G37*
G36*
X527144D02*
X525500D01*
Y287856D01*
X525858Y287928D01*
X526586Y288414D01*
X527072Y289142D01*
X527144Y289500D01*
D02*
G37*
G36*
X417144D02*
X415500D01*
Y287856D01*
X415858Y287928D01*
X416586Y288414D01*
X417072Y289142D01*
X417144Y289500D01*
D02*
G37*
G36*
X414500D02*
X412856D01*
X412928Y289142D01*
X413414Y288414D01*
X414142Y287928D01*
X414500Y287856D01*
Y289500D01*
D02*
G37*
G36*
X516146Y288500D02*
X514706D01*
Y287060D01*
X514986Y287116D01*
X515648Y287558D01*
X516090Y288220D01*
X516146Y288500D01*
D02*
G37*
G36*
X513706D02*
X512266D01*
X512322Y288220D01*
X512764Y287558D01*
X513425Y287116D01*
X513706Y287060D01*
Y288500D01*
D02*
G37*
G36*
X530500Y282144D02*
Y280500D01*
X532144D01*
X532072Y280858D01*
X531586Y281586D01*
X530858Y282072D01*
X530500Y282144D01*
D02*
G37*
G36*
X529500D02*
X529142Y282072D01*
X528414Y281586D01*
X527928Y280858D01*
X527856Y280500D01*
X529500D01*
Y282144D01*
D02*
G37*
G36*
X510500D02*
Y280500D01*
X512144D01*
X512072Y280858D01*
X511586Y281586D01*
X510858Y282072D01*
X510500Y282144D01*
D02*
G37*
G36*
X509500D02*
X509142Y282072D01*
X508414Y281586D01*
X507928Y280858D01*
X507856Y280500D01*
X509500D01*
Y282144D01*
D02*
G37*
G36*
X440500D02*
Y280500D01*
X442144D01*
X442072Y280858D01*
X441586Y281586D01*
X440858Y282072D01*
X440500Y282144D01*
D02*
G37*
G36*
X380500D02*
Y280500D01*
X382144D01*
X382072Y280858D01*
X381586Y281586D01*
X380858Y282072D01*
X380500Y282144D01*
D02*
G37*
G36*
X379500D02*
X379142Y282072D01*
X378414Y281586D01*
X377928Y280858D01*
X377856Y280500D01*
X379500D01*
Y282144D01*
D02*
G37*
G36*
X310500D02*
Y280500D01*
X312144D01*
X312072Y280858D01*
X311586Y281586D01*
X310858Y282072D01*
X310500Y282144D01*
D02*
G37*
G36*
X309500D02*
X309142Y282072D01*
X308414Y281586D01*
X307928Y280858D01*
X307856Y280500D01*
X309500D01*
Y282144D01*
D02*
G37*
G36*
X532144Y279500D02*
X530500D01*
Y277856D01*
X530858Y277928D01*
X531586Y278414D01*
X532072Y279142D01*
X532144Y279500D01*
D02*
G37*
G36*
X529500D02*
X527856D01*
X527928Y279142D01*
X528414Y278414D01*
X529142Y277928D01*
X529500Y277856D01*
Y279500D01*
D02*
G37*
G36*
X512144D02*
X510500D01*
Y277856D01*
X510858Y277928D01*
X511586Y278414D01*
X512072Y279142D01*
X512144Y279500D01*
D02*
G37*
G36*
X509500D02*
X507856D01*
X507928Y279142D01*
X508414Y278414D01*
X509142Y277928D01*
X509500Y277856D01*
Y279500D01*
D02*
G37*
G36*
X442144D02*
X440500D01*
Y277856D01*
X440858Y277928D01*
X441586Y278414D01*
X442072Y279142D01*
X442144Y279500D01*
D02*
G37*
G36*
X439500D02*
X437856D01*
X437928Y279142D01*
X438414Y278414D01*
X439142Y277928D01*
X439500Y277856D01*
Y279500D01*
D02*
G37*
G36*
X382144D02*
X380500D01*
Y277856D01*
X380858Y277928D01*
X381586Y278414D01*
X382072Y279142D01*
X382144Y279500D01*
D02*
G37*
G36*
X379500D02*
X377856D01*
X377928Y279142D01*
X378414Y278414D01*
X379142Y277928D01*
X379500Y277856D01*
Y279500D01*
D02*
G37*
G36*
X312144D02*
X310500D01*
Y277856D01*
X310858Y277928D01*
X311586Y278414D01*
X312072Y279142D01*
X312144Y279500D01*
D02*
G37*
G36*
X309500D02*
X307856D01*
X307928Y279142D01*
X308414Y278414D01*
X309142Y277928D01*
X309500Y277856D01*
Y279500D01*
D02*
G37*
G36*
X535500Y272144D02*
Y270500D01*
X537144D01*
X537072Y270858D01*
X536586Y271586D01*
X535858Y272072D01*
X535500Y272144D01*
D02*
G37*
G36*
X534500D02*
X534142Y272072D01*
X533414Y271586D01*
X532928Y270858D01*
X532856Y270500D01*
X534500D01*
Y272144D01*
D02*
G37*
G36*
X515500D02*
Y270500D01*
X517144D01*
X517072Y270858D01*
X516586Y271586D01*
X515858Y272072D01*
X515500Y272144D01*
D02*
G37*
G36*
X514500D02*
X514142Y272072D01*
X513414Y271586D01*
X512928Y270858D01*
X512856Y270500D01*
X514500D01*
Y272144D01*
D02*
G37*
G36*
X505500D02*
Y270500D01*
X507144D01*
X507072Y270858D01*
X506586Y271586D01*
X505858Y272072D01*
X505500Y272144D01*
D02*
G37*
G36*
X504500D02*
X504142Y272072D01*
X503414Y271586D01*
X502928Y270858D01*
X502856Y270500D01*
X504500D01*
Y272144D01*
D02*
G37*
G36*
X494500D02*
X494142Y272072D01*
X493414Y271586D01*
X492928Y270858D01*
X492856Y270500D01*
X494500D01*
Y272144D01*
D02*
G37*
G36*
X484500D02*
X484142Y272072D01*
X483414Y271586D01*
X482928Y270858D01*
X482856Y270500D01*
X484500D01*
Y272144D01*
D02*
G37*
G36*
X475500D02*
Y270500D01*
X477144D01*
X477072Y270858D01*
X476586Y271586D01*
X475858Y272072D01*
X475500Y272144D01*
D02*
G37*
G36*
X474500D02*
X474142Y272072D01*
X473414Y271586D01*
X472928Y270858D01*
X472856Y270500D01*
X474500D01*
Y272144D01*
D02*
G37*
G36*
X465500D02*
Y270500D01*
X467144D01*
X467072Y270858D01*
X466586Y271586D01*
X465858Y272072D01*
X465500Y272144D01*
D02*
G37*
G36*
X464500D02*
X464142Y272072D01*
X463414Y271586D01*
X462928Y270858D01*
X462856Y270500D01*
X464500D01*
Y272144D01*
D02*
G37*
G36*
X455500D02*
Y270500D01*
X457144D01*
X457072Y270858D01*
X456586Y271586D01*
X455858Y272072D01*
X455500Y272144D01*
D02*
G37*
G36*
X454500D02*
X454142Y272072D01*
X453414Y271586D01*
X452928Y270858D01*
X452856Y270500D01*
X454500D01*
Y272144D01*
D02*
G37*
G36*
X445500D02*
Y270500D01*
X447144D01*
X447072Y270858D01*
X446586Y271586D01*
X445858Y272072D01*
X445500Y272144D01*
D02*
G37*
G36*
X444500D02*
X444142Y272072D01*
X443414Y271586D01*
X442928Y270858D01*
X442856Y270500D01*
X444500D01*
Y272144D01*
D02*
G37*
G36*
X435500D02*
Y270500D01*
X437144D01*
X437072Y270858D01*
X436586Y271586D01*
X435858Y272072D01*
X435500Y272144D01*
D02*
G37*
G36*
X434500D02*
X434142Y272072D01*
X433414Y271586D01*
X432928Y270858D01*
X432856Y270500D01*
X434500D01*
Y272144D01*
D02*
G37*
G36*
X425500D02*
Y270500D01*
X427144D01*
X427072Y270858D01*
X426586Y271586D01*
X425858Y272072D01*
X425500Y272144D01*
D02*
G37*
G36*
X424500D02*
X424142Y272072D01*
X423414Y271586D01*
X422928Y270858D01*
X422856Y270500D01*
X424500D01*
Y272144D01*
D02*
G37*
G36*
X415500D02*
Y270500D01*
X417144D01*
X417072Y270858D01*
X416586Y271586D01*
X415858Y272072D01*
X415500Y272144D01*
D02*
G37*
G36*
X414500D02*
X414142Y272072D01*
X413414Y271586D01*
X412928Y270858D01*
X412856Y270500D01*
X414500D01*
Y272144D01*
D02*
G37*
G36*
X375500D02*
Y270500D01*
X377144D01*
X377072Y270858D01*
X376586Y271586D01*
X375858Y272072D01*
X375500Y272144D01*
D02*
G37*
G36*
X374500D02*
X374142Y272072D01*
X373414Y271586D01*
X372928Y270858D01*
X372856Y270500D01*
X374500D01*
Y272144D01*
D02*
G37*
G36*
X315500D02*
Y270500D01*
X317144D01*
X317072Y270858D01*
X316586Y271586D01*
X315858Y272072D01*
X315500Y272144D01*
D02*
G37*
G36*
X314500D02*
X314142Y272072D01*
X313414Y271586D01*
X312928Y270858D01*
X312856Y270500D01*
X314500D01*
Y272144D01*
D02*
G37*
G36*
X537144Y269500D02*
X535500D01*
Y267856D01*
X535858Y267928D01*
X536586Y268414D01*
X537072Y269142D01*
X537144Y269500D01*
D02*
G37*
G36*
X534500D02*
X532856D01*
X532928Y269142D01*
X533414Y268414D01*
X534142Y267928D01*
X534500Y267856D01*
Y269500D01*
D02*
G37*
G36*
X517144D02*
X515500D01*
Y267856D01*
X515858Y267928D01*
X516586Y268414D01*
X517072Y269142D01*
X517144Y269500D01*
D02*
G37*
G36*
X514500D02*
X512856D01*
X512928Y269142D01*
X513414Y268414D01*
X514142Y267928D01*
X514500Y267856D01*
Y269500D01*
D02*
G37*
G36*
X507144D02*
X505500D01*
Y267856D01*
X505858Y267928D01*
X506586Y268414D01*
X507072Y269142D01*
X507144Y269500D01*
D02*
G37*
G36*
X504500D02*
X502856D01*
X502928Y269142D01*
X503414Y268414D01*
X504142Y267928D01*
X504500Y267856D01*
Y269500D01*
D02*
G37*
G36*
X494500D02*
X492856D01*
X492928Y269142D01*
X493414Y268414D01*
X494142Y267928D01*
X494500Y267856D01*
Y269500D01*
D02*
G37*
G36*
X484500D02*
X482856D01*
X482928Y269142D01*
X483414Y268414D01*
X484142Y267928D01*
X484500Y267856D01*
Y269500D01*
D02*
G37*
G36*
X477144D02*
X475500D01*
Y267856D01*
X475858Y267928D01*
X476586Y268414D01*
X477072Y269142D01*
X477144Y269500D01*
D02*
G37*
G36*
X474500D02*
X472856D01*
X472928Y269142D01*
X473414Y268414D01*
X474142Y267928D01*
X474500Y267856D01*
Y269500D01*
D02*
G37*
G36*
X467144D02*
X465500D01*
Y267856D01*
X465858Y267928D01*
X466586Y268414D01*
X467072Y269142D01*
X467144Y269500D01*
D02*
G37*
G36*
X464500D02*
X462856D01*
X462928Y269142D01*
X463414Y268414D01*
X464142Y267928D01*
X464500Y267856D01*
Y269500D01*
D02*
G37*
G36*
X457144D02*
X455500D01*
Y267856D01*
X455858Y267928D01*
X456586Y268414D01*
X457072Y269142D01*
X457144Y269500D01*
D02*
G37*
G36*
X454500D02*
X452856D01*
X452928Y269142D01*
X453414Y268414D01*
X454142Y267928D01*
X454500Y267856D01*
Y269500D01*
D02*
G37*
G36*
X447144D02*
X445500D01*
Y267856D01*
X445858Y267928D01*
X446586Y268414D01*
X447072Y269142D01*
X447144Y269500D01*
D02*
G37*
G36*
X444500D02*
X442856D01*
X442928Y269142D01*
X443414Y268414D01*
X444142Y267928D01*
X444500Y267856D01*
Y269500D01*
D02*
G37*
G36*
X437144D02*
X435500D01*
Y267856D01*
X435858Y267928D01*
X436586Y268414D01*
X437072Y269142D01*
X437144Y269500D01*
D02*
G37*
G36*
X434500D02*
X432856D01*
X432928Y269142D01*
X433414Y268414D01*
X434142Y267928D01*
X434500Y267856D01*
Y269500D01*
D02*
G37*
G36*
X427144D02*
X425500D01*
Y267856D01*
X425858Y267928D01*
X426586Y268414D01*
X427072Y269142D01*
X427144Y269500D01*
D02*
G37*
G36*
X424500D02*
X422856D01*
X422928Y269142D01*
X423414Y268414D01*
X424142Y267928D01*
X424500Y267856D01*
Y269500D01*
D02*
G37*
G36*
X417144D02*
X415500D01*
Y267856D01*
X415858Y267928D01*
X416586Y268414D01*
X417072Y269142D01*
X417144Y269500D01*
D02*
G37*
G36*
X414500D02*
X412856D01*
X412928Y269142D01*
X413414Y268414D01*
X414142Y267928D01*
X414500Y267856D01*
Y269500D01*
D02*
G37*
G36*
X377144D02*
X375500D01*
Y267856D01*
X375858Y267928D01*
X376586Y268414D01*
X377072Y269142D01*
X377144Y269500D01*
D02*
G37*
G36*
X374500D02*
X372856D01*
X372928Y269142D01*
X373414Y268414D01*
X374142Y267928D01*
X374500Y267856D01*
Y269500D01*
D02*
G37*
G36*
X367144D02*
X365500D01*
Y267856D01*
X365858Y267928D01*
X366586Y268414D01*
X367072Y269142D01*
X367144Y269500D01*
D02*
G37*
G36*
X317144D02*
X315500D01*
Y267856D01*
X315858Y267928D01*
X316586Y268414D01*
X317072Y269142D01*
X317144Y269500D01*
D02*
G37*
G36*
X314500D02*
X312856D01*
X312928Y269142D01*
X313414Y268414D01*
X314142Y267928D01*
X314500Y267856D01*
Y269500D01*
D02*
G37*
G36*
X345000Y264940D02*
Y263500D01*
X346440D01*
X346384Y263780D01*
X345942Y264442D01*
X345280Y264884D01*
X345000Y264940D01*
D02*
G37*
G36*
X480217Y266421D02*
Y263000D01*
X483638D01*
X483568Y263532D01*
X483170Y264493D01*
X482536Y265319D01*
X481710Y265953D01*
X480749Y266351D01*
X480217Y266421D01*
D02*
G37*
G36*
X479217D02*
X478685Y266351D01*
X477723Y265953D01*
X476898Y265319D01*
X476264Y264493D01*
X475866Y263532D01*
X475796Y263000D01*
X479217D01*
Y266421D01*
D02*
G37*
G36*
X516046Y263893D02*
X515766Y263838D01*
X515105Y263395D01*
X514663Y262734D01*
X514607Y262454D01*
X516046D01*
Y263893D01*
D02*
G37*
G36*
X346440Y262500D02*
X345000D01*
Y261060D01*
X345280Y261116D01*
X345942Y261558D01*
X346384Y262220D01*
X346440Y262500D01*
D02*
G37*
G36*
X530500Y262144D02*
Y260500D01*
X532144D01*
X532072Y260858D01*
X531586Y261586D01*
X530858Y262072D01*
X530500Y262144D01*
D02*
G37*
G36*
X529500D02*
X529142Y262072D01*
X528414Y261586D01*
X527928Y260858D01*
X527856Y260500D01*
X529500D01*
Y262144D01*
D02*
G37*
G36*
X510500D02*
Y260500D01*
X512144D01*
X512072Y260858D01*
X511586Y261586D01*
X510858Y262072D01*
X510500Y262144D01*
D02*
G37*
G36*
X509500D02*
X509142Y262072D01*
X508414Y261586D01*
X507928Y260858D01*
X507856Y260500D01*
X509500D01*
Y262144D01*
D02*
G37*
G36*
X470500D02*
Y260500D01*
X472144D01*
X472072Y260858D01*
X471586Y261586D01*
X470858Y262072D01*
X470500Y262144D01*
D02*
G37*
G36*
X469500D02*
X469142Y262072D01*
X468414Y261586D01*
X467928Y260858D01*
X467856Y260500D01*
X469500D01*
Y262144D01*
D02*
G37*
G36*
X460500D02*
Y260500D01*
X462144D01*
X462072Y260858D01*
X461586Y261586D01*
X460858Y262072D01*
X460500Y262144D01*
D02*
G37*
G36*
X459500D02*
X459142Y262072D01*
X458414Y261586D01*
X457928Y260858D01*
X457856Y260500D01*
X459500D01*
Y262144D01*
D02*
G37*
G36*
X450500D02*
Y260500D01*
X452144D01*
X452072Y260858D01*
X451586Y261586D01*
X450858Y262072D01*
X450500Y262144D01*
D02*
G37*
G36*
X449500D02*
X449142Y262072D01*
X448414Y261586D01*
X447928Y260858D01*
X447856Y260500D01*
X449500D01*
Y262144D01*
D02*
G37*
G36*
X440500D02*
Y260500D01*
X442144D01*
X442072Y260858D01*
X441586Y261586D01*
X440858Y262072D01*
X440500Y262144D01*
D02*
G37*
G36*
X439500D02*
X439142Y262072D01*
X438414Y261586D01*
X437928Y260858D01*
X437856Y260500D01*
X439500D01*
Y262144D01*
D02*
G37*
G36*
X430500D02*
Y260500D01*
X432144D01*
X432072Y260858D01*
X431586Y261586D01*
X430858Y262072D01*
X430500Y262144D01*
D02*
G37*
G36*
X429500D02*
X429142Y262072D01*
X428414Y261586D01*
X427928Y260858D01*
X427856Y260500D01*
X429500D01*
Y262144D01*
D02*
G37*
G36*
X420500D02*
Y260500D01*
X422144D01*
X422072Y260858D01*
X421586Y261586D01*
X420858Y262072D01*
X420500Y262144D01*
D02*
G37*
G36*
X419500D02*
X419142Y262072D01*
X418414Y261586D01*
X417928Y260858D01*
X417856Y260500D01*
X419500D01*
Y262144D01*
D02*
G37*
G36*
X380500D02*
Y260500D01*
X382144D01*
X382072Y260858D01*
X381586Y261586D01*
X380858Y262072D01*
X380500Y262144D01*
D02*
G37*
G36*
X379500D02*
X379142Y262072D01*
X378414Y261586D01*
X377928Y260858D01*
X377856Y260500D01*
X379500D01*
Y262144D01*
D02*
G37*
G36*
X370500D02*
Y260500D01*
X372144D01*
X372072Y260858D01*
X371586Y261586D01*
X370858Y262072D01*
X370500Y262144D01*
D02*
G37*
G36*
X369500D02*
X369142Y262072D01*
X368414Y261586D01*
X367928Y260858D01*
X367856Y260500D01*
X369500D01*
Y262144D01*
D02*
G37*
G36*
X360500D02*
Y260500D01*
X362144D01*
X362072Y260858D01*
X361586Y261586D01*
X360858Y262072D01*
X360500Y262144D01*
D02*
G37*
G36*
X359500D02*
X359142Y262072D01*
X358414Y261586D01*
X357928Y260858D01*
X357856Y260500D01*
X359500D01*
Y262144D01*
D02*
G37*
G36*
X350500D02*
Y260500D01*
X352144D01*
X352072Y260858D01*
X351586Y261586D01*
X350858Y262072D01*
X350500Y262144D01*
D02*
G37*
G36*
X349500D02*
X349142Y262072D01*
X348414Y261586D01*
X347928Y260858D01*
X347856Y260500D01*
X349500D01*
Y262144D01*
D02*
G37*
G36*
X340559Y265500D02*
X338559D01*
Y263000D01*
Y260500D01*
X340559D01*
Y260961D01*
X344000D01*
Y263000D01*
Y265039D01*
X340559D01*
Y265500D01*
D02*
G37*
G36*
X320500Y262144D02*
Y260500D01*
X322144D01*
X322072Y260858D01*
X321586Y261586D01*
X320858Y262072D01*
X320500Y262144D01*
D02*
G37*
G36*
X319500D02*
X319142Y262072D01*
X318414Y261586D01*
X317928Y260858D01*
X317856Y260500D01*
X319500D01*
Y262144D01*
D02*
G37*
G36*
X310500D02*
Y260500D01*
X312144D01*
X312072Y260858D01*
X311586Y261586D01*
X310858Y262072D01*
X310500Y262144D01*
D02*
G37*
G36*
X309500D02*
X309142Y262072D01*
X308414Y261586D01*
X307928Y260858D01*
X307856Y260500D01*
X309500D01*
Y262144D01*
D02*
G37*
G36*
X516046Y261454D02*
X514607D01*
X514663Y261173D01*
X515105Y260512D01*
X515766Y260069D01*
X516046Y260014D01*
Y261454D01*
D02*
G37*
G36*
X524201D02*
X522000D01*
Y259366D01*
X524201D01*
Y261454D01*
D02*
G37*
G36*
X524575Y279609D02*
X518425D01*
Y273460D01*
X519461D01*
Y270972D01*
X518299D01*
Y264797D01*
X518405D01*
X518512Y264727D01*
X518567Y264114D01*
X518446Y263993D01*
X517046D01*
Y261953D01*
Y259914D01*
X518799D01*
Y259366D01*
X521000D01*
Y261953D01*
X521500D01*
Y262454D01*
X524201D01*
Y264297D01*
X524201Y264541D01*
X524595Y264797D01*
X524701D01*
Y270972D01*
X523539D01*
Y273460D01*
X524575D01*
Y279609D01*
D02*
G37*
G36*
X483638Y262000D02*
X480217D01*
Y258579D01*
X480749Y258649D01*
X481710Y259047D01*
X482536Y259681D01*
X483170Y260507D01*
X483568Y261468D01*
X483638Y262000D01*
D02*
G37*
G36*
X479217D02*
X475796D01*
X475866Y261468D01*
X476264Y260507D01*
X476898Y259681D01*
X477723Y259047D01*
X478685Y258649D01*
X479217Y258579D01*
Y262000D01*
D02*
G37*
G36*
X532144Y259500D02*
X530500D01*
Y257856D01*
X530858Y257928D01*
X531586Y258414D01*
X532072Y259142D01*
X532144Y259500D01*
D02*
G37*
G36*
X529500D02*
X527856D01*
X527928Y259142D01*
X528414Y258414D01*
X529142Y257928D01*
X529500Y257856D01*
Y259500D01*
D02*
G37*
G36*
X512144D02*
X510500D01*
Y257856D01*
X510858Y257928D01*
X511586Y258414D01*
X512072Y259142D01*
X512144Y259500D01*
D02*
G37*
G36*
X509500D02*
X507856D01*
X507928Y259142D01*
X508414Y258414D01*
X509142Y257928D01*
X509500Y257856D01*
Y259500D01*
D02*
G37*
G36*
X472144D02*
X470500D01*
Y257856D01*
X470858Y257928D01*
X471586Y258414D01*
X472072Y259142D01*
X472144Y259500D01*
D02*
G37*
G36*
X469500D02*
X467856D01*
X467928Y259142D01*
X468414Y258414D01*
X469142Y257928D01*
X469500Y257856D01*
Y259500D01*
D02*
G37*
G36*
X462144D02*
X460500D01*
Y257856D01*
X460858Y257928D01*
X461586Y258414D01*
X462072Y259142D01*
X462144Y259500D01*
D02*
G37*
G36*
X459500D02*
X457856D01*
X457928Y259142D01*
X458414Y258414D01*
X459142Y257928D01*
X459500Y257856D01*
Y259500D01*
D02*
G37*
G36*
X452144D02*
X450500D01*
Y257856D01*
X450858Y257928D01*
X451586Y258414D01*
X452072Y259142D01*
X452144Y259500D01*
D02*
G37*
G36*
X449500D02*
X447856D01*
X447928Y259142D01*
X448414Y258414D01*
X449142Y257928D01*
X449500Y257856D01*
Y259500D01*
D02*
G37*
G36*
X442144D02*
X440500D01*
Y257856D01*
X440858Y257928D01*
X441586Y258414D01*
X442072Y259142D01*
X442144Y259500D01*
D02*
G37*
G36*
X439500D02*
X437856D01*
X437928Y259142D01*
X438414Y258414D01*
X439142Y257928D01*
X439500Y257856D01*
Y259500D01*
D02*
G37*
G36*
X432144D02*
X430500D01*
Y257856D01*
X430858Y257928D01*
X431586Y258414D01*
X432072Y259142D01*
X432144Y259500D01*
D02*
G37*
G36*
X429500D02*
X427856D01*
X427928Y259142D01*
X428414Y258414D01*
X429142Y257928D01*
X429500Y257856D01*
Y259500D01*
D02*
G37*
G36*
X422144D02*
X420500D01*
Y257856D01*
X420858Y257928D01*
X421586Y258414D01*
X422072Y259142D01*
X422144Y259500D01*
D02*
G37*
G36*
X419500D02*
X417856D01*
X417928Y259142D01*
X418414Y258414D01*
X419142Y257928D01*
X419500Y257856D01*
Y259500D01*
D02*
G37*
G36*
X382144D02*
X380500D01*
Y257856D01*
X380858Y257928D01*
X381586Y258414D01*
X382072Y259142D01*
X382144Y259500D01*
D02*
G37*
G36*
X379500D02*
X377856D01*
X377928Y259142D01*
X378414Y258414D01*
X379142Y257928D01*
X379500Y257856D01*
Y259500D01*
D02*
G37*
G36*
X372144D02*
X370500D01*
Y257856D01*
X370858Y257928D01*
X371586Y258414D01*
X372072Y259142D01*
X372144Y259500D01*
D02*
G37*
G36*
X369500D02*
X367856D01*
X367928Y259142D01*
X368414Y258414D01*
X369142Y257928D01*
X369500Y257856D01*
Y259500D01*
D02*
G37*
G36*
X362144D02*
X360500D01*
Y257856D01*
X360858Y257928D01*
X361586Y258414D01*
X362072Y259142D01*
X362144Y259500D01*
D02*
G37*
G36*
X359500D02*
X357856D01*
X357928Y259142D01*
X358414Y258414D01*
X359142Y257928D01*
X359500Y257856D01*
Y259500D01*
D02*
G37*
G36*
X352144D02*
X350500D01*
Y257856D01*
X350858Y257928D01*
X351586Y258414D01*
X352072Y259142D01*
X352144Y259500D01*
D02*
G37*
G36*
X349500D02*
X347856D01*
X347928Y259142D01*
X348414Y258414D01*
X349142Y257928D01*
X349500Y257856D01*
Y259500D01*
D02*
G37*
G36*
X322144D02*
X320500D01*
Y257856D01*
X320858Y257928D01*
X321586Y258414D01*
X322072Y259142D01*
X322144Y259500D01*
D02*
G37*
G36*
X319500D02*
X317856D01*
X317928Y259142D01*
X318414Y258414D01*
X319142Y257928D01*
X319500Y257856D01*
Y259500D01*
D02*
G37*
G36*
X312144D02*
X310500D01*
Y257856D01*
X310858Y257928D01*
X311586Y258414D01*
X312072Y259142D01*
X312144Y259500D01*
D02*
G37*
G36*
X309500D02*
X307856D01*
X307928Y259142D01*
X308414Y258414D01*
X309142Y257928D01*
X309500Y257856D01*
Y259500D01*
D02*
G37*
%LPD*%
G36*
X372000Y378602D02*
X372789Y378706D01*
X373990Y379203D01*
X375021Y379995D01*
X375813Y381026D01*
X375979Y381429D01*
X376479Y381429D01*
X376751Y380774D01*
X377622Y379638D01*
X378758Y378766D01*
X380081Y378219D01*
X381500Y378032D01*
X382919Y378219D01*
X384242Y378766D01*
X384382Y378874D01*
X398500Y364756D01*
X398308Y364294D01*
X378786D01*
X378348Y364445D01*
X378348Y364919D01*
X378702Y365273D01*
X380322D01*
Y367822D01*
Y370371D01*
X378348D01*
Y371199D01*
X374500D01*
Y367822D01*
Y364445D01*
X375709D01*
X375861Y363945D01*
X375378Y363622D01*
X372378Y360622D01*
X371999Y360055D01*
X369151D01*
Y359204D01*
X368349D01*
Y360055D01*
X358651D01*
Y359204D01*
X357348D01*
Y360055D01*
X347652D01*
Y359204D01*
X347178D01*
X346395Y359101D01*
X345665Y358799D01*
X345039Y358318D01*
X342580Y355859D01*
X342118Y356051D01*
Y356500D01*
X340118D01*
Y354500D01*
X340688D01*
X340909Y354052D01*
X340880Y354013D01*
X340577Y353283D01*
X340474Y352500D01*
Y352306D01*
X340443Y352265D01*
X340090Y351414D01*
X339970Y350500D01*
Y343871D01*
X339668Y343144D01*
X339141Y342964D01*
X338361Y343744D01*
X337534Y344296D01*
X337249Y344353D01*
X337124Y344888D01*
X337356Y345066D01*
X337777Y345615D01*
X338042Y346255D01*
X338133Y346941D01*
X338042Y347628D01*
X337777Y348268D01*
X337356Y348817D01*
X336807Y349238D01*
X336167Y349503D01*
X335480Y349594D01*
X329726D01*
X329040Y349503D01*
X329008Y349490D01*
X327318D01*
X327148Y349990D01*
X327353Y350147D01*
X327994Y350983D01*
X328397Y351956D01*
X328535Y353000D01*
X328397Y354044D01*
X328224Y354461D01*
X328559Y354961D01*
X331500D01*
Y354000D01*
X337500D01*
Y354500D01*
X339118D01*
Y357000D01*
X339618D01*
Y357500D01*
X342118D01*
Y359500D01*
X341657D01*
Y360618D01*
X337579D01*
Y360467D01*
X337500Y360000D01*
X331500D01*
Y359039D01*
X328030D01*
Y365970D01*
X332678D01*
X333592Y366090D01*
X334443Y366443D01*
X335174Y367004D01*
X335377Y367206D01*
X342500D01*
X342992Y367304D01*
X343238Y366843D01*
X343198Y366802D01*
X342645Y365975D01*
X342550Y365500D01*
X345000D01*
Y365000D01*
X345500D01*
Y362550D01*
X345975Y362645D01*
X346802Y363198D01*
X347778Y364173D01*
X348152Y364445D01*
Y364445D01*
X348152Y364445D01*
X352000D01*
Y367822D01*
Y371199D01*
X348151D01*
Y370371D01*
X347822D01*
X347198Y370247D01*
X346952Y370708D01*
X347950Y371706D01*
X351000D01*
X351878Y371881D01*
X352622Y372378D01*
X358323Y378079D01*
X366937D01*
Y380531D01*
X367437Y380701D01*
X367979Y379995D01*
X369010Y379203D01*
X370211Y378706D01*
X371000Y378602D01*
Y384500D01*
X372000D01*
Y378602D01*
D02*
G37*
G36*
X435563Y366583D02*
X439261D01*
Y365200D01*
X439416Y364420D01*
X439858Y363758D01*
X456558Y347058D01*
X457220Y346616D01*
X458000Y346461D01*
X458000Y346461D01*
X460552D01*
X461025Y346145D01*
X462000Y345951D01*
X462976Y346145D01*
X463220Y346308D01*
X463661Y346073D01*
Y343413D01*
X463407Y343019D01*
X457005D01*
Y341801D01*
X456505Y341752D01*
X456394Y342309D01*
X455897Y343053D01*
X435328Y363622D01*
X434584Y364120D01*
X433706Y364294D01*
X416756D01*
X416409Y364794D01*
X416549Y365500D01*
X416355Y366476D01*
X416294Y366567D01*
Y368206D01*
X424500D01*
Y367500D01*
X430500D01*
Y368461D01*
X435563D01*
Y366583D01*
D02*
G37*
G36*
X369151Y352301D02*
X375904D01*
X376095Y351839D01*
X373491Y349235D01*
X358604D01*
X358600Y349238D01*
X357960Y349503D01*
X357274Y349594D01*
X351520D01*
X350833Y349503D01*
X350193Y349238D01*
X349644Y348817D01*
X349222Y348268D01*
X348957Y347628D01*
X348867Y346941D01*
X348957Y346255D01*
X349222Y345615D01*
X349336Y345467D01*
X349089Y344967D01*
X347030D01*
Y350500D01*
X346910Y351414D01*
X346846Y351567D01*
X347290Y352011D01*
X347652Y352301D01*
Y352301D01*
X347652Y352301D01*
X357348D01*
Y353152D01*
X358651D01*
Y352301D01*
X368349D01*
Y353152D01*
X369151D01*
Y352301D01*
D02*
G37*
G36*
X476236Y344881D02*
Y343759D01*
X475187D01*
Y340850D01*
X474725Y340658D01*
X474011Y341373D01*
X473349Y341815D01*
X472569Y341970D01*
X471978D01*
Y343006D01*
X467739D01*
Y345943D01*
X468180Y346179D01*
X468230Y346145D01*
X469206Y345951D01*
X470181Y346145D01*
X470654Y346461D01*
X474655D01*
X476236Y344881D01*
D02*
G37*
G36*
X435206Y348050D02*
Y331036D01*
X434299D01*
Y324311D01*
X431779D01*
X431613Y324801D01*
X431620Y324819D01*
X432002Y325112D01*
X432430Y325670D01*
X432699Y326320D01*
X432791Y327017D01*
X432699Y327714D01*
X432430Y328364D01*
X432002Y328922D01*
X431444Y329350D01*
X430794Y329620D01*
X430096Y329711D01*
X428916D01*
Y332159D01*
X431468D01*
Y339490D01*
X421776D01*
Y338118D01*
X421118D01*
Y338824D01*
X415294D01*
Y340500D01*
X415119Y341378D01*
X414622Y342122D01*
X412622Y344122D01*
X411878Y344619D01*
X411000Y344794D01*
X406928D01*
X406597Y345294D01*
X406725Y345938D01*
Y346799D01*
X407519D01*
Y347214D01*
X407905Y347531D01*
X408309Y347451D01*
X408713Y347531D01*
X409099Y347214D01*
Y346799D01*
X421206D01*
Y347706D01*
X421776D01*
Y345545D01*
X431468D01*
Y351134D01*
X431930Y351325D01*
X435206Y348050D01*
D02*
G37*
G36*
X371761Y344147D02*
X371622Y344120D01*
X370878Y343622D01*
X366491Y339235D01*
X358859D01*
X358719Y339735D01*
X359149Y340066D01*
X359571Y340615D01*
X359836Y341255D01*
X359926Y341941D01*
X359836Y342628D01*
X359571Y343268D01*
X359149Y343817D01*
X358719Y344147D01*
X358859Y344647D01*
X371712D01*
X371761Y344147D01*
D02*
G37*
G36*
X373946Y331319D02*
X373882Y331000D01*
X374076Y330025D01*
X374392Y329552D01*
Y326468D01*
X373431D01*
Y325968D01*
X371813D01*
Y323468D01*
Y320968D01*
X373077D01*
X373158Y320887D01*
X373093Y320255D01*
X373035Y320218D01*
X367412D01*
Y319294D01*
X358501D01*
X358497Y319297D01*
X357857Y319562D01*
X357170Y319653D01*
X351416D01*
X350730Y319562D01*
X350090Y319297D01*
X349541Y318876D01*
X349119Y318326D01*
X348854Y317687D01*
X348764Y317000D01*
X348854Y316314D01*
X349119Y315674D01*
X349220Y315543D01*
X348973Y315043D01*
X347030D01*
Y327570D01*
X347397Y328456D01*
X347534Y329500D01*
X347462Y330050D01*
X347936Y330283D01*
X348080Y330139D01*
X348907Y329586D01*
X349883Y329392D01*
X350801D01*
X350833Y329379D01*
X351520Y329289D01*
X357274D01*
X357960Y329379D01*
X358600Y329644D01*
X358604Y329647D01*
X368441D01*
X369319Y329822D01*
X370063Y330319D01*
X371450Y331706D01*
X373628D01*
X373946Y331319D01*
D02*
G37*
G36*
X384154Y337256D02*
Y332142D01*
X393345D01*
X393497Y331642D01*
X393414Y331586D01*
X392928Y330858D01*
X392856Y330500D01*
X395000D01*
Y329500D01*
X392621D01*
X392400Y329231D01*
X389782D01*
X389378Y329311D01*
X382500D01*
X381622Y329136D01*
X380878Y328639D01*
X380381Y327895D01*
X380206Y327017D01*
X380356Y326262D01*
X380077Y325762D01*
X379431D01*
Y326468D01*
X378470D01*
Y329552D01*
X378786Y330025D01*
X378980Y331000D01*
X378786Y331976D01*
X378550Y332329D01*
X378622Y332378D01*
X383692Y337447D01*
X384154Y337256D01*
D02*
G37*
G36*
X462757Y330000D02*
X462757Y330000D01*
X462928Y329142D01*
X463414Y328414D01*
X464142Y327928D01*
X464500Y327856D01*
Y330000D01*
X465500D01*
Y327856D01*
X465858Y327928D01*
X466167Y328134D01*
X466667Y327866D01*
Y326524D01*
X465934D01*
Y324449D01*
X468706D01*
Y323449D01*
X465934D01*
Y321513D01*
X465434D01*
Y320477D01*
X463293D01*
Y321749D01*
X462245D01*
Y330348D01*
X462322Y330376D01*
X462757Y330000D01*
D02*
G37*
G36*
X421776Y332159D02*
X424328D01*
Y329711D01*
X423148D01*
X422450Y329620D01*
X421801Y329350D01*
X421242Y328922D01*
X420814Y328364D01*
X420545Y327714D01*
X420453Y327017D01*
X420545Y326320D01*
X420814Y325670D01*
X421242Y325112D01*
X421625Y324819D01*
X421661Y324723D01*
Y324311D01*
X421625Y324215D01*
X421242Y323922D01*
X420814Y323364D01*
X420545Y322714D01*
X420453Y322017D01*
X420545Y321320D01*
X420814Y320670D01*
X421242Y320112D01*
X421625Y319819D01*
X421631Y319801D01*
X421465Y319311D01*
X416433D01*
X415294Y320450D01*
Y332824D01*
X421118D01*
Y333530D01*
X421776D01*
Y332159D01*
D02*
G37*
G36*
X397646Y329465D02*
Y316905D01*
X395053Y314311D01*
X394535D01*
X394369Y314801D01*
X394375Y314819D01*
X394758Y315112D01*
X395186Y315670D01*
X395455Y316320D01*
X395547Y317017D01*
X395455Y317714D01*
X395186Y318364D01*
X394758Y318922D01*
X394375Y319215D01*
X394339Y319311D01*
Y319723D01*
X394375Y319819D01*
X394758Y320112D01*
X395186Y320670D01*
X395455Y321320D01*
X395547Y322017D01*
X395455Y322714D01*
X395186Y323364D01*
X394758Y323922D01*
X394199Y324350D01*
X393830Y324503D01*
X393797Y324623D01*
X393817Y325050D01*
X394418Y325452D01*
X394898Y326170D01*
X394967Y326517D01*
X389378D01*
Y327517D01*
X394967D01*
X394933Y327689D01*
X395000Y327757D01*
X395858Y327928D01*
X396586Y328414D01*
X397072Y329142D01*
X397147Y329515D01*
X397646Y329465D01*
D02*
G37*
G36*
X434299Y318929D02*
X440417D01*
Y315201D01*
X433693D01*
Y314294D01*
X431757D01*
X431598Y314762D01*
X431620Y314819D01*
X432002Y315112D01*
X432430Y315670D01*
X432699Y316320D01*
X432791Y317017D01*
X432699Y317714D01*
X432430Y318364D01*
X432002Y318922D01*
X431620Y319215D01*
X431613Y319233D01*
X431779Y319723D01*
X434299D01*
Y318929D01*
D02*
G37*
G36*
X340874Y334021D02*
X341556Y333566D01*
X341560Y333026D01*
X341483Y332994D01*
X340647Y332353D01*
X340006Y331517D01*
X339603Y330544D01*
X339465Y329500D01*
X339603Y328456D01*
X339970Y327570D01*
Y313947D01*
X339603Y313061D01*
X339553Y312685D01*
X339080Y312525D01*
X337802Y313802D01*
X337027Y314321D01*
X336953Y314597D01*
X336927Y314874D01*
X337253Y315124D01*
X337674Y315674D01*
X337939Y316314D01*
X338030Y317000D01*
X337939Y317687D01*
X337674Y318326D01*
X337253Y318876D01*
X336703Y319297D01*
X336660Y319315D01*
X336612Y319877D01*
X337060Y320176D01*
X337502Y320838D01*
X337558Y321118D01*
X335618D01*
Y322118D01*
X337657D01*
Y322500D01*
X338118D01*
Y324500D01*
X335618D01*
Y325000D01*
X335118D01*
Y327500D01*
X333500D01*
Y328000D01*
X328030D01*
Y328915D01*
X332603D01*
X333386Y329018D01*
X334039Y329289D01*
X335480D01*
X336167Y329379D01*
X336807Y329644D01*
X337356Y330066D01*
X337777Y330615D01*
X338042Y331255D01*
X338133Y331941D01*
X338042Y332628D01*
X337777Y333268D01*
X337356Y333817D01*
X336921Y334150D01*
X336877Y334342D01*
Y334540D01*
X336921Y334732D01*
X337356Y335066D01*
X337777Y335615D01*
X338011Y336177D01*
X338504Y336391D01*
X340874Y334021D01*
D02*
G37*
G36*
X449757Y342705D02*
X449592Y342162D01*
X449142Y342072D01*
X448414Y341586D01*
X447928Y340858D01*
X447856Y340500D01*
X450000D01*
Y340000D01*
X450500D01*
Y337856D01*
X450858Y337928D01*
X451481Y338344D01*
X451981Y338173D01*
Y321749D01*
X451187D01*
Y315348D01*
X463293D01*
Y316399D01*
X465434D01*
Y315363D01*
X466667D01*
Y314891D01*
X466822Y314111D01*
X467264Y313449D01*
X468058Y312655D01*
X468720Y312213D01*
X469500Y312058D01*
X470553D01*
X470869Y311558D01*
X470826Y311467D01*
X466131D01*
Y310967D01*
X464195D01*
Y308195D01*
X463195D01*
Y310967D01*
X461120D01*
Y310234D01*
X457695D01*
Y308195D01*
X457195D01*
Y307695D01*
X455255D01*
X455311Y307415D01*
X455726Y306793D01*
X455680Y306594D01*
X455541Y306293D01*
X440591D01*
X438585Y308299D01*
X438792Y308799D01*
X445799D01*
Y315201D01*
X445006D01*
Y346803D01*
X445468Y346994D01*
X449757Y342705D01*
D02*
G37*
G36*
X402765Y311040D02*
X396036Y304311D01*
X394535D01*
X394369Y304801D01*
X394375Y304819D01*
X394758Y305112D01*
X395186Y305670D01*
X395455Y306320D01*
X395547Y307017D01*
X395455Y307714D01*
X395186Y308364D01*
X394758Y308922D01*
X394375Y309215D01*
X394369Y309233D01*
X394535Y309723D01*
X396003D01*
X396881Y309898D01*
X397625Y310395D01*
X401563Y314333D01*
X402060Y315077D01*
X402235Y315955D01*
Y332807D01*
X402765D01*
Y311040D01*
D02*
G37*
G36*
X384387Y304233D02*
X384381Y304215D01*
X383998Y303922D01*
X383570Y303364D01*
X383301Y302714D01*
X383209Y302017D01*
X383301Y301320D01*
X383570Y300670D01*
X383998Y300112D01*
X384381Y299819D01*
X384387Y299801D01*
X384221Y299311D01*
X379519D01*
Y300218D01*
X367412D01*
Y299290D01*
X366639Y299136D01*
X365895Y298639D01*
X360878Y293622D01*
X360381Y292878D01*
X360206Y292000D01*
Y289950D01*
X359067Y288811D01*
X358460Y289062D01*
X357774Y289153D01*
X352020D01*
X351333Y289062D01*
X350693Y288797D01*
X350144Y288376D01*
X349723Y287826D01*
X349458Y287187D01*
X349367Y286500D01*
X349458Y285813D01*
X349723Y285174D01*
X349836Y285026D01*
X349589Y284526D01*
X348525D01*
X347030Y286021D01*
Y298391D01*
X347397Y299277D01*
X347479Y299902D01*
X347627Y300008D01*
X348012Y300117D01*
X348718Y299645D01*
X349693Y299451D01*
X350698D01*
X350730Y299438D01*
X351416Y299347D01*
X357170D01*
X357857Y299438D01*
X358497Y299703D01*
X358501Y299706D01*
X361483D01*
X362361Y299881D01*
X363105Y300378D01*
X364618Y301891D01*
X364725Y301912D01*
X365552Y302465D01*
X366105Y303292D01*
X366299Y304267D01*
X366289Y304319D01*
X366606Y304706D01*
X367412D01*
Y303816D01*
X379519D01*
Y304723D01*
X384221D01*
X384387Y304233D01*
D02*
G37*
G36*
X500485Y313979D02*
Y310041D01*
Y306104D01*
Y302360D01*
X498524D01*
X493219Y307665D01*
X492557Y308107D01*
X491777Y308262D01*
X489287D01*
X489091Y308500D01*
X487000D01*
Y309000D01*
X486500D01*
Y310940D01*
X486265Y310893D01*
X486137Y310911D01*
X485765Y311110D01*
Y314026D01*
X494065D01*
X494845Y314181D01*
X495507Y314623D01*
X498851Y317967D01*
X500485D01*
Y313979D01*
D02*
G37*
G36*
X489738Y290163D02*
X489198Y289802D01*
X488645Y288976D01*
X488560Y288548D01*
X488018Y288383D01*
X486453Y289948D01*
X485791Y290390D01*
X485765Y290395D01*
Y292565D01*
Y296258D01*
Y300196D01*
Y304184D01*
X489738D01*
Y290163D01*
D02*
G37*
G36*
X477647Y288056D02*
Y286416D01*
X484218D01*
X485278Y285355D01*
X485133Y284876D01*
X485024Y284855D01*
X484198Y284302D01*
X483645Y283475D01*
X483534Y282918D01*
X481655Y281039D01*
X477571D01*
X477419Y281539D01*
X477431Y281547D01*
X477873Y282209D01*
X477929Y282489D01*
X475989D01*
Y282989D01*
X475489D01*
Y285028D01*
X474726D01*
X474477Y285425D01*
Y286461D01*
X474500D01*
X475280Y286616D01*
X475942Y287058D01*
X477147Y288263D01*
X477647Y288056D01*
D02*
G37*
G36*
X340704Y303691D02*
X340671Y303192D01*
X340647Y303174D01*
X340006Y302338D01*
X339603Y301365D01*
X339465Y300321D01*
X339603Y299277D01*
X339970Y298391D01*
Y284559D01*
X340090Y283645D01*
X340443Y282794D01*
X341004Y282063D01*
X344062Y279004D01*
X344794Y278443D01*
X345645Y278090D01*
X346559Y277970D01*
X347472Y278090D01*
X348324Y278443D01*
X348365Y278474D01*
X349589D01*
X349836Y277974D01*
X349723Y277826D01*
X349458Y277186D01*
X349367Y276500D01*
X349458Y275814D01*
X349723Y275174D01*
X350144Y274624D01*
X350242Y274549D01*
X350073Y274049D01*
X348249D01*
X338996Y283302D01*
X338169Y283855D01*
X337776Y283933D01*
X337652Y284468D01*
X337856Y284624D01*
X338278Y285174D01*
X338543Y285813D01*
X338633Y286500D01*
X338543Y287187D01*
X338278Y287826D01*
X337856Y288376D01*
X337307Y288797D01*
X336898Y288966D01*
X336832Y289524D01*
X337060Y289676D01*
X337502Y290338D01*
X337558Y290618D01*
X335618D01*
Y291618D01*
X337657D01*
Y292500D01*
X338118D01*
Y294500D01*
X335618D01*
Y295000D01*
X335118D01*
Y297500D01*
X333500D01*
Y298000D01*
X328030D01*
Y298974D01*
X332500D01*
X333283Y299077D01*
X333935Y299347D01*
X335377D01*
X336064Y299438D01*
X336703Y299703D01*
X337253Y300124D01*
X337674Y300674D01*
X337939Y301313D01*
X338030Y302000D01*
X337939Y302687D01*
X337674Y303326D01*
X337253Y303876D01*
X336818Y304209D01*
X336773Y304401D01*
Y304599D01*
X336818Y304791D01*
X337253Y305124D01*
X337674Y305674D01*
X337774Y305914D01*
X338364Y306031D01*
X340704Y303691D01*
D02*
G37*
G36*
X400671Y284050D02*
Y274693D01*
X394847D01*
Y273987D01*
X394224D01*
Y275358D01*
X391672D01*
Y279323D01*
X392852D01*
X393550Y279415D01*
X394199Y279684D01*
X394758Y280112D01*
X395186Y280670D01*
X395455Y281320D01*
X395547Y282017D01*
X395455Y282714D01*
X395186Y283364D01*
X394758Y283922D01*
X394375Y284215D01*
X394339Y284311D01*
Y284723D01*
X394375Y284819D01*
X394758Y285112D01*
X395186Y285670D01*
X395455Y286320D01*
X395547Y287017D01*
X395455Y287714D01*
X395186Y288364D01*
X394758Y288922D01*
X394375Y289215D01*
X394369Y289233D01*
X394535Y289723D01*
X394998D01*
X400671Y284050D01*
D02*
G37*
%LPC*%
G36*
X385500Y372144D02*
Y370500D01*
X387144D01*
X387072Y370858D01*
X386586Y371586D01*
X385858Y372072D01*
X385500Y372144D01*
D02*
G37*
G36*
X373500Y371199D02*
X369652D01*
Y370371D01*
X367848D01*
Y371199D01*
X364000D01*
Y367822D01*
Y364445D01*
X367848D01*
Y365273D01*
X369652D01*
Y364445D01*
X373500D01*
Y367822D01*
Y371199D01*
D02*
G37*
G36*
X384500Y372144D02*
X384142Y372072D01*
X383414Y371586D01*
X382928Y370858D01*
X382781Y370121D01*
X382447Y369908D01*
X382276Y369857D01*
X381797Y370177D01*
X381322Y370271D01*
Y367822D01*
Y365372D01*
X381797Y365467D01*
X382624Y366020D01*
X383177Y366846D01*
X383371Y367822D01*
X383366Y367844D01*
X383816Y368145D01*
X384142Y367928D01*
X384500Y367856D01*
Y370000D01*
Y372144D01*
D02*
G37*
G36*
X356849Y371199D02*
X353000D01*
Y368322D01*
X356849D01*
Y371199D01*
D02*
G37*
G36*
X363000Y371199D02*
X359152D01*
Y368322D01*
X363000D01*
Y371199D01*
D02*
G37*
G36*
X387144Y369500D02*
X385500D01*
Y367856D01*
X385858Y367928D01*
X386586Y368414D01*
X387072Y369142D01*
X387144Y369500D01*
D02*
G37*
G36*
X356849Y367322D02*
X353000D01*
Y364445D01*
X356849D01*
Y367322D01*
D02*
G37*
G36*
X363000Y367322D02*
X359152D01*
Y364445D01*
X363000D01*
Y367322D01*
D02*
G37*
G36*
X344500Y364500D02*
X342550D01*
X342645Y364024D01*
X343198Y363198D01*
X344024Y362645D01*
X344500Y362550D01*
Y364500D01*
D02*
G37*
G36*
X340118Y363058D02*
Y361618D01*
X341558D01*
X341502Y361898D01*
X341060Y362560D01*
X340399Y363002D01*
X340118Y363058D01*
D02*
G37*
G36*
X339118D02*
X338838Y363002D01*
X338176Y362560D01*
X337734Y361898D01*
X337678Y361618D01*
X339118D01*
Y363058D01*
D02*
G37*
G36*
X370813Y325968D02*
X368813D01*
Y325762D01*
X366532D01*
X365654Y325588D01*
X364910Y325091D01*
X364412Y324346D01*
X364238Y323468D01*
X364412Y322590D01*
X364910Y321846D01*
X365654Y321349D01*
X366532Y321174D01*
X368813D01*
Y320968D01*
X370813D01*
Y323468D01*
Y325968D01*
D02*
G37*
G36*
X338118Y327500D02*
X336118D01*
Y325500D01*
X338118D01*
Y327500D01*
D02*
G37*
G36*
X449500Y339500D02*
X447856D01*
X447928Y339142D01*
X448414Y338414D01*
X449142Y337928D01*
X449500Y337856D01*
Y339500D01*
D02*
G37*
G36*
X456695Y310135D02*
X456415Y310079D01*
X455753Y309637D01*
X455311Y308975D01*
X455255Y308695D01*
X456695D01*
Y310135D01*
D02*
G37*
G36*
X495500Y312144D02*
Y310500D01*
X497144D01*
X497072Y310858D01*
X496586Y311586D01*
X495858Y312072D01*
X495500Y312144D01*
D02*
G37*
G36*
X494500D02*
X494142Y312072D01*
X493414Y311586D01*
X492928Y310858D01*
X492856Y310500D01*
X494500D01*
Y312144D01*
D02*
G37*
G36*
X487500Y310940D02*
Y309500D01*
X488940D01*
X488884Y309780D01*
X488442Y310442D01*
X487780Y310884D01*
X487500Y310940D01*
D02*
G37*
G36*
X497144Y309500D02*
X495500D01*
Y307856D01*
X495858Y307928D01*
X496586Y308414D01*
X497072Y309142D01*
X497144Y309500D01*
D02*
G37*
G36*
X494500D02*
X492856D01*
X492928Y309142D01*
X493414Y308414D01*
X494142Y307928D01*
X494500Y307856D01*
Y309500D01*
D02*
G37*
G36*
X476489Y284929D02*
Y283489D01*
X477929D01*
X477873Y283769D01*
X477431Y284431D01*
X476769Y284873D01*
X476489Y284929D01*
D02*
G37*
G36*
X338118Y297500D02*
X336118D01*
Y295500D01*
X338118D01*
Y297500D01*
D02*
G37*
%LPD*%
D12*
X313500Y394000D02*
X321000Y401500D01*
X504500Y361500D02*
X504500Y361500D01*
X495037Y361500D02*
X504500D01*
X441300Y365200D02*
Y370500D01*
X427500D02*
X441300D01*
X408000Y388848D02*
Y398000D01*
X381500Y384500D02*
X382000D01*
X334000Y389848D02*
Y398500D01*
X465700Y361500D02*
Y379555D01*
Y361500D02*
X481963D01*
X524836Y310164D02*
X529500Y305500D01*
X504544Y310164D02*
X524836D01*
X528101Y314101D02*
X529500Y315500D01*
X504544Y314101D02*
X528101D01*
X520069Y316069D02*
X529500Y325500D01*
X504544Y316069D02*
X520069D01*
X529500Y333000D02*
Y335500D01*
X514538Y318038D02*
X529500Y333000D01*
X376431Y323468D02*
Y331000D01*
X352500Y356178D02*
X352500Y356178D01*
X324500Y357000D02*
X334500D01*
X339618D02*
Y361118D01*
X369700Y386300D02*
X371500Y384500D01*
X369700Y386300D02*
Y401500D01*
X313500Y369500D02*
Y394000D01*
X321000Y401500D02*
X346569D01*
X322000Y342000D02*
X322059Y341941D01*
X352500Y401500D02*
X363000D01*
X335618Y291118D02*
Y295000D01*
X324500Y295000D02*
X324500Y295000D01*
X330500D01*
X335618Y321618D02*
Y325000D01*
X324500D02*
X330500D01*
X468706Y329000D02*
Y334420D01*
Y323949D02*
Y329000D01*
X516546Y261953D02*
X521500D01*
X426622Y312017D02*
X426639Y312000D01*
X521500Y283235D02*
Y303500D01*
X518773Y306227D02*
X521500Y303500D01*
X504544Y306227D02*
X518773D01*
X521500Y267884D02*
Y276535D01*
X505930Y331989D02*
X513500D01*
Y322500D02*
Y326478D01*
X511006Y320006D02*
X513500Y322500D01*
X504544Y320006D02*
X511006D01*
X504544Y318038D02*
X514538D01*
X441300Y379555D02*
X465700D01*
X471206Y282989D02*
X475989D01*
X499000Y297500D02*
X499853Y298353D01*
X504544D01*
X486191Y308191D02*
X487000Y309000D01*
X481706Y308191D02*
X486191D01*
X457195Y308195D02*
X463695D01*
X514206Y289000D02*
Y294810D01*
X478275Y327500D02*
Y332059D01*
X499717Y331989D02*
X505930D01*
X427500Y375618D02*
Y381000D01*
X441300Y388610D02*
X450610D01*
X338059Y263000D02*
X344500D01*
X332603Y331941D02*
X332941Y331603D01*
Y271338D02*
X333103Y271500D01*
X332941Y263000D02*
Y271338D01*
X469206Y348500D02*
X475500D01*
X478275Y345725D01*
Y340559D02*
Y345725D01*
X458000Y348500D02*
X462000D01*
X441300Y365200D02*
X458000Y348500D01*
X482500Y279000D02*
X486000Y282500D01*
X491000Y288000D02*
X491777Y288777D01*
Y306223D01*
X462706Y279000D02*
X482500D01*
X473836Y308664D02*
Y311000D01*
Y308336D02*
Y308664D01*
X473695Y308195D02*
X473836Y308336D01*
X469206Y308195D02*
X473695D01*
X473836Y308664D02*
X476277Y306223D01*
X481706D01*
X474000Y318038D02*
Y338500D01*
X472569Y339931D02*
X474000Y338500D01*
X468706Y339931D02*
X472569D01*
X425536Y350000D02*
X426474Y349062D01*
X501009Y288509D02*
X504542D01*
X499717Y287217D02*
X501009Y288509D01*
X499717Y262500D02*
Y287217D01*
X489717Y262500D02*
Y283800D01*
X485011Y288506D02*
X489717Y283800D01*
X481706Y288506D02*
X485011D01*
X465700Y340131D02*
Y361500D01*
X465500Y339931D02*
X468706D01*
X460206D02*
X465500D01*
X465700Y340131D01*
X427500Y370500D02*
X427500Y370500D01*
X494065Y316065D02*
X496034Y318034D01*
X481706Y316065D02*
X494065D01*
X498006Y320006D02*
X504544D01*
X496034Y318034D02*
X498006Y320006D01*
X481708Y318034D02*
X496034D01*
X489000Y332059D02*
X494136D01*
X484206D02*
X489000D01*
Y324000D02*
Y332059D01*
X486971Y321971D02*
X489000Y324000D01*
X481706Y321971D02*
X486971D01*
X484206Y332059D02*
X484206Y332059D01*
X484206Y332059D02*
Y340559D01*
X494136Y332059D02*
X494206Y331989D01*
X497679Y300321D02*
X504544D01*
X491777Y306223D02*
X497679Y300321D01*
X481706Y306223D02*
X491777D01*
X504544Y300321D02*
X514206D01*
X476475Y290475D02*
X481706D01*
X474500Y288500D02*
X476475Y290475D01*
X471206Y288500D02*
X474500D01*
X450943Y292443D02*
X481706D01*
X447206Y288706D02*
X450943Y292443D01*
X447206Y285700D02*
Y288706D01*
Y279000D02*
X456775D01*
X462706Y288500D02*
X471206D01*
X462706Y279000D02*
Y282672D01*
X461378Y284000D02*
X462706Y282672D01*
X458000Y284000D02*
X461378D01*
X456775Y285225D02*
X458000Y284000D01*
X456775Y285225D02*
Y288500D01*
X469500Y314097D02*
X481706D01*
X468706Y314891D02*
X469500Y314097D01*
X468706Y314891D02*
Y318438D01*
X460206Y318549D02*
X460317Y318438D01*
X468706D01*
X460206Y318549D02*
Y334000D01*
X445915Y296380D02*
X481706D01*
X436552Y287017D02*
X445915Y296380D01*
X426622Y287017D02*
X436552D01*
X447912Y294412D02*
X481706D01*
X435517Y282017D02*
X447912Y294412D01*
X426622Y282017D02*
X435517D01*
X426622Y292017D02*
X437517D01*
X443849Y298349D01*
X481706D01*
X426622Y297017D02*
X438017D01*
X441317Y300317D01*
X481706D01*
X426622Y302017D02*
X426639Y302000D01*
X433983D01*
X434269Y302286D01*
X481706D01*
X439746Y304254D02*
X481706D01*
X436983Y307017D02*
X439746Y304254D01*
X426622Y307017D02*
X436983D01*
X370483Y317000D02*
X370500Y317017D01*
X370483Y307000D02*
X370500Y307017D01*
X354293Y307000D02*
X354342Y307049D01*
D17*
X334000Y376774D02*
D03*
Y389848D02*
D03*
X408000Y375774D02*
D03*
Y388848D02*
D03*
D18*
X481963Y361500D02*
D03*
X495037D02*
D03*
D19*
X363500Y356178D02*
D03*
Y367822D02*
D03*
X374000Y356178D02*
D03*
Y367822D02*
D03*
X352500Y356178D02*
D03*
Y367822D02*
D03*
D20*
X354293Y302000D02*
D03*
Y307000D02*
D03*
Y312000D02*
D03*
Y317000D02*
D03*
X332500Y302000D02*
D03*
Y307000D02*
D03*
Y312000D02*
D03*
Y317000D02*
D03*
X354397Y331941D02*
D03*
Y336941D02*
D03*
Y341941D02*
D03*
Y346941D02*
D03*
X332603Y331941D02*
D03*
Y336941D02*
D03*
Y341941D02*
D03*
Y346941D02*
D03*
X333103Y286500D02*
D03*
Y281500D02*
D03*
Y276500D02*
D03*
Y271500D02*
D03*
X354897Y286500D02*
D03*
Y281500D02*
D03*
Y276500D02*
D03*
Y271500D02*
D03*
D21*
X441000Y388555D02*
D03*
Y370445D02*
D03*
Y379500D02*
D03*
D22*
X466000D02*
D03*
D23*
X335618Y295000D02*
D03*
X330500D02*
D03*
X338059Y263000D02*
D03*
X332941D02*
D03*
X335618Y325000D02*
D03*
X330500D02*
D03*
X399941Y335807D02*
D03*
X405059D02*
D03*
X418118Y335824D02*
D03*
X413000D02*
D03*
X402965Y271693D02*
D03*
X397847D02*
D03*
X334500Y357000D02*
D03*
X339618D02*
D03*
X371313Y323468D02*
D03*
X376431D02*
D03*
D24*
X352500Y401500D02*
D03*
X346569D02*
D03*
X398500Y350000D02*
D03*
X404431D02*
D03*
X412187D02*
D03*
X418118D02*
D03*
X484206Y340559D02*
D03*
X478275D02*
D03*
X478275Y332059D02*
D03*
X484206D02*
D03*
X460206Y318549D02*
D03*
X454275D02*
D03*
X456775Y279000D02*
D03*
X462706D02*
D03*
X436781Y312000D02*
D03*
X442711D02*
D03*
X370500Y317017D02*
D03*
X376431D02*
D03*
X370500Y307017D02*
D03*
X376431D02*
D03*
X370500Y297017D02*
D03*
X376431D02*
D03*
X370500Y287017D02*
D03*
X376431D02*
D03*
X397035Y258307D02*
D03*
X402965D02*
D03*
X456775Y288500D02*
D03*
X462706D02*
D03*
D25*
X369700Y401500D02*
D03*
X363000D02*
D03*
D26*
X426622Y335824D02*
D03*
Y349210D02*
D03*
X389000Y335807D02*
D03*
Y349193D02*
D03*
X389378Y271693D02*
D03*
Y258307D02*
D03*
D27*
X504544Y323943D02*
D03*
Y321975D02*
D03*
Y320006D02*
D03*
Y318038D02*
D03*
Y316069D02*
D03*
Y314101D02*
D03*
Y312132D02*
D03*
Y310164D02*
D03*
Y308195D02*
D03*
Y306227D02*
D03*
Y304258D02*
D03*
Y302290D02*
D03*
Y300321D02*
D03*
Y298353D02*
D03*
X504549Y296389D02*
D03*
X504542Y294408D02*
D03*
Y292446D02*
D03*
X504545Y290474D02*
D03*
X504542Y288509D02*
D03*
X481706Y288506D02*
D03*
Y290475D02*
D03*
Y292443D02*
D03*
Y294412D02*
D03*
Y296380D02*
D03*
Y298349D02*
D03*
Y300317D02*
D03*
Y302286D02*
D03*
Y304254D02*
D03*
Y306223D02*
D03*
Y308191D02*
D03*
Y310160D02*
D03*
Y312128D02*
D03*
Y314097D02*
D03*
Y316065D02*
D03*
X481708Y318034D02*
D03*
X481706Y320000D02*
D03*
Y321971D02*
D03*
X481716Y323949D02*
D03*
D28*
X460206Y339931D02*
D03*
Y334000D02*
D03*
X521500Y261953D02*
D03*
Y267884D02*
D03*
X437500Y322017D02*
D03*
Y327948D02*
D03*
D29*
X468706Y334420D02*
D03*
Y339931D02*
D03*
Y323949D02*
D03*
Y318438D02*
D03*
X471206Y288500D02*
D03*
Y282989D02*
D03*
X514206Y300321D02*
D03*
Y294810D02*
D03*
X513500Y326478D02*
D03*
Y331989D02*
D03*
D30*
X521500Y276535D02*
D03*
Y283235D02*
D03*
X447206Y285700D02*
D03*
Y279000D02*
D03*
D31*
X463695Y308195D02*
D03*
X469206D02*
D03*
X499717Y331989D02*
D03*
X494206D02*
D03*
D32*
X427500Y370500D02*
D03*
Y375618D02*
D03*
D33*
X426622Y282017D02*
D03*
Y287017D02*
D03*
Y292017D02*
D03*
Y297017D02*
D03*
Y302017D02*
D03*
Y307017D02*
D03*
Y312017D02*
D03*
Y317017D02*
D03*
Y322017D02*
D03*
Y327017D02*
D03*
X389378Y282017D02*
D03*
Y287017D02*
D03*
Y292017D02*
D03*
Y297017D02*
D03*
Y302017D02*
D03*
Y307017D02*
D03*
Y312017D02*
D03*
Y317017D02*
D03*
Y322017D02*
D03*
Y327017D02*
D03*
D56*
X408000Y365500D02*
X414000D01*
X401000D02*
X408000D01*
X382000Y384500D02*
X401000Y365500D01*
X408000D02*
Y375774D01*
X351000Y374000D02*
X361500Y384500D01*
X347000Y374000D02*
X351000D01*
X342500Y369500D02*
X347000Y374000D01*
X332678Y369500D02*
X342500D01*
X383404Y349904D02*
Y353404D01*
X375500Y342000D02*
X383404Y349904D01*
X372500Y342000D02*
X375500D01*
X380404Y352904D02*
Y356582D01*
X382822Y359000D01*
X374441Y346941D02*
X380404Y352904D01*
X354397Y346941D02*
X374441D01*
X383404Y353404D02*
X385500Y355500D01*
X431000D01*
X367441Y336941D02*
X372500Y342000D01*
X377000Y334000D02*
X384000Y341000D01*
X370500Y334000D02*
X377000D01*
X382822Y359000D02*
X432000D01*
X442711Y348288D01*
X354397Y336941D02*
X367441D01*
X433706Y362000D02*
X454275Y341431D01*
X377000Y362000D02*
X433706D01*
X374000Y359000D02*
X377000Y362000D01*
X431000Y355500D02*
X437500Y349000D01*
X398193Y340500D02*
X404000D01*
X393500Y335807D02*
X398193Y340500D01*
X404000D02*
X405059Y339441D01*
X389000Y335807D02*
X393500D01*
X374000Y356178D02*
Y359000D01*
X382431Y344000D02*
X393500D01*
X376431Y338000D02*
X382431Y344000D01*
X368441Y331941D02*
X370500Y334000D01*
X354397Y331941D02*
X368441D01*
X384000Y341000D02*
X394500D01*
X454275Y318549D02*
Y341431D01*
X426639Y312000D02*
X436781D01*
X442711D02*
Y348288D01*
X382500Y327017D02*
X389378D01*
X366532Y323468D02*
X371313D01*
X369517Y292017D02*
X389378D01*
X363000Y285500D02*
X369517Y292017D01*
X363000Y280500D02*
Y285500D01*
X360000Y286500D02*
X362500Y289000D01*
Y292000D01*
X361000Y271500D02*
X363000Y273500D01*
X354897Y271500D02*
X361000D01*
X354897Y276500D02*
X365000D01*
X370500Y282000D01*
Y287017D01*
X354897Y286500D02*
X360000D01*
X362500Y292000D02*
X367517Y297017D01*
X370500D01*
X414000Y370500D02*
X427500D01*
X414000Y365500D02*
Y370500D01*
X408309Y350000D02*
X412187D01*
X404431D02*
X408309D01*
X409000Y261307D02*
Y338500D01*
X406000Y258307D02*
X409000Y261307D01*
X402965Y258307D02*
X406000D01*
X418118Y350000D02*
X425536D01*
X397693Y349193D02*
X398500Y350000D01*
X389000Y349193D02*
X397693D01*
X405059Y310090D02*
Y335807D01*
X396986Y302017D02*
X405059Y310090D01*
X399941Y315955D02*
Y335807D01*
X396003Y312017D02*
X399941Y315955D01*
X393500Y344000D02*
X394507Y345007D01*
X403500D01*
X394500Y341000D02*
X396000Y342500D01*
X411000D02*
X413000Y340500D01*
X396000Y342500D02*
X411000D01*
X403500Y345007D02*
X404431Y345938D01*
Y350000D01*
X405059Y335807D02*
Y339441D01*
X426622Y322017D02*
X437500D01*
Y327948D02*
Y349000D01*
X382500Y322017D02*
X389378D01*
X381049Y323468D02*
X382500Y322017D01*
X376431Y323468D02*
X381049D01*
X363625Y310625D02*
X365017Y312017D01*
X389378D01*
X361483Y302000D02*
X363750Y304267D01*
X354293Y302000D02*
X361483D01*
X413000Y335824D02*
Y340500D01*
X426622Y327017D02*
Y335824D01*
X415483Y317017D02*
X426622D01*
X413000Y319500D02*
X415483Y317017D01*
X413000Y319500D02*
Y335824D01*
X418118D02*
X426622D01*
X389378Y312017D02*
X396003D01*
X389378Y302017D02*
X396986D01*
X389378Y258307D02*
X397035D01*
X389378Y271693D02*
Y282017D01*
X402965Y271693D02*
Y285000D01*
X395949Y292017D02*
X402965Y285000D01*
X389378Y292017D02*
X395949D01*
X389378Y271693D02*
X397847D01*
X354293Y317000D02*
X370483D01*
X354293Y307000D02*
X370483D01*
X376431Y317017D02*
X389378D01*
X376431Y307017D02*
X389378D01*
X376431Y287017D02*
X389378D01*
X376431Y297017D02*
X389378D01*
D57*
X324500Y369500D02*
X332678D01*
X334000Y370822D01*
Y376774D01*
X324500Y357000D02*
Y369500D01*
Y353000D02*
Y357000D01*
X313500Y369500D02*
X324500D01*
X343500Y284559D02*
X346559Y281500D01*
X343500Y312017D02*
Y329500D01*
Y284559D02*
Y300321D01*
X324500Y295000D02*
Y302000D01*
Y291500D02*
Y295000D01*
Y325000D02*
Y331941D01*
Y321000D02*
Y325000D01*
X343500Y341941D02*
Y350500D01*
X324500Y331941D02*
Y336941D01*
Y302000D02*
Y307000D01*
D58*
X343500Y312017D02*
X354397D01*
X352500Y356178D02*
X363500D01*
X374000D01*
X343500Y350500D02*
Y352500D01*
X347178Y356178D01*
X352500D01*
X346559Y281500D02*
X354897D01*
X343500Y341941D02*
X354397D01*
X324500Y336941D02*
X332603D01*
X324500Y302000D02*
X332500D01*
X324500Y274500D02*
X327500Y271500D01*
X324500Y274500D02*
Y276500D01*
X327500Y271500D02*
X333103D01*
X324500Y276500D02*
X333103D01*
X324500Y307000D02*
X332500D01*
X324500Y331941D02*
X332603D01*
D59*
X345000Y365000D02*
X347822Y367822D01*
X352500D01*
X363500Y367822D02*
X374000D01*
X380822D01*
X322000Y342000D02*
X326941Y346941D01*
X332603D01*
X349693Y302000D02*
X354293D01*
X346693Y305000D02*
X349693Y302000D01*
X343000Y305000D02*
X346693D01*
X336000Y312000D02*
X343000Y305000D01*
X332500Y312000D02*
X336000D01*
X336559Y341941D02*
X342676Y335824D01*
X346000D01*
X349883Y331941D02*
X354397D01*
X346000Y335824D02*
X349883Y331941D01*
X332603Y341941D02*
X336559D01*
X320000Y340000D02*
X322000Y342000D01*
X320000Y333500D02*
Y340000D01*
X313500Y327000D02*
X320000Y333500D01*
X313500Y319000D02*
Y327000D01*
X322059Y341941D02*
X332603D01*
X319500Y286500D02*
X324500Y281500D01*
X313500Y292500D02*
X319500Y286500D01*
X333103D01*
X324500Y281500D02*
X333103D01*
X313500Y292500D02*
Y299000D01*
X347193Y271500D02*
X354897D01*
X337193Y281500D02*
X347193Y271500D01*
X333103Y281500D02*
X337193D01*
X322483Y312000D02*
X332500D01*
X319483Y309000D02*
X322483Y312000D01*
X327483Y317000D01*
X332500D01*
X313500Y309000D02*
X319483D01*
D60*
X529500Y295500D02*
D03*
Y305500D02*
D03*
Y315500D02*
D03*
Y325500D02*
D03*
X489717Y262500D02*
D03*
X479717D02*
D03*
X313500Y359500D02*
D03*
Y309000D02*
D03*
Y319000D02*
D03*
D61*
X529500Y335500D02*
D03*
X313500Y369500D02*
D03*
Y299000D02*
D03*
D62*
X361500Y384500D02*
D03*
D63*
X381500D02*
D03*
X371500D02*
D03*
D64*
X499717Y262500D02*
D03*
D65*
X408000Y398000D02*
D03*
X334000Y398500D02*
D03*
X504500Y361500D02*
D03*
X376431Y331000D02*
D03*
X339618Y361118D02*
D03*
X376431Y338000D02*
D03*
X335618Y321618D02*
D03*
Y291118D02*
D03*
X516546Y261953D02*
D03*
X450610Y388610D02*
D03*
X475989Y282989D02*
D03*
X499000Y297500D02*
D03*
X344500Y263000D02*
D03*
X487000Y309000D02*
D03*
X505930Y331989D02*
D03*
X514206Y289000D02*
D03*
X457195Y308195D02*
D03*
X478275Y327500D02*
D03*
X382500Y327017D02*
D03*
X427500Y381000D02*
D03*
X468706Y329000D02*
D03*
X366532Y323468D02*
D03*
X363000Y273500D02*
D03*
Y280500D02*
D03*
X469206Y348500D02*
D03*
X462000D02*
D03*
X486000Y282500D02*
D03*
X491000Y288000D02*
D03*
X473836Y311000D02*
D03*
X474000Y318038D02*
D03*
X414000Y365500D02*
D03*
X409000Y338500D02*
D03*
X408309Y350000D02*
D03*
X363625Y310625D02*
D03*
X363750Y304267D02*
D03*
D66*
X535000Y390000D02*
D03*
X530000Y380000D02*
D03*
X535000Y370000D02*
D03*
X530000Y360000D02*
D03*
X535000Y350000D02*
D03*
Y330000D02*
D03*
Y310000D02*
D03*
Y290000D02*
D03*
X530000Y280000D02*
D03*
X535000Y270000D02*
D03*
X530000Y260000D02*
D03*
X525000Y390000D02*
D03*
X520000Y380000D02*
D03*
X525000Y370000D02*
D03*
X520000Y360000D02*
D03*
X525000Y350000D02*
D03*
X520000Y340000D02*
D03*
X525000Y290000D02*
D03*
X515000Y390000D02*
D03*
X510000Y380000D02*
D03*
X515000Y370000D02*
D03*
X510000Y360000D02*
D03*
X515000Y350000D02*
D03*
X510000Y340000D02*
D03*
Y280000D02*
D03*
X515000Y270000D02*
D03*
X510000Y260000D02*
D03*
X505000Y390000D02*
D03*
X500000Y380000D02*
D03*
X505000Y370000D02*
D03*
Y350000D02*
D03*
X500000Y340000D02*
D03*
X505000Y270000D02*
D03*
X495000Y390000D02*
D03*
X490000Y380000D02*
D03*
X495000Y370000D02*
D03*
Y350000D02*
D03*
X490000Y340000D02*
D03*
X495000Y310000D02*
D03*
Y270000D02*
D03*
X485000Y390000D02*
D03*
X480000Y380000D02*
D03*
X485000Y370000D02*
D03*
Y350000D02*
D03*
Y270000D02*
D03*
X475000Y390000D02*
D03*
Y370000D02*
D03*
Y270000D02*
D03*
X470000Y260000D02*
D03*
X465000Y390000D02*
D03*
X460000Y360000D02*
D03*
X465000Y330000D02*
D03*
Y270000D02*
D03*
X460000Y260000D02*
D03*
X455000Y390000D02*
D03*
Y370000D02*
D03*
X450000Y340000D02*
D03*
X455000Y270000D02*
D03*
X450000Y260000D02*
D03*
X440000Y280000D02*
D03*
X445000Y270000D02*
D03*
X440000Y260000D02*
D03*
X435000Y270000D02*
D03*
X430000Y260000D02*
D03*
X425000Y390000D02*
D03*
X420000Y380000D02*
D03*
X425000Y270000D02*
D03*
X420000Y260000D02*
D03*
X415000Y390000D02*
D03*
Y310000D02*
D03*
Y290000D02*
D03*
Y270000D02*
D03*
X400000Y300000D02*
D03*
X405000Y290000D02*
D03*
X395000Y390000D02*
D03*
Y330000D02*
D03*
X385000Y370000D02*
D03*
X380000Y280000D02*
D03*
Y260000D02*
D03*
X375000Y270000D02*
D03*
X370000Y260000D02*
D03*
X365000Y270000D02*
D03*
X360000Y260000D02*
D03*
X350000Y380000D02*
D03*
Y260000D02*
D03*
X345000Y390000D02*
D03*
X340000Y380000D02*
D03*
X330000D02*
D03*
X325000Y390000D02*
D03*
X320000Y380000D02*
D03*
Y260000D02*
D03*
X310000Y380000D02*
D03*
X315000Y350000D02*
D03*
X310000Y340000D02*
D03*
Y280000D02*
D03*
X315000Y270000D02*
D03*
X310000Y260000D02*
D03*
D67*
X380822Y367822D02*
D03*
X345000Y365000D02*
D03*
D68*
X343500Y300321D02*
D03*
Y312017D02*
D03*
Y329500D02*
D03*
Y341941D02*
D03*
X324500Y353000D02*
D03*
Y336941D02*
D03*
Y307000D02*
D03*
Y276500D02*
D03*
Y291500D02*
D03*
Y321000D02*
D03*
M02*
