G04*
G04 #@! TF.GenerationSoftware,Altium Limited,Altium Designer,18.1.9 (240)*
G04*
G04 Layer_Color=8388736*
%FSLAX25Y25*%
%MOIN*%
G70*
G01*
G75*
%ADD34R,0.05131X0.11824*%
%ADD35R,0.11824X0.05131*%
%ADD36R,0.07497X0.05554*%
%ADD37O,0.08814X0.03060*%
%ADD38R,0.08674X0.05524*%
%ADD39R,0.09855X0.15761*%
%ADD40R,0.03800X0.03800*%
%ADD41R,0.03975X0.04202*%
%ADD42R,0.03950X0.03950*%
%ADD43R,0.07493X0.05131*%
%ADD44R,0.05918X0.01981*%
%ADD45R,0.04202X0.03975*%
%ADD46R,0.04343X0.03950*%
%ADD47R,0.03950X0.03950*%
%ADD48R,0.03950X0.04343*%
%ADD49R,0.03800X0.03800*%
%ADD50O,0.10091X0.03143*%
%ADD51C,0.06706*%
%ADD52R,0.06706X0.06706*%
%ADD53R,0.08674X0.10642*%
%ADD54O,0.08674X0.10642*%
%ADD55R,0.06706X0.06706*%
D34*
X334000Y376774D02*
D03*
Y389848D02*
D03*
X408000Y375774D02*
D03*
Y388848D02*
D03*
D35*
X481963Y361500D02*
D03*
X495037D02*
D03*
D36*
X363500Y356178D02*
D03*
Y367822D02*
D03*
X374000Y356178D02*
D03*
Y367822D02*
D03*
X352500Y356178D02*
D03*
Y367822D02*
D03*
D37*
X354293Y302000D02*
D03*
Y307000D02*
D03*
Y312000D02*
D03*
Y317000D02*
D03*
X332500Y302000D02*
D03*
Y307000D02*
D03*
Y312000D02*
D03*
Y317000D02*
D03*
X354397Y331941D02*
D03*
Y336941D02*
D03*
Y341941D02*
D03*
Y346941D02*
D03*
X332603Y331941D02*
D03*
Y336941D02*
D03*
Y341941D02*
D03*
Y346941D02*
D03*
X333103Y286500D02*
D03*
Y281500D02*
D03*
Y276500D02*
D03*
Y271500D02*
D03*
X354897Y286500D02*
D03*
Y281500D02*
D03*
Y276500D02*
D03*
Y271500D02*
D03*
D38*
X441000Y388555D02*
D03*
Y370445D02*
D03*
Y379500D02*
D03*
D39*
X466000D02*
D03*
D40*
X335618Y295000D02*
D03*
X330500D02*
D03*
X338059Y263000D02*
D03*
X332941D02*
D03*
X335618Y325000D02*
D03*
X330500D02*
D03*
X399941Y335807D02*
D03*
X405059D02*
D03*
X418118Y335824D02*
D03*
X413000D02*
D03*
X402965Y271693D02*
D03*
X397847D02*
D03*
X334500Y357000D02*
D03*
X339618D02*
D03*
X371313Y323468D02*
D03*
X376431D02*
D03*
D41*
X352500Y401500D02*
D03*
X346569D02*
D03*
X398500Y350000D02*
D03*
X404431D02*
D03*
X412187D02*
D03*
X418118D02*
D03*
X484206Y340559D02*
D03*
X478275D02*
D03*
X478275Y332059D02*
D03*
X484206D02*
D03*
X460206Y318549D02*
D03*
X454275D02*
D03*
X456775Y279000D02*
D03*
X462706D02*
D03*
X436781Y312000D02*
D03*
X442711D02*
D03*
X370500Y317017D02*
D03*
X376431D02*
D03*
X370500Y307017D02*
D03*
X376431D02*
D03*
X370500Y297017D02*
D03*
X376431D02*
D03*
X370500Y287017D02*
D03*
X376431D02*
D03*
X397035Y258307D02*
D03*
X402965D02*
D03*
X456775Y288500D02*
D03*
X462706D02*
D03*
D42*
X369700Y401500D02*
D03*
X363000D02*
D03*
D43*
X426622Y335824D02*
D03*
Y349210D02*
D03*
X389000Y335807D02*
D03*
Y349193D02*
D03*
X389378Y271693D02*
D03*
Y258307D02*
D03*
D44*
X504544Y323943D02*
D03*
Y321975D02*
D03*
Y320006D02*
D03*
Y318038D02*
D03*
Y316069D02*
D03*
Y314101D02*
D03*
Y312132D02*
D03*
Y310164D02*
D03*
Y308195D02*
D03*
Y306227D02*
D03*
Y304258D02*
D03*
Y302290D02*
D03*
Y300321D02*
D03*
Y298353D02*
D03*
X504549Y296389D02*
D03*
X504542Y294408D02*
D03*
Y292446D02*
D03*
X504545Y290474D02*
D03*
X504542Y288509D02*
D03*
X481706Y288506D02*
D03*
Y290475D02*
D03*
Y292443D02*
D03*
Y294412D02*
D03*
Y296380D02*
D03*
Y298349D02*
D03*
Y300317D02*
D03*
Y302286D02*
D03*
Y304254D02*
D03*
Y306223D02*
D03*
Y308191D02*
D03*
Y310160D02*
D03*
Y312128D02*
D03*
Y314097D02*
D03*
Y316065D02*
D03*
X481708Y318034D02*
D03*
X481706Y320000D02*
D03*
Y321971D02*
D03*
X481716Y323949D02*
D03*
D45*
X460206Y339931D02*
D03*
Y334000D02*
D03*
X521500Y261953D02*
D03*
Y267884D02*
D03*
X437500Y322017D02*
D03*
Y327948D02*
D03*
D46*
X468706Y334420D02*
D03*
Y339931D02*
D03*
Y323949D02*
D03*
Y318438D02*
D03*
X471206Y288500D02*
D03*
Y282989D02*
D03*
X514206Y300321D02*
D03*
Y294810D02*
D03*
X513500Y326478D02*
D03*
Y331989D02*
D03*
D47*
X521500Y276535D02*
D03*
Y283235D02*
D03*
X447206Y285700D02*
D03*
Y279000D02*
D03*
D48*
X463695Y308195D02*
D03*
X469206D02*
D03*
X499717Y331989D02*
D03*
X494206D02*
D03*
D49*
X427500Y370500D02*
D03*
Y375618D02*
D03*
D50*
X426622Y282017D02*
D03*
Y287017D02*
D03*
Y292017D02*
D03*
Y297017D02*
D03*
Y302017D02*
D03*
Y307017D02*
D03*
Y312017D02*
D03*
Y317017D02*
D03*
Y322017D02*
D03*
Y327017D02*
D03*
X389378Y282017D02*
D03*
Y287017D02*
D03*
Y292017D02*
D03*
Y297017D02*
D03*
Y302017D02*
D03*
Y307017D02*
D03*
Y312017D02*
D03*
Y317017D02*
D03*
Y322017D02*
D03*
Y327017D02*
D03*
D51*
X529500Y295500D02*
D03*
Y305500D02*
D03*
Y315500D02*
D03*
Y325500D02*
D03*
X489717Y262500D02*
D03*
X479717D02*
D03*
X313500Y359500D02*
D03*
Y309000D02*
D03*
Y319000D02*
D03*
D52*
X529500Y335500D02*
D03*
X313500Y369500D02*
D03*
Y299000D02*
D03*
D53*
X361500Y384500D02*
D03*
D54*
X381500D02*
D03*
X371500D02*
D03*
D55*
X499717Y262500D02*
D03*
M02*
